{"glyphs":{"0":{"ha":789,"x_min":25,"x_max":757,"o":"m 353 933 q 397 933 378 933 q 431 926 415 932 q 460 910 446 921 q 489 879 474 900 q 528 806 514 843 q 550 725 542 768 q 566 585 564 653 q 565 447 568 517 q 560 389 564 418 q 548 333 557 360 q 523 283 539 306 q 479 247 507 261 q 368 224 431 224 q 257 247 306 224 q 220 289 236 260 q 193 353 204 318 q 175 422 182 388 q 164 482 168 457 q 158 658 147 565 q 196 829 168 751 q 219 876 204 858 q 255 905 235 894 q 300 921 275 915 q 353 933 325 926 m 492 801 q 447 799 468 803 q 405 789 425 794 q 364 777 385 783 q 322 769 343 771 q 298 769 308 768 q 277 771 288 769 q 256 772 267 772 q 233 765 246 771 q 206 731 217 757 q 196 675 196 706 q 194 628 196 649 q 192 582 192 607 q 197 515 194 547 q 200 447 200 482 q 209 402 200 419 q 229 358 218 385 q 247 317 239 336 q 267 281 256 297 q 295 254 278 265 q 342 239 313 243 q 379 238 357 238 q 424 240 401 238 q 465 249 446 243 q 496 265 485 254 q 524 321 514 289 q 538 386 533 353 q 545 453 543 419 q 550 511 547 486 q 551 594 553 551 q 542 675 550 638 q 531 715 535 694 q 518 754 526 735 q 509 774 513 763 q 500 793 506 785 q 483 805 492 800 q 475 825 475 810 l 492 801 m 561 969 q 495 994 535 982 q 411 1017 456 1007 q 320 1031 367 1028 q 234 1028 274 1035 q 165 1003 194 1022 q 125 947 136 983 q 118 911 119 931 q 110 875 117 892 q 94 824 104 849 q 79 775 85 800 q 57 655 60 711 q 60 532 54 599 q 74 403 67 468 q 99 289 81 338 q 113 260 104 276 q 131 230 121 244 q 153 203 142 215 q 175 186 164 192 q 230 166 199 171 q 286 150 261 161 q 350 134 315 138 q 420 136 385 131 q 488 155 456 142 q 546 189 521 168 q 582 220 561 200 q 611 254 603 240 q 620 302 622 278 q 618 350 618 326 q 631 514 625 433 q 633 682 638 594 q 626 765 631 722 q 604 843 621 808 q 582 908 589 875 q 561 969 575 942 m 607 967 q 608 944 607 953 q 614 931 610 936 q 626 921 618 925 q 646 913 633 917 q 678 889 674 901 q 689 847 682 876 q 722 730 703 789 q 746 608 740 671 q 756 426 757 517 q 739 247 756 336 q 669 123 721 165 q 542 57 618 81 q 476 38 510 47 q 407 25 442 29 q 338 24 372 21 q 272 43 304 26 q 240 60 256 49 q 211 82 225 71 q 190 84 197 86 q 178 82 183 82 q 169 88 174 82 q 157 115 165 94 q 150 153 149 133 q 136 193 151 174 q 87 280 108 231 q 51 384 65 329 q 31 495 36 439 q 32 604 25 551 q 50 712 43 663 q 71 815 57 761 q 78 856 74 833 q 90 901 83 878 q 103 945 96 924 q 118 983 110 967 q 160 1024 133 1010 q 217 1045 186 1039 q 281 1051 249 1051 q 342 1047 314 1050 q 412 1034 379 1044 q 479 1017 444 1024 q 549 1008 514 1014 q 604 975 583 1003 l 607 967 z "},"1":{"ha":467,"x_min":72,"x_max":389,"o":"m 126 710 q 126 613 128 661 q 122 517 124 565 q 119 421 119 469 q 126 321 119 372 q 136 252 129 286 q 149 183 143 218 q 156 154 153 163 q 165 145 158 146 q 181 149 171 144 q 211 156 192 153 q 244 152 232 156 q 265 149 257 149 q 276 158 272 150 q 283 189 281 165 q 290 317 290 254 q 289 440 289 379 q 279 579 289 510 q 261 715 269 649 q 253 803 253 760 q 261 888 254 847 q 265 913 263 897 q 269 943 268 928 q 266 972 269 958 q 253 993 263 985 q 226 995 242 1000 q 193 985 210 990 q 163 978 176 979 q 142 989 149 976 q 169 1002 151 993 q 205 1019 186 1011 q 240 1033 224 1028 q 265 1035 257 1038 q 277 1017 279 1028 q 283 1000 275 1007 q 316 978 299 986 q 353 961 333 969 q 376 916 374 953 q 375 822 379 879 q 374 674 369 747 q 375 525 379 601 q 371 366 374 444 q 381 208 368 288 q 385 142 383 174 q 389 74 386 110 q 384 36 389 50 q 369 15 379 22 q 341 6 358 8 q 300 4 324 4 q 248 11 274 4 q 214 43 222 18 q 214 66 210 51 q 211 90 218 81 q 199 102 204 100 q 186 104 193 104 q 171 103 179 104 q 153 106 163 101 q 121 145 129 115 q 111 210 113 175 q 113 281 110 246 q 115 339 117 317 q 103 451 108 394 q 96 560 99 507 q 92 612 96 586 q 83 663 88 638 q 75 713 78 688 q 75 765 72 738 q 78 829 78 797 q 79 897 79 861 q 78 931 79 914 q 79 965 76 947 q 89 987 86 983 q 103 982 92 990 q 117 944 121 967 q 110 903 114 921 q 116 806 110 854 q 126 710 122 758 z "},"2":{"ha":732,"x_min":10,"x_max":719,"o":"m 601 135 q 616 156 614 139 q 615 193 618 172 q 608 236 613 214 q 601 275 603 258 q 571 276 601 278 q 493 271 540 275 q 390 260 446 267 q 284 249 335 254 q 195 241 233 244 q 146 238 157 238 q 140 282 146 261 q 140 326 133 303 q 161 374 147 351 q 194 411 175 396 q 229 441 211 424 q 266 477 247 458 q 303 512 285 496 q 340 536 322 528 q 442 608 397 563 q 513 704 486 653 q 546 808 539 756 q 535 905 553 861 q 474 978 518 949 q 356 1011 431 1007 q 295 1006 328 1011 q 231 990 263 1000 q 171 963 199 979 q 126 926 143 947 q 108 899 118 918 q 90 859 97 881 q 81 817 83 838 q 90 786 79 796 q 124 778 106 772 q 158 797 142 783 q 189 826 175 810 q 211 850 203 843 q 239 874 224 863 q 270 894 254 886 q 302 906 286 903 q 333 901 318 908 q 371 863 363 889 q 375 808 379 838 q 358 752 371 779 q 329 711 344 725 q 285 672 307 692 q 239 639 263 651 q 172 578 200 610 q 118 510 144 547 q 90 460 103 489 q 67 402 76 432 q 51 341 57 372 q 43 283 44 310 q 44 246 40 265 q 47 208 47 226 q 59 169 51 181 q 79 156 67 158 q 110 156 92 153 q 153 161 128 160 q 276 153 211 165 q 406 139 342 142 q 521 139 463 133 q 536 138 525 139 q 560 135 547 136 q 584 134 572 135 q 601 135 596 133 m 278 279 q 358 284 315 281 q 446 290 401 288 q 533 293 490 292 q 614 292 576 294 q 622 263 617 282 q 635 238 628 243 q 647 225 640 228 q 660 222 653 222 q 675 222 668 222 q 689 215 682 221 q 699 194 694 208 q 706 163 703 179 q 712 133 710 147 q 717 115 714 119 q 719 71 719 97 q 711 29 718 44 q 690 11 707 17 q 652 4 674 6 q 608 4 631 3 q 571 6 586 6 q 488 9 529 6 q 403 13 447 13 q 267 13 332 13 q 131 25 201 14 q 130 44 131 31 q 128 71 129 57 q 124 98 126 85 q 118 118 121 111 q 102 130 111 126 q 83 135 93 133 q 63 141 72 138 q 47 151 53 144 q 24 205 28 171 q 15 263 19 239 q 16 324 10 299 q 28 385 22 349 q 77 502 44 443 q 149 610 110 561 q 191 649 168 631 q 237 685 214 667 q 280 724 260 704 q 313 769 300 744 q 326 798 321 781 q 329 832 331 815 q 317 862 328 849 q 282 876 307 875 q 255 864 263 879 q 245 827 247 849 q 244 783 243 806 q 246 749 246 760 q 213 726 231 732 q 178 719 196 719 q 144 719 161 718 q 114 721 126 721 q 111 731 110 726 q 115 742 113 736 q 119 752 118 747 q 114 763 119 757 q 99 770 107 772 q 79 775 90 768 q 67 797 71 783 q 63 826 63 810 q 65 856 63 842 q 72 882 68 871 q 94 919 82 900 q 126 947 107 939 q 141 958 133 950 q 156 975 149 967 q 169 990 163 983 q 182 999 175 997 q 201 1002 192 1001 q 219 1007 210 1003 q 272 1017 246 1017 q 321 1025 297 1018 q 431 1014 379 1033 q 525 956 483 994 q 555 938 538 944 q 587 923 572 931 q 612 905 601 915 q 622 876 622 894 q 629 844 624 864 q 640 802 635 824 q 648 760 644 781 q 649 725 651 739 q 629 657 640 689 q 594 597 618 625 q 544 538 567 565 q 499 487 521 510 q 452 444 476 464 q 399 407 428 424 q 322 355 358 383 q 271 279 285 326 l 278 279 z "},"3":{"ha":588,"x_min":8,"x_max":594,"o":"m 44 861 q 76 858 60 861 q 117 858 93 856 q 131 865 126 861 q 140 875 136 869 q 146 888 143 881 q 156 904 149 894 q 185 931 167 921 q 222 944 203 942 q 260 940 242 947 q 292 915 279 933 q 310 869 307 894 q 306 819 313 844 q 284 770 299 793 q 251 733 269 747 q 200 709 225 714 q 144 696 175 704 q 128 691 133 692 q 119 688 122 690 q 115 681 117 686 q 110 665 113 676 q 110 611 100 643 q 108 585 110 603 q 117 563 107 568 q 132 553 121 556 q 157 549 143 550 q 184 548 171 549 q 204 546 197 547 q 258 529 236 539 q 304 500 281 519 q 346 440 335 478 q 353 361 357 403 q 346 338 350 353 q 338 308 342 324 q 328 277 333 292 q 318 254 324 263 q 297 237 311 244 q 267 225 283 229 q 233 222 250 221 q 204 231 217 222 q 188 251 194 238 q 177 278 182 264 q 169 307 172 293 q 163 331 165 321 q 158 355 161 347 q 149 366 156 363 q 133 369 143 369 q 104 369 122 369 q 53 365 74 369 q 32 325 32 361 q 40 268 32 301 q 62 202 47 235 q 98 144 76 169 q 147 115 119 119 q 243 117 192 110 q 342 144 294 125 q 430 194 390 164 q 493 265 469 225 q 522 323 511 296 q 535 376 532 350 q 533 429 538 401 q 515 489 528 457 q 486 544 506 517 q 442 591 467 571 q 389 623 417 611 q 333 633 361 635 q 378 664 357 649 q 414 707 399 679 q 441 773 433 736 q 453 847 449 810 q 443 910 456 879 q 408 966 431 942 q 354 1006 385 990 q 292 1024 324 1022 q 202 1019 247 1029 q 117 989 157 1008 q 78 962 93 982 q 56 925 63 942 q 53 892 50 910 q 44 861 56 875 m 419 631 q 509 553 468 597 q 574 461 550 510 q 582 426 578 451 q 589 372 586 400 q 593 317 592 343 q 594 282 594 292 q 544 163 581 219 q 453 65 507 106 q 334 8 400 25 q 197 8 268 -10 q 108 33 153 18 q 39 88 63 49 q 27 106 32 97 q 22 124 22 114 q 35 145 25 138 q 49 164 46 153 q 46 187 50 174 q 36 215 42 200 q 26 242 31 229 q 19 265 21 256 q 12 295 15 279 q 9 326 8 311 q 17 353 10 340 q 39 374 24 365 q 78 385 57 382 q 121 386 100 389 q 159 373 142 383 q 185 342 176 363 q 194 306 192 325 q 203 271 196 286 q 204 254 203 265 q 213 242 206 243 q 256 238 231 228 q 290 264 281 249 q 320 313 307 285 q 332 371 333 340 q 326 392 329 385 q 316 406 322 400 q 301 416 310 411 q 279 429 292 421 q 266 435 275 432 q 247 440 257 438 q 226 445 236 443 q 211 449 217 447 q 188 452 200 454 q 171 456 176 450 q 153 471 158 461 q 146 493 147 481 q 145 519 144 506 q 144 543 146 532 q 117 542 133 546 q 94 546 101 539 q 86 558 88 549 q 85 578 85 567 q 85 665 81 625 q 98 699 86 690 q 129 708 110 707 q 168 716 153 711 q 203 731 183 721 q 236 750 221 738 q 267 774 251 763 q 300 840 300 799 q 292 866 300 857 q 272 878 283 875 q 248 880 261 882 q 225 871 235 878 q 200 847 208 861 q 189 814 192 833 q 178 774 186 783 q 144 764 171 764 q 113 763 131 764 q 86 765 94 761 q 77 797 79 776 q 72 826 75 817 q 53 830 61 825 q 32 835 44 835 q 33 875 28 853 q 39 914 39 897 q 48 951 43 933 q 64 975 53 968 q 93 997 76 985 q 127 1019 110 1008 q 162 1037 144 1029 q 193 1046 179 1044 q 240 1049 215 1049 q 290 1048 265 1050 q 339 1039 315 1046 q 381 1019 363 1032 q 405 999 390 1011 q 433 972 419 986 q 458 942 447 957 q 472 915 469 928 q 494 869 479 892 q 515 818 508 846 q 518 793 518 810 q 518 765 518 776 q 515 758 518 765 q 508 742 511 751 q 501 724 504 733 q 497 708 497 714 q 493 703 494 701 q 489 696 492 704 q 458 660 478 672 q 419 631 438 647 z "},"4":{"ha":615,"x_min":-7,"x_max":613,"o":"m 369 1006 q 307 963 332 989 q 251 908 282 936 q 192 853 219 876 q 143 789 165 829 q 99 717 121 751 q 50 646 76 682 q 25 606 31 624 q 8 561 19 588 q 61 538 31 542 q 124 538 92 535 q 188 548 156 542 q 246 557 219 554 q 272 557 263 558 q 286 550 282 556 q 292 534 290 544 q 294 507 293 524 q 295 439 299 468 q 294 369 292 410 q 295 266 299 322 q 294 154 292 210 q 301 124 294 133 q 320 110 308 114 q 349 106 332 106 q 385 104 365 106 q 418 107 408 103 q 430 121 428 111 q 431 144 432 131 q 431 176 429 158 q 444 276 438 229 q 449 375 451 324 q 443 441 449 403 q 444 507 438 479 q 453 526 449 521 q 465 533 458 532 q 481 533 471 533 q 503 535 490 532 q 519 540 514 539 q 527 544 525 542 q 530 552 529 547 q 532 569 531 557 q 531 597 532 582 q 519 617 531 613 q 499 619 513 621 q 469 616 485 618 q 439 612 453 614 q 419 614 425 610 q 401 637 406 619 q 396 674 396 654 q 397 715 396 694 q 397 751 399 736 q 392 871 394 814 q 369 988 389 928 l 369 990 l 369 1006 m 382 1029 q 401 1020 393 1029 q 414 1000 410 1011 q 428 1010 421 1003 q 440 1014 436 1017 q 453 974 449 996 q 461 928 458 951 q 465 883 464 906 q 468 842 467 860 q 478 760 475 799 q 474 681 481 721 q 469 655 469 661 q 474 648 469 649 q 487 647 478 647 q 508 643 496 647 q 538 633 529 639 q 549 622 547 628 q 550 607 551 615 q 550 589 549 599 q 562 574 554 576 q 578 572 569 572 q 595 571 586 572 q 611 557 604 569 q 613 536 613 550 q 612 507 613 522 q 610 479 611 492 q 604 461 608 467 q 586 454 597 454 q 565 455 575 454 q 545 455 554 456 q 532 449 536 454 q 525 438 528 446 q 521 419 522 429 q 519 398 519 408 q 519 382 519 388 q 520 285 519 333 q 515 188 521 238 q 515 147 513 174 q 517 92 517 119 q 512 40 517 64 q 493 7 507 15 q 466 -1 483 1 q 429 -1 449 -3 q 392 4 410 0 q 367 15 375 8 q 355 31 358 21 q 349 51 351 40 q 344 72 347 63 q 336 89 342 82 q 319 100 328 100 q 300 104 311 100 q 273 131 278 115 q 271 176 268 147 q 278 248 274 213 q 282 321 282 283 q 282 343 281 328 q 284 374 283 358 q 285 404 285 390 q 282 424 286 418 q 238 440 268 442 q 174 434 208 439 q 108 427 140 429 q 60 440 76 425 q 55 464 53 447 q 57 490 57 481 q 51 508 53 503 q 46 517 49 514 q 39 522 43 519 q 25 528 35 524 q 11 536 17 535 q 2 539 6 538 q -3 544 -1 540 q -4 561 -4 549 q -5 574 -7 569 q 3 589 -3 579 q 42 681 13 639 q 99 764 72 724 q 163 847 125 811 q 240 911 200 882 q 267 940 256 924 q 294 971 279 957 q 336 1000 314 989 q 375 1029 358 1011 l 382 1029 m 282 821 q 292 799 289 813 q 296 770 294 785 q 297 742 297 756 q 300 718 297 728 q 299 692 300 701 q 288 676 299 683 q 262 672 276 671 q 232 672 247 672 q 221 672 228 672 q 206 670 214 671 q 190 669 197 669 q 181 672 183 669 q 183 696 174 682 q 196 718 193 710 q 228 777 211 749 q 282 821 244 806 m 240 689 q 245 688 240 686 q 256 693 250 689 q 268 701 263 697 q 274 707 274 706 q 281 728 281 715 q 278 751 281 742 q 251 724 263 742 q 240 689 240 707 z "},"5":{"ha":717,"x_min":13,"x_max":689,"o":"m 24 306 q 44 262 29 286 q 78 213 58 238 q 117 169 97 189 q 153 139 138 149 q 209 121 176 126 q 276 115 242 115 q 344 117 310 114 q 406 128 378 121 q 493 169 449 136 q 561 240 538 201 q 597 326 588 282 q 599 415 606 371 q 572 500 593 458 q 521 576 551 542 q 476 623 497 607 q 413 650 454 639 q 372 656 394 653 q 328 661 349 658 q 310 660 321 661 q 286 660 299 660 q 263 660 274 660 q 249 664 253 661 q 240 676 242 668 q 239 692 239 683 q 240 710 239 701 q 239 728 240 719 q 226 783 236 756 q 217 833 217 810 q 219 860 217 851 q 229 872 222 869 q 248 875 236 875 q 276 876 260 875 q 328 883 303 881 q 379 889 353 886 q 413 888 390 889 q 458 888 435 888 q 501 890 481 888 q 532 899 522 892 q 539 917 538 906 q 539 942 540 929 q 535 969 538 956 q 532 992 533 982 q 525 1010 528 1004 q 518 1019 522 1017 q 506 1023 514 1022 q 486 1025 499 1024 q 417 1031 450 1031 q 351 1032 385 1032 l 235 1032 q 183 1034 211 1032 q 133 1032 156 1036 q 131 942 133 986 q 129 854 129 897 q 128 787 131 822 q 126 715 126 751 q 128 644 125 679 q 143 576 131 608 q 175 582 156 582 q 215 579 194 582 q 257 572 236 576 q 294 567 278 568 q 331 560 313 564 q 369 553 350 557 q 418 517 401 539 q 440 471 435 496 q 442 417 446 446 q 431 360 439 389 q 392 297 418 322 q 333 262 367 272 q 260 259 300 251 q 178 294 219 267 q 156 307 168 303 q 138 321 144 311 q 126 344 131 329 q 111 360 122 360 q 92 358 106 364 q 63 342 78 351 q 35 323 47 333 q 21 308 22 313 l 24 306 m 158 563 q 127 565 136 563 q 111 593 118 567 q 104 633 104 613 q 106 675 104 654 q 110 717 108 696 q 111 758 113 738 q 103 790 108 774 q 103 821 99 806 q 106 854 103 838 q 108 885 108 871 q 106 923 108 904 q 111 958 104 942 q 106 979 114 972 q 103 1000 99 986 q 110 1024 107 1008 q 121 1047 114 1040 q 138 1053 125 1053 q 163 1053 150 1054 q 189 1049 176 1051 q 208 1047 201 1047 q 315 1043 263 1047 q 419 1043 368 1039 q 469 1044 440 1046 q 518 1032 499 1043 q 535 1026 529 1028 q 546 1023 540 1024 q 558 1022 551 1022 q 578 1022 564 1022 q 610 1016 601 1022 q 624 982 619 1010 q 633 954 628 969 q 643 923 639 939 q 647 890 647 907 q 642 860 647 874 q 635 846 639 849 q 621 840 631 843 q 576 826 601 832 q 529 818 551 821 q 492 818 510 815 q 456 818 475 821 q 392 806 424 811 q 328 797 360 800 q 317 799 321 797 q 307 797 313 800 q 297 777 300 789 q 292 753 293 765 q 293 730 292 740 q 299 714 294 719 q 301 700 301 704 q 302 694 301 696 q 306 691 303 692 q 318 688 310 690 q 338 686 325 688 q 362 681 350 685 q 383 674 374 678 q 396 667 393 671 q 433 656 411 656 q 481 650 456 657 q 510 640 499 644 q 530 631 521 636 q 548 616 539 625 q 569 593 557 607 q 595 564 579 578 q 618 535 611 550 q 634 500 624 521 q 655 458 644 479 q 674 415 665 436 q 683 376 682 393 q 683 313 689 346 q 665 245 676 279 q 640 178 653 211 q 618 114 626 144 q 592 73 611 90 q 548 43 572 56 q 497 22 524 31 q 447 7 469 13 q 424 -1 433 1 q 408 -6 415 -4 q 390 -9 400 -8 q 367 -10 381 -10 q 324 -7 343 -10 q 288 2 306 -4 q 252 19 271 8 q 208 46 233 31 q 152 88 181 63 q 101 141 124 114 q 65 191 79 168 q 51 225 51 214 q 37 262 49 240 q 21 299 25 283 q 21 322 13 310 q 36 338 29 333 q 47 353 36 346 q 69 365 57 360 q 95 372 82 369 q 115 376 108 375 q 125 371 121 378 q 133 356 129 364 q 141 340 138 347 q 149 335 144 333 q 160 347 151 335 q 175 356 168 358 q 199 335 186 351 q 226 313 213 319 q 267 295 240 299 q 311 289 293 292 q 364 304 344 282 q 390 359 383 326 q 391 425 396 392 q 369 474 386 458 q 313 497 347 493 q 249 500 278 500 q 218 499 229 500 q 200 515 207 499 q 192 535 194 526 q 187 551 190 544 q 177 560 183 557 q 158 563 171 563 z "},"6":{"ha":704,"x_min":33,"x_max":686,"o":"m 514 813 q 527 831 517 822 q 549 847 538 839 q 570 862 560 854 q 583 878 581 869 q 579 892 585 883 q 566 910 574 901 q 550 929 558 919 q 538 946 542 939 q 477 989 508 975 q 412 1007 446 1003 q 342 1006 378 1011 q 269 992 307 1001 q 210 960 236 982 q 163 910 183 939 q 128 850 143 882 q 101 788 113 818 q 93 750 94 769 q 92 711 92 731 q 91 672 92 692 q 85 633 90 653 q 71 527 78 579 q 67 422 64 475 q 73 317 67 369 q 101 215 79 264 q 158 150 125 171 q 239 113 190 129 q 294 101 269 104 q 343 101 319 99 q 390 114 367 104 q 438 139 413 124 q 467 154 450 144 q 502 176 485 164 q 535 200 519 188 q 557 224 550 213 q 583 297 576 249 q 586 397 590 346 q 567 492 582 449 q 528 547 553 535 q 472 576 503 563 q 411 599 440 590 q 358 609 388 608 q 300 608 328 610 q 253 606 272 607 q 235 610 235 604 q 228 669 231 635 q 227 738 225 704 q 239 801 229 772 q 269 846 249 831 q 328 869 296 867 q 392 864 360 872 q 456 839 425 856 q 514 804 488 822 l 514 813 m 250 633 q 303 636 275 636 q 358 633 331 636 q 413 626 386 631 q 460 614 439 621 q 507 594 486 603 q 544 567 528 585 q 585 525 568 547 q 625 481 601 503 q 665 436 654 454 q 678 383 675 418 q 682 310 678 350 q 678 242 686 269 q 629 165 661 197 q 575 97 597 132 q 546 67 561 78 q 511 42 531 57 q 480 28 496 31 q 450 21 464 26 q 390 6 418 10 q 326 -1 363 1 q 281 9 301 -3 q 241 38 260 21 q 205 76 222 56 q 169 113 188 97 q 85 214 118 156 q 46 333 53 272 q 38 516 33 433 q 58 694 42 599 q 98 815 71 753 q 153 926 125 878 q 198 983 167 960 q 268 1019 229 1007 q 347 1034 307 1032 q 417 1026 386 1036 q 458 1015 436 1022 q 502 996 481 1007 q 544 971 524 985 q 578 942 564 957 q 617 892 608 917 q 601 839 625 868 q 583 827 594 831 q 571 813 571 824 q 581 788 571 804 q 592 761 592 772 q 575 742 590 750 q 539 726 560 733 q 497 713 518 719 q 464 701 476 707 q 450 733 458 714 q 430 772 442 753 q 404 804 418 790 q 374 819 390 818 q 319 802 339 822 q 289 752 299 782 q 278 690 279 722 q 281 640 278 658 l 250 633 m 357 503 q 392 461 374 478 q 422 426 410 444 q 437 385 435 408 q 422 326 439 363 q 393 290 410 303 q 358 272 376 276 q 318 270 339 268 q 276 279 297 272 q 238 297 251 285 q 217 327 224 310 q 211 367 211 344 q 213 414 211 389 q 230 474 215 453 q 266 503 244 496 q 313 507 288 511 q 364 493 339 503 l 357 503 m 340 407 q 284 413 310 425 q 247 376 258 400 q 247 328 236 353 q 300 296 257 303 q 349 300 324 293 q 390 331 375 307 q 402 366 404 351 q 388 391 400 381 q 360 409 376 401 q 326 422 343 417 l 340 407 z "},"7":{"ha":663,"x_min":14,"x_max":654,"o":"m 21 897 q 38 903 29 903 q 54 899 46 903 q 72 892 63 896 q 92 886 81 888 q 125 881 107 883 q 161 878 143 878 q 226 867 193 872 q 296 858 260 861 q 312 855 301 857 q 333 851 322 853 q 355 844 344 849 q 369 835 365 840 q 374 818 374 828 q 372 798 374 808 q 366 778 369 788 q 361 763 363 768 q 344 714 354 739 q 324 665 335 689 q 262 491 288 579 q 221 307 236 403 q 208 246 214 275 q 193 190 201 217 q 176 154 183 172 q 165 115 168 136 q 212 109 189 108 q 256 107 235 110 q 280 102 271 104 q 295 103 289 100 q 306 114 301 106 q 315 139 310 122 q 353 247 335 192 q 389 354 371 301 q 454 551 419 454 q 517 751 489 647 q 526 805 519 779 q 540 858 533 831 q 559 901 549 876 q 569 947 569 925 q 553 973 569 965 q 516 983 538 981 q 472 986 494 986 q 436 988 450 986 q 344 1004 392 996 q 249 1015 296 1013 q 192 1020 221 1018 q 133 1022 164 1022 q 104 1027 118 1024 q 79 1031 90 1031 q 60 1024 68 1031 q 49 999 53 1017 q 33 948 39 972 q 24 894 26 924 l 21 897 m 593 710 q 572 652 582 679 q 551 594 563 625 q 527 515 543 553 q 496 438 511 476 q 462 334 478 388 q 436 225 446 281 q 426 168 432 203 q 411 100 421 133 q 385 42 401 67 q 342 14 368 17 q 310 11 332 13 q 265 11 289 10 q 222 17 242 13 q 197 29 203 21 q 192 42 193 33 q 193 60 192 51 q 197 78 194 69 q 200 90 199 86 q 177 96 189 94 q 158 101 165 97 q 148 115 150 106 q 153 143 146 124 q 165 176 163 161 q 174 210 167 192 q 183 251 176 228 q 193 294 190 275 q 215 410 204 356 q 249 524 225 465 q 274 587 260 556 q 304 650 289 618 q 325 705 313 678 q 338 760 338 732 q 275 766 306 765 q 214 766 244 767 q 153 767 183 765 q 92 775 122 768 q 68 794 68 782 q 68 831 68 807 q 69 849 68 840 q 68 871 71 858 q 42 875 53 874 q 24 882 31 876 q 16 898 18 888 q 17 929 14 908 q 25 974 19 953 q 40 1015 31 994 q 49 1032 44 1028 q 59 1038 53 1036 q 74 1038 65 1039 q 96 1039 82 1038 q 178 1042 142 1042 q 260 1035 215 1042 q 363 1021 311 1025 q 464 1007 414 1017 q 495 1004 478 1006 q 530 999 513 1003 q 561 986 547 994 q 582 964 575 978 q 583 933 588 951 q 585 906 579 915 q 597 897 589 899 q 615 897 606 896 q 634 897 625 897 q 649 890 643 896 q 653 876 654 886 q 649 853 653 865 q 638 831 644 842 q 629 815 632 821 q 610 765 617 792 q 593 710 603 738 z "},"8":{"ha":751,"x_min":35,"x_max":743,"o":"m 292 990 q 326 1003 303 1000 q 361 999 350 1006 q 429 966 400 988 q 467 899 458 944 q 467 860 471 881 q 456 822 464 840 q 434 788 447 803 q 404 764 421 772 q 366 751 388 754 q 324 750 344 749 q 287 756 304 751 q 260 768 269 761 q 231 802 243 779 q 213 846 219 825 q 206 896 204 871 q 219 942 207 921 q 250 977 231 963 q 296 996 269 992 l 292 990 m 329 893 q 307 883 315 892 q 294 862 299 874 q 290 837 290 850 q 292 814 289 824 q 308 789 296 797 q 338 778 321 781 q 372 778 354 775 q 404 788 390 781 q 422 812 417 793 q 428 848 428 831 q 426 875 429 865 q 417 872 422 885 q 408 869 414 865 q 396 879 403 872 q 383 893 389 886 q 374 900 376 900 q 329 893 350 915 m 465 246 q 505 285 490 263 q 526 335 519 308 q 535 392 533 363 q 535 450 536 422 q 524 494 533 472 q 499 532 514 515 q 463 559 483 549 q 421 571 443 569 q 388 572 401 574 q 358 568 374 571 q 306 540 332 557 q 264 500 279 524 q 239 456 251 481 q 219 403 226 431 q 211 349 211 376 q 225 300 211 322 q 268 258 238 276 q 335 232 299 240 q 406 226 371 224 q 465 246 442 229 m 546 388 q 536 335 543 364 q 517 281 529 307 q 485 234 504 254 q 439 207 465 214 q 376 204 411 201 q 307 217 342 207 q 242 244 272 228 q 196 283 213 261 q 174 326 183 301 q 158 378 164 351 q 152 432 153 406 q 158 478 151 458 q 172 519 164 499 q 190 559 179 540 q 218 592 201 578 q 260 614 235 607 q 316 627 288 625 q 374 628 344 629 q 447 601 414 617 q 510 553 481 585 q 546 474 542 517 q 546 388 550 432 m 369 1025 q 355 1037 365 1033 q 332 1041 344 1040 q 307 1042 319 1042 q 286 1042 294 1042 q 240 1035 263 1038 q 196 1021 218 1032 q 159 994 172 1011 q 139 953 146 976 q 130 906 132 931 q 128 857 128 881 q 140 785 128 817 q 171 717 153 753 q 178 697 178 704 q 174 683 178 689 q 160 673 169 678 q 139 660 151 668 q 99 617 115 640 q 75 564 82 593 q 60 451 67 507 q 56 342 53 396 q 65 303 58 325 q 81 260 71 282 q 102 217 90 238 q 128 183 114 196 q 165 158 144 168 q 206 140 185 149 q 256 125 238 132 q 286 114 274 118 q 421 114 353 99 q 463 120 439 115 q 511 132 488 125 q 556 149 535 139 q 589 171 576 158 q 669 303 646 228 q 676 457 692 378 q 647 541 667 506 q 589 603 628 576 q 556 630 572 614 q 524 660 540 646 q 483 676 504 672 q 444 688 461 679 q 478 724 461 704 q 509 765 494 743 q 533 812 524 786 q 542 867 542 838 q 524 924 542 894 q 492 975 506 954 q 462 999 479 989 q 424 1018 444 1010 q 384 1034 404 1026 q 346 1051 364 1042 l 369 1025 m 557 942 q 578 901 565 919 q 601 862 590 882 q 616 819 611 842 q 617 768 621 797 q 608 728 614 746 q 599 688 603 710 q 583 650 589 667 q 599 618 576 633 q 663 558 635 590 q 699 478 690 526 q 719 402 707 440 q 737 326 731 364 q 740 251 743 289 q 715 179 738 214 q 675 117 694 147 q 621 71 656 88 q 595 56 608 64 q 569 43 582 49 q 524 17 547 28 q 471 7 500 7 q 390 7 432 7 q 308 13 349 7 q 231 36 268 19 q 165 88 194 53 q 89 199 119 142 q 43 325 58 257 q 35 397 35 365 q 42 468 35 428 q 46 534 46 500 q 58 596 46 568 q 90 635 71 619 q 128 671 110 651 q 140 687 138 681 q 142 700 143 693 q 138 715 142 707 q 131 736 135 724 q 119 785 125 760 q 108 838 113 811 q 101 892 103 865 q 107 942 100 918 q 124 981 114 958 q 147 1014 135 1003 q 173 1033 157 1026 q 207 1044 189 1040 q 243 1051 225 1049 q 275 1053 261 1053 q 334 1054 303 1056 q 393 1051 365 1053 q 430 1040 410 1047 q 471 1022 450 1032 q 510 1001 492 1013 q 540 979 528 989 q 557 942 554 963 z "},"9":{"ha":722,"x_min":17,"x_max":701,"o":"m 143 351 q 118 349 133 349 q 87 350 103 350 q 58 349 71 350 q 43 340 46 347 q 44 306 35 325 q 72 269 54 288 q 109 233 90 250 q 136 204 128 215 q 168 165 149 181 q 211 137 188 149 q 260 118 235 125 q 311 106 286 111 q 384 117 340 104 q 461 147 428 131 q 492 166 475 156 q 525 190 510 176 q 553 219 540 204 q 571 254 565 235 q 587 338 582 292 q 589 425 592 385 q 591 526 589 474 q 585 628 593 578 q 565 751 574 686 q 553 878 556 815 q 453 1014 553 975 q 383 1031 421 1026 q 308 1033 346 1035 q 235 1022 271 1031 q 169 1000 199 1014 q 108 958 129 982 q 75 906 86 935 q 60 842 64 876 q 51 768 57 807 q 47 676 46 719 q 63 597 49 633 q 108 532 78 560 q 189 486 138 504 q 327 466 254 463 q 457 518 400 469 q 466 447 463 486 q 465 371 469 408 q 443 302 460 333 q 393 254 426 271 q 353 240 376 246 q 307 235 331 235 q 260 239 283 235 q 222 254 238 243 q 176 296 197 269 q 143 351 154 322 m 204 1042 q 274 1049 231 1047 q 361 1049 317 1051 q 445 1040 406 1047 q 504 1019 485 1032 q 526 1000 518 1011 q 542 978 535 989 q 560 956 550 967 q 585 939 569 946 q 609 931 599 933 q 627 923 619 928 q 640 908 635 918 q 650 878 646 897 q 653 852 654 863 q 651 832 653 842 q 648 811 649 822 q 650 785 647 800 q 685 566 669 675 q 699 344 701 457 q 696 265 696 301 q 685 191 696 228 q 648 115 675 154 q 567 31 621 76 q 525 9 550 15 q 473 2 500 3 q 418 4 446 1 q 368 10 390 7 q 276 24 318 13 q 193 63 233 36 q 137 94 165 74 q 90 142 108 114 q 63 203 68 174 q 51 269 58 233 q 42 292 49 279 q 28 317 35 304 q 19 341 22 329 q 24 363 17 353 q 40 369 29 367 q 65 372 51 371 q 92 372 79 372 q 114 372 106 372 q 135 374 128 374 q 147 373 143 375 q 156 364 151 371 q 167 344 160 357 q 192 296 176 321 q 232 260 208 271 q 263 251 244 253 q 302 249 282 249 q 341 252 322 249 q 372 260 360 256 q 426 290 413 271 q 443 344 440 308 q 446 385 447 372 q 438 401 444 397 q 417 404 431 406 q 382 403 403 403 q 347 400 365 403 q 309 395 328 397 q 273 394 290 393 q 242 403 256 396 q 181 438 214 415 q 117 488 147 460 q 65 548 86 517 q 38 608 43 579 q 26 674 26 640 q 29 736 25 708 q 40 813 36 776 q 44 886 43 850 q 71 952 50 926 q 119 1000 92 978 q 197 1038 160 1028 q 275 1063 235 1047 l 204 1042 m 425 886 q 433 833 431 868 q 435 761 436 799 q 427 692 433 724 q 407 650 421 661 q 383 635 399 642 q 351 624 368 629 q 317 616 333 619 q 289 608 300 613 q 209 630 239 606 q 151 703 179 654 q 135 751 139 722 q 135 808 131 779 q 152 864 139 838 q 189 907 165 890 q 240 922 201 915 q 322 927 279 928 q 399 917 365 926 q 435 886 432 908 l 425 886 m 376 661 q 401 694 393 671 q 408 744 408 718 q 398 792 407 769 q 372 826 389 815 q 340 832 360 832 q 300 826 319 832 q 264 809 281 819 q 242 785 247 799 q 227 754 233 774 q 219 714 221 735 q 222 676 217 693 q 242 650 226 658 q 270 640 251 642 q 309 642 289 639 q 348 650 329 644 q 376 661 367 656 z "},"A":{"ha":900,"x_min":4,"x_max":896,"o":"m 338 982 q 312 951 322 964 q 294 915 301 938 q 293 901 292 908 q 292 888 294 893 q 281 865 286 874 q 276 844 276 856 q 242 739 263 792 q 200 632 222 686 q 149 524 176 576 q 111 414 122 471 q 106 358 106 386 q 99 303 106 329 q 89 261 94 279 q 78 226 83 243 q 69 190 74 208 q 60 149 64 171 q 42 108 53 129 q 28 67 32 88 q 47 62 33 64 q 74 59 60 60 q 101 60 89 58 q 121 65 114 61 q 142 89 139 75 q 154 121 146 103 q 172 165 165 142 q 190 213 179 189 q 209 260 200 239 q 229 308 218 282 q 251 356 240 333 q 269 403 263 379 q 276 436 275 415 q 286 461 276 457 q 308 465 293 465 q 341 462 324 464 q 376 458 358 460 q 403 457 393 456 q 451 463 426 460 q 500 468 476 467 q 540 445 533 465 q 554 397 547 425 q 569 356 561 374 q 582 319 576 338 q 615 247 596 285 q 640 168 635 210 q 641 149 642 161 q 640 126 640 138 q 641 103 639 114 q 651 89 643 93 q 673 88 660 86 q 699 94 686 90 q 722 104 711 99 q 740 114 733 110 q 768 125 757 122 q 788 128 779 128 q 801 132 796 129 q 808 143 806 135 q 813 174 814 156 q 805 210 811 192 q 790 244 799 228 q 775 271 782 261 q 750 324 758 296 q 724 378 742 353 q 678 457 697 415 q 640 540 658 499 q 591 631 617 586 q 542 728 565 675 q 504 802 522 764 q 460 876 486 840 q 433 916 446 900 q 399 947 419 932 q 370 974 383 958 q 340 988 357 989 l 338 982 m 299 960 q 313 981 306 971 q 333 1001 321 992 q 361 1004 350 1013 q 385 989 372 996 q 399 1003 388 1000 q 422 1010 411 1006 q 437 1017 431 1013 q 449 1022 443 1021 q 460 1020 454 1024 q 475 1006 467 1017 q 489 976 486 994 q 503 947 492 958 q 506 940 506 946 q 510 933 507 935 q 523 914 517 926 q 535 894 529 901 q 544 881 540 886 q 553 860 547 875 q 578 800 565 831 q 615 740 592 769 q 636 697 629 721 q 654 650 643 672 q 678 610 663 628 q 704 569 693 592 q 722 543 706 554 q 731 519 728 529 q 738 499 735 510 q 747 485 740 492 q 757 472 753 478 q 782 415 772 443 q 806 360 792 388 q 828 295 818 328 q 847 229 839 263 q 869 194 857 211 q 889 158 882 178 q 892 127 889 144 q 893 97 896 110 q 872 78 886 86 q 846 64 857 71 q 805 47 828 53 q 758 31 782 40 q 745 23 753 24 q 728 22 738 22 q 720 24 724 22 q 711 25 717 26 q 699 49 710 38 q 688 72 689 60 q 664 74 671 72 q 647 66 657 71 q 633 64 636 61 q 624 75 626 65 q 622 98 622 85 q 622 123 621 111 q 622 140 622 135 q 615 167 618 154 q 613 196 611 181 q 601 219 611 210 q 589 239 592 228 q 576 269 583 257 q 569 300 568 282 q 565 327 565 311 q 557 354 564 343 q 541 358 550 360 q 522 351 532 356 q 501 343 511 347 q 482 339 490 339 q 421 343 447 342 q 358 342 394 344 q 335 340 346 338 q 322 328 325 342 q 304 286 314 307 q 288 244 294 265 q 279 228 283 233 q 269 213 275 224 q 263 194 267 203 q 256 176 260 186 q 241 142 249 156 q 229 107 233 128 q 226 71 228 88 q 215 42 224 54 q 213 21 214 28 q 200 7 211 14 q 186 3 193 3 q 168 -1 179 4 q 165 -3 167 -1 q 158 -4 163 -6 q 141 -8 153 -7 q 119 -6 129 -10 q 107 -3 113 -6 q 96 3 101 0 q 90 7 93 3 q 86 11 88 11 q 59 23 72 18 q 32 35 46 28 q 24 43 28 39 q 15 54 21 47 q 13 51 14 51 q 8 54 8 47 q 4 63 4 56 q 4 72 4 69 q 16 101 7 90 q 28 126 25 113 q 38 168 31 151 q 54 208 46 185 q 68 257 58 232 q 81 308 78 282 q 85 348 86 329 q 86 389 83 367 q 88 406 88 396 q 96 422 89 415 q 103 448 100 433 q 110 472 106 463 q 122 499 115 486 q 131 519 128 511 q 138 545 133 535 q 149 568 142 556 q 158 588 156 576 q 163 610 160 600 q 172 631 168 619 q 179 651 175 642 q 199 688 189 669 q 217 726 208 707 q 236 784 229 754 q 256 840 243 814 q 261 871 260 856 q 268 903 263 886 q 280 931 272 917 q 299 960 288 944 m 426 822 q 452 751 438 786 q 481 682 467 717 q 497 651 490 667 q 511 619 504 635 q 503 588 529 596 q 433 582 472 574 q 363 597 394 590 q 344 606 347 603 q 342 622 340 608 q 353 663 344 644 q 365 700 363 682 q 369 731 369 715 q 369 763 368 746 q 365 786 367 768 q 364 810 363 804 q 374 813 368 814 q 385 810 379 813 q 396 807 390 808 q 406 808 401 806 q 414 817 408 813 q 426 822 419 822 m 421 729 q 418 706 418 718 q 417 679 418 693 q 412 660 417 665 q 403 644 407 654 q 399 624 397 631 q 408 614 401 617 q 425 610 415 611 q 444 610 435 610 q 466 611 461 608 q 470 620 471 614 q 465 635 469 626 q 457 656 460 644 q 449 674 453 661 q 442 700 446 688 q 433 722 438 713 q 421 729 428 731 z "},"B":{"ha":697,"x_min":32,"x_max":651,"o":"m 115 993 q 104 988 110 992 q 92 981 99 985 q 81 976 86 978 q 71 978 75 975 q 66 986 64 981 q 68 994 68 992 q 81 1006 74 1004 q 99 1010 89 1007 q 131 1018 118 1017 q 160 1019 143 1019 q 227 1024 193 1019 q 293 1031 261 1028 q 334 1026 308 1031 q 375 1017 360 1021 q 413 997 394 1004 q 453 974 431 989 q 465 962 456 971 q 483 944 474 953 q 501 926 493 935 q 511 917 508 918 q 522 915 518 915 q 533 913 526 915 q 543 897 539 908 q 549 874 547 886 q 553 849 551 861 q 554 832 554 838 q 547 760 554 789 q 531 712 539 731 q 517 683 522 693 q 514 668 511 674 q 525 656 518 658 q 539 651 532 654 q 590 615 569 639 q 626 563 611 590 q 637 516 632 551 q 646 440 642 481 q 651 363 650 400 q 649 311 651 325 q 639 276 647 304 q 611 213 631 249 q 560 139 592 176 q 482 76 529 101 q 463 69 478 75 q 431 55 449 63 q 396 40 414 47 q 367 32 378 33 q 313 16 340 25 q 258 4 285 7 q 232 3 246 4 q 207 -1 218 3 q 193 0 203 -4 q 183 7 183 4 q 176 22 181 18 q 168 36 172 26 q 164 48 165 40 q 160 65 163 56 q 159 79 160 72 q 156 90 158 86 q 142 97 151 96 q 123 100 132 99 q 106 104 114 101 q 99 115 99 107 q 108 126 99 125 q 124 128 117 128 q 166 128 146 131 q 207 124 186 126 q 244 123 218 122 q 299 126 269 124 q 353 131 328 128 q 389 139 379 135 q 424 151 399 142 q 476 184 449 161 q 525 247 503 207 q 551 350 547 288 q 554 388 551 372 q 551 436 557 403 q 544 466 549 449 q 531 501 539 483 q 515 535 524 518 q 497 563 507 551 q 464 593 482 582 q 424 621 446 604 q 399 637 417 628 q 367 651 382 646 q 348 656 361 654 q 328 660 335 657 q 326 674 321 668 q 339 685 331 681 q 356 692 347 689 q 369 699 365 696 q 430 731 407 708 q 464 781 453 754 q 476 832 475 807 q 474 872 478 857 q 463 907 468 888 q 447 942 458 926 q 425 963 443 950 q 378 988 407 976 q 309 1004 349 999 q 221 1003 269 1010 q 167 1001 196 1003 q 115 993 138 1000 m 49 974 q 65 948 60 971 q 73 897 71 925 q 76 842 75 868 q 78 807 76 817 q 90 688 88 746 q 96 567 92 629 q 99 522 96 542 q 99 479 101 501 q 92 422 96 447 q 90 364 88 397 q 98 334 94 349 q 101 303 101 319 q 99 265 101 283 q 99 229 96 247 q 104 213 101 218 q 109 203 107 207 q 110 194 111 199 q 107 179 110 189 q 103 165 104 172 q 98 151 101 157 q 90 146 94 146 q 78 154 86 146 q 72 182 72 167 q 73 213 71 197 q 78 246 75 229 q 82 276 81 263 q 76 304 82 289 q 71 338 71 319 q 69 383 68 360 q 71 431 71 407 q 72 541 71 486 q 71 649 74 596 q 63 744 68 697 q 49 836 58 790 q 45 878 46 857 q 42 922 44 899 q 38 936 40 926 q 33 954 35 946 q 35 969 32 963 q 49 974 38 975 m 282 875 q 279 860 281 869 q 278 840 278 850 q 279 820 278 829 q 285 807 281 811 q 307 800 292 800 q 332 810 322 800 q 343 833 343 818 q 347 861 343 849 q 357 870 353 869 q 364 865 361 871 q 367 852 367 860 q 367 836 368 844 q 353 803 363 815 q 330 783 343 790 q 301 769 317 775 q 269 758 285 764 q 253 756 263 756 q 242 753 244 756 q 231 737 233 746 q 222 721 229 728 q 212 715 215 714 q 206 720 208 715 q 204 733 204 725 q 204 750 204 742 q 201 808 204 781 q 188 864 199 835 q 182 890 185 878 q 179 912 179 901 q 185 931 179 922 q 204 950 190 940 q 231 959 214 956 q 265 963 247 963 q 299 961 283 964 q 322 953 314 958 q 347 924 342 944 q 360 885 353 904 q 322 876 342 872 q 282 875 301 879 m 285 303 q 325 317 304 314 q 369 338 346 319 q 390 363 379 346 q 406 399 400 379 q 411 436 413 418 q 396 465 410 454 q 362 488 381 483 q 319 492 343 492 q 299 485 300 492 q 297 457 297 479 l 297 364 q 294 344 297 353 q 289 325 292 335 q 281 315 286 317 q 285 303 276 314 m 278 569 q 328 563 303 564 q 375 543 354 561 q 402 515 394 528 q 417 479 410 501 q 428 447 422 463 q 433 411 433 431 q 433 372 436 392 q 414 342 429 353 q 394 322 403 333 q 375 306 386 310 q 349 295 360 299 q 328 286 339 292 q 307 278 322 283 q 275 270 292 274 q 244 265 258 267 q 226 267 231 264 q 218 288 221 271 q 215 325 215 304 q 215 365 214 346 q 215 392 215 383 q 213 426 215 401 q 207 478 210 450 q 203 531 204 506 q 207 567 203 556 q 242 577 218 581 q 278 569 265 574 z "},"C":{"ha":831,"x_min":42,"x_max":815,"o":"m 632 938 q 563 980 603 968 q 482 990 524 992 q 399 974 440 988 q 324 942 358 960 q 240 893 285 921 q 161 833 196 865 q 102 757 125 801 q 68 667 79 713 q 56 551 58 608 q 74 442 54 494 q 93 388 85 414 q 111 338 101 363 q 131 290 121 313 q 153 242 142 268 q 176 189 165 219 q 207 143 188 158 q 235 131 218 135 q 270 126 251 128 q 306 123 289 124 q 336 121 324 122 q 406 108 371 114 q 478 106 442 101 q 590 115 546 107 q 661 135 633 124 q 706 163 689 147 q 739 196 724 179 q 731 226 736 211 q 720 256 726 240 q 706 288 714 272 q 586 242 653 256 q 456 235 519 228 q 345 276 390 240 q 272 371 300 311 q 249 410 264 394 q 222 450 235 426 q 213 494 215 474 q 207 533 211 514 q 201 591 204 563 q 201 647 199 619 q 211 702 203 675 q 236 754 219 729 q 289 801 257 781 q 358 833 321 821 q 435 849 396 846 q 507 846 474 851 q 538 837 524 842 q 563 831 551 832 q 586 833 575 829 q 610 853 597 838 q 625 874 619 865 q 633 892 631 883 q 634 912 635 901 q 632 938 633 922 m 739 231 q 765 232 756 232 q 781 228 775 232 q 792 215 788 224 q 803 192 796 206 q 815 151 815 169 q 794 111 814 132 q 702 59 756 76 q 603 25 649 42 q 533 8 571 10 q 461 6 496 6 q 347 25 401 3 q 244 75 293 47 q 188 110 213 94 q 147 157 163 126 q 128 190 139 178 q 111 222 118 203 q 84 289 96 257 q 65 356 72 321 q 53 422 63 390 q 44 488 44 453 q 49 553 42 525 q 54 604 56 581 q 67 710 49 660 q 118 801 86 760 q 190 876 150 843 q 269 933 231 910 q 338 969 307 956 q 382 983 369 982 q 401 987 389 983 q 425 994 414 990 q 445 1002 436 999 q 456 1007 454 1006 q 496 1017 472 1018 q 535 1011 519 1015 q 571 1003 551 1008 q 607 988 590 997 q 636 965 624 979 q 650 932 649 951 q 681 933 667 932 q 706 919 696 933 q 714 902 710 915 q 718 879 718 889 q 715 851 722 864 q 697 829 708 838 q 685 818 693 822 q 672 807 676 814 q 664 794 665 801 q 660 781 663 788 q 638 757 653 764 q 606 749 624 750 q 570 751 589 749 q 535 758 551 754 q 492 763 514 761 q 449 758 471 765 q 399 753 424 756 q 351 738 375 750 q 339 726 343 731 q 331 715 335 722 q 306 683 321 701 q 285 651 292 665 q 288 631 285 640 q 290 613 290 621 q 291 577 293 593 q 285 544 289 561 q 285 528 285 533 q 290 511 286 522 q 289 477 290 496 q 294 447 288 458 q 304 432 297 438 q 315 417 311 426 q 317 399 318 408 q 318 383 315 390 q 337 339 325 358 q 364 304 349 319 q 429 261 386 276 q 507 246 472 246 q 547 246 526 246 q 586 249 567 246 q 622 263 604 256 q 656 279 640 271 q 669 290 661 283 q 684 299 676 296 q 700 300 692 301 q 718 288 708 299 q 733 265 725 279 q 739 236 742 250 l 739 231 z "},"D":{"ha":732,"x_min":32,"x_max":700,"o":"m 149 907 q 166 931 153 924 q 196 939 179 938 q 230 938 213 940 q 258 932 247 935 q 301 925 281 928 q 340 917 321 922 q 374 900 358 911 q 403 868 390 889 q 427 816 417 844 q 445 756 438 788 q 458 694 453 725 q 464 639 463 664 q 467 542 467 590 q 475 446 468 494 q 468 403 476 425 q 446 362 460 381 q 415 328 432 343 q 379 304 397 313 q 349 294 360 297 q 326 281 338 290 q 307 269 313 272 q 290 263 301 265 q 276 260 286 261 q 253 260 265 260 q 231 262 242 260 q 217 267 221 264 q 215 280 214 269 q 215 296 215 290 q 211 360 213 329 q 201 419 210 390 q 183 527 186 476 q 181 636 181 578 q 172 703 178 669 q 159 772 165 738 q 149 840 153 806 q 149 907 144 874 m 249 854 q 251 743 246 800 q 269 636 257 686 q 286 566 278 601 q 297 494 294 531 q 297 406 297 451 q 306 321 297 361 q 307 307 308 310 q 313 301 306 304 q 340 301 324 294 q 368 315 357 308 q 386 331 378 324 q 406 342 394 338 q 421 354 414 349 q 433 369 428 360 q 448 413 444 389 q 451 460 451 436 q 446 508 450 483 q 439 553 442 532 q 434 608 435 579 q 431 665 433 636 q 424 722 429 694 q 406 776 418 750 q 375 809 393 796 q 335 831 357 822 q 292 845 314 840 q 249 854 269 850 m 54 990 q 64 881 54 935 q 85 773 74 826 q 106 666 97 719 q 111 558 114 613 q 101 407 110 482 q 96 254 93 332 q 106 199 96 226 q 115 140 115 172 q 170 138 142 136 q 226 140 199 140 q 306 143 267 140 q 385 161 346 146 q 451 192 418 174 q 510 235 483 210 q 553 294 536 261 q 575 367 571 326 q 579 466 582 411 q 565 565 576 521 q 553 628 557 596 q 547 691 550 660 q 539 753 544 722 q 522 811 533 783 q 476 883 506 849 q 418 950 446 917 q 383 982 404 969 q 338 1007 361 994 q 247 1024 292 1024 q 154 1014 201 1025 q 102 1007 131 1010 q 54 990 74 1004 m 96 157 q 90 182 99 176 q 75 201 82 188 q 70 233 71 214 q 70 274 69 251 q 73 322 71 297 q 75 369 75 346 q 83 493 75 432 q 92 617 92 554 q 81 669 92 640 q 71 726 71 699 q 68 785 68 758 q 58 844 68 813 q 42 910 50 876 q 32 974 35 944 q 38 997 32 989 q 51 1007 43 1004 q 70 1010 60 1010 q 92 1014 81 1011 q 151 1028 126 1021 q 215 1029 176 1036 q 288 1026 251 1026 q 358 1011 324 1025 q 378 1003 368 1010 q 397 988 388 996 q 416 971 407 979 q 433 958 425 963 q 461 956 450 951 q 488 958 472 961 q 545 933 514 951 q 596 900 576 915 q 616 859 607 882 q 632 817 625 836 q 658 767 644 789 q 676 718 672 746 q 683 678 683 701 q 688 636 683 656 q 699 564 699 601 q 697 494 700 526 q 690 426 693 458 q 682 357 686 393 q 663 267 676 311 q 622 183 650 222 q 563 121 603 147 q 492 68 524 94 q 441 44 469 53 q 382 31 413 35 q 321 24 351 26 q 264 19 290 22 q 244 16 257 18 q 216 13 231 14 q 189 15 201 13 q 171 24 176 17 q 167 35 168 26 q 164 46 167 43 q 160 85 163 69 q 139 111 158 101 q 124 115 129 118 q 111 119 119 113 q 96 157 96 129 z "},"E":{"ha":722,"x_min":22,"x_max":717,"o":"m 213 986 q 162 981 186 986 q 110 976 138 976 q 57 976 83 969 q 26 993 38 976 q 28 1004 22 997 q 35 1014 35 1011 q 58 1007 51 1011 q 83 1003 64 1003 q 96 1005 92 1004 q 108 1010 100 1006 q 151 1015 126 1017 q 196 1014 176 1014 l 213 1014 q 265 1020 236 1021 q 322 1024 294 1019 q 384 1020 354 1024 q 446 1014 414 1017 q 478 1013 465 1011 q 508 1004 492 1015 q 519 1002 517 1001 q 523 1001 522 1003 q 523 996 524 1000 q 524 981 522 992 q 534 972 526 974 q 550 969 542 969 q 566 968 558 969 q 578 961 574 967 q 585 942 582 957 q 590 912 589 928 q 590 881 592 896 q 583 861 589 867 q 574 848 581 857 q 560 830 568 839 q 542 815 551 821 q 524 808 532 808 q 488 810 518 808 q 424 814 458 813 q 358 815 389 815 q 322 808 328 814 q 310 785 313 801 q 310 749 308 768 q 313 710 311 729 q 315 678 315 690 q 327 672 313 675 q 363 666 342 669 q 404 660 383 663 q 435 658 425 658 q 465 658 446 658 q 503 658 483 658 q 542 656 524 657 q 574 653 561 654 q 590 652 582 653 q 604 645 599 651 q 612 626 610 639 q 610 589 614 613 q 615 567 607 575 q 631 551 622 560 q 644 528 639 542 q 642 489 649 515 q 635 461 638 475 q 622 433 633 447 q 604 425 621 425 q 578 422 588 425 q 531 414 554 413 q 483 410 507 415 q 455 406 475 407 q 414 403 435 406 q 376 397 393 401 q 354 385 358 393 q 353 368 354 381 q 353 343 351 356 q 358 321 354 331 q 371 314 363 311 q 389 316 379 317 q 408 313 399 315 q 424 309 417 311 q 435 307 432 307 q 515 300 490 299 q 558 301 539 301 q 595 297 589 301 q 610 285 601 293 q 614 260 614 278 q 621 233 614 242 q 644 222 631 226 q 672 210 658 217 q 696 196 686 204 q 707 175 706 188 q 714 120 711 151 q 703 71 717 89 q 690 47 696 54 q 677 35 683 39 q 664 33 671 32 q 647 33 657 33 q 608 31 635 33 q 552 24 582 28 q 494 17 522 19 q 451 14 467 14 q 417 14 440 14 q 367 13 393 14 q 318 11 340 13 q 289 8 296 10 q 263 4 269 6 q 251 3 256 3 q 237 4 246 3 q 207 8 228 6 q 179 6 194 8 q 163 14 164 4 q 156 39 156 24 q 153 64 157 54 q 142 79 153 71 q 118 95 131 88 q 94 109 106 103 q 83 119 83 115 q 72 149 78 133 q 72 183 67 164 q 70 234 75 210 q 65 301 65 258 q 58 401 65 346 q 51 503 51 456 q 53 555 51 531 q 58 603 56 579 q 60 651 60 626 q 58 704 61 675 q 53 751 56 725 q 47 803 50 776 q 42 856 44 831 q 35 904 39 882 q 31 921 35 911 q 26 941 28 931 q 25 960 24 951 q 33 972 26 968 q 56 960 47 978 q 70 919 65 943 q 77 870 75 894 q 82 838 79 846 q 85 762 86 804 q 83 675 85 719 q 79 587 81 631 q 82 508 78 543 q 87 468 83 489 q 94 425 90 447 q 98 384 97 407 q 99 337 99 361 q 97 289 99 313 q 94 247 96 265 q 96 226 94 242 q 99 194 97 211 q 104 163 101 178 q 110 143 107 149 q 124 131 114 135 q 146 126 133 128 q 170 126 158 125 q 190 126 182 126 q 213 124 207 124 q 224 127 219 125 q 235 132 229 129 q 258 138 242 135 q 308 140 282 142 q 360 143 335 139 q 457 144 411 143 q 553 146 503 146 q 572 144 563 144 q 586 147 581 144 q 594 156 592 150 q 590 172 596 161 q 590 189 590 175 q 590 219 590 203 q 588 248 589 235 q 583 264 586 261 q 565 268 579 267 q 535 269 551 269 q 503 269 518 269 q 483 269 489 269 q 453 272 464 271 q 428 282 443 274 q 380 285 407 288 q 326 278 353 282 q 273 272 299 274 q 228 276 247 269 q 231 356 226 310 q 239 433 235 401 q 240 457 240 446 q 240 478 239 468 q 245 494 240 488 q 264 504 250 501 q 303 509 281 508 q 349 509 325 510 q 394 507 372 508 q 433 504 417 506 q 460 506 444 504 q 486 508 475 508 q 500 508 490 508 q 522 507 510 507 q 544 508 533 507 q 558 514 554 510 q 567 530 561 514 q 576 566 572 546 q 581 603 581 586 q 578 622 582 619 q 550 625 569 622 q 515 631 531 628 q 473 639 492 636 q 436 642 454 642 q 399 641 418 642 q 353 640 379 640 q 307 638 329 640 q 265 640 285 636 q 244 635 256 640 q 226 640 232 631 q 221 651 222 643 q 219 669 219 660 q 220 689 219 679 q 221 704 221 699 q 223 742 225 722 q 221 797 221 761 q 227 831 226 817 q 228 867 228 844 q 231 890 228 882 q 251 901 233 899 q 273 897 263 901 q 296 897 283 893 q 347 901 319 897 q 397 910 374 906 q 442 902 417 910 q 486 901 467 894 q 496 913 492 903 q 501 938 500 924 q 501 966 503 951 q 494 989 500 981 q 478 996 492 994 q 449 997 465 997 q 418 997 433 997 q 397 999 403 996 q 345 999 367 1000 q 303 994 324 997 q 263 989 283 992 q 213 986 242 986 z "},"F":{"ha":628,"x_min":11,"x_max":624,"o":"m 39 729 q 48 621 42 675 q 67 514 54 567 q 82 451 72 482 q 97 383 92 419 q 103 329 104 358 q 106 275 103 300 q 104 238 107 258 q 100 197 101 217 q 101 160 99 178 q 117 133 104 143 q 154 115 133 121 q 194 117 175 108 q 214 125 208 119 q 220 139 219 131 q 219 157 221 147 q 218 179 218 167 q 219 269 218 224 q 218 358 221 314 q 213 427 218 394 q 207 494 207 460 q 285 499 246 499 q 362 501 324 500 q 438 504 400 501 q 513 514 475 507 q 540 524 536 517 q 544 560 544 532 l 544 614 q 508 619 529 619 q 465 616 488 619 q 421 609 443 613 q 381 606 399 606 q 315 603 349 606 q 253 606 281 601 q 194 633 211 613 q 173 681 176 653 q 174 742 169 710 q 182 806 179 775 q 182 842 182 826 q 201 865 182 857 q 223 867 210 868 q 251 865 236 867 q 280 863 267 864 q 301 861 293 861 q 349 862 326 861 q 394 865 371 863 q 426 864 408 865 q 463 863 444 863 q 496 865 481 863 q 519 872 511 867 q 535 884 535 882 q 533 906 535 886 q 532 928 533 914 q 524 950 531 943 q 485 967 515 960 q 417 978 454 974 q 342 983 379 982 q 288 985 306 985 q 203 986 246 988 q 117 982 161 985 q 91 978 104 982 q 65 974 78 975 q 44 978 53 974 q 35 999 36 983 q 89 1000 58 999 q 153 1003 119 1001 q 219 1004 186 1004 q 281 1001 253 1004 q 366 1004 324 999 q 453 999 408 1010 q 478 994 465 996 q 504 990 492 993 q 527 982 517 988 q 543 965 538 976 q 548 959 547 963 q 549 951 549 956 q 550 943 549 947 q 557 935 551 939 q 574 926 565 924 q 592 924 582 928 q 617 893 611 913 q 618 854 624 874 q 613 833 614 843 q 610 813 611 822 q 605 798 608 804 q 592 790 601 792 q 505 774 553 775 q 419 771 457 774 q 386 771 404 769 q 350 773 368 772 q 315 772 332 774 q 285 761 297 769 q 263 727 261 747 q 268 681 265 707 q 272 649 271 665 q 285 628 272 633 q 294 623 286 624 q 313 622 303 622 q 331 623 322 622 q 344 624 340 624 q 438 626 393 619 q 528 638 483 632 q 563 639 553 644 q 585 614 574 633 q 587 599 588 607 q 592 585 586 592 q 601 574 592 581 q 614 560 610 567 q 620 527 618 546 q 621 490 622 508 q 613 457 619 472 q 594 435 607 442 q 559 430 579 429 q 524 431 539 431 q 468 430 496 432 q 408 428 440 428 q 351 427 372 428 q 319 418 329 426 q 306 392 308 410 q 308 339 304 374 q 301 273 310 307 q 294 207 292 239 q 299 163 296 188 q 303 113 301 139 q 303 64 304 88 q 294 22 301 40 q 228 15 261 25 q 163 6 196 6 q 140 8 147 4 q 131 19 133 11 q 130 39 129 26 q 129 67 131 51 q 128 94 129 86 q 117 113 128 101 q 97 116 108 117 q 75 122 86 115 q 67 141 68 131 q 69 163 67 151 q 74 187 71 175 q 75 211 76 199 l 75 332 q 54 482 71 407 q 31 631 38 557 q 26 723 28 675 q 19 817 25 771 q 14 897 17 857 q 11 976 11 936 q 28 925 26 949 q 31 876 31 901 q 36 802 33 838 q 39 729 39 767 z "},"G":{"ha":789,"x_min":8,"x_max":790,"o":"m 601 983 q 621 965 614 976 q 638 940 628 953 q 660 923 646 932 q 676 903 674 914 q 679 898 679 900 q 679 886 679 896 q 672 865 679 875 q 660 840 664 856 q 664 822 657 826 q 679 801 671 817 q 706 758 697 778 q 692 715 714 739 q 648 692 674 694 q 601 704 622 689 q 581 716 586 713 q 568 735 576 719 q 547 767 558 753 q 521 789 536 781 q 467 808 493 807 q 411 808 440 808 q 368 808 390 808 q 333 786 346 808 q 317 770 331 779 q 299 756 304 761 q 290 735 296 743 q 279 715 285 728 q 276 690 276 704 q 272 661 275 676 q 276 610 269 635 q 283 560 283 586 q 282 510 281 535 q 283 460 283 485 q 284 413 283 436 q 290 365 285 389 q 292 354 292 358 q 295 347 293 350 q 301 340 297 343 q 314 331 306 336 q 338 308 329 324 q 360 288 346 293 q 373 286 363 288 q 393 285 383 285 l 407 288 q 426 294 419 290 q 443 304 433 297 q 478 317 467 310 q 508 346 490 325 q 523 376 526 367 q 506 392 519 386 q 476 405 493 399 q 454 424 460 411 q 454 442 451 433 q 454 460 457 450 q 442 472 451 467 q 431 482 433 476 q 431 522 425 500 q 443 560 436 544 q 452 593 446 572 q 471 624 458 614 q 492 628 479 629 q 517 624 504 628 q 544 616 531 621 q 568 607 557 611 q 598 594 582 600 q 629 583 614 589 q 658 569 644 576 q 683 550 672 561 q 710 520 701 532 q 733 493 718 508 q 741 478 739 489 q 744 457 743 468 q 748 435 746 446 q 757 419 750 424 q 776 413 769 411 q 786 401 782 415 q 788 365 786 378 q 781 331 790 351 q 764 251 767 293 q 743 171 761 208 q 706 129 728 144 q 665 93 685 114 q 606 46 638 67 q 535 22 574 25 q 390 9 465 15 q 244 22 314 3 q 201 52 218 31 q 170 100 183 74 q 144 154 157 126 q 115 203 132 182 q 49 326 71 257 q 14 467 26 396 q 8 566 8 514 q 11 665 8 618 q 19 733 14 706 q 47 793 25 761 q 67 840 61 815 q 88 883 74 865 q 104 899 99 893 q 115 910 110 904 q 127 919 125 919 q 135 929 129 919 q 170 962 147 944 q 208 988 193 979 q 258 1013 232 1000 q 310 1031 283 1025 q 421 1033 367 1036 q 516 1020 467 1031 q 601 983 565 1010 m 601 801 q 602 814 601 811 q 606 817 603 817 q 615 817 610 817 q 629 825 621 818 q 649 849 639 833 q 660 879 660 864 q 654 893 660 885 q 642 908 649 901 q 628 922 635 915 q 618 933 621 929 q 560 983 593 965 q 494 1010 528 1001 q 426 1022 460 1019 q 364 1024 392 1024 q 299 1014 332 1024 q 236 988 267 1004 q 179 948 206 971 q 132 899 153 925 q 77 775 96 846 q 47 642 58 704 q 38 555 35 596 q 42 467 42 514 q 56 376 42 419 q 89 296 69 333 q 129 228 108 258 q 163 179 150 199 q 178 154 174 168 q 199 133 183 140 q 222 121 207 125 q 255 115 238 117 q 290 112 272 113 q 319 110 307 111 q 482 114 408 97 q 622 194 556 131 q 663 249 643 218 q 697 313 682 279 q 718 383 711 347 q 722 451 725 418 q 710 493 721 476 q 681 523 699 510 q 643 547 664 536 q 601 571 622 558 q 567 594 585 583 q 534 608 550 604 q 503 608 518 613 q 478 583 489 603 q 468 566 474 578 q 458 542 463 554 q 453 517 454 529 q 458 497 453 504 q 479 483 463 490 q 515 470 496 476 q 552 458 533 464 q 579 447 571 451 q 537 347 568 389 q 461 286 506 306 q 363 269 417 267 q 256 304 310 272 q 212 347 231 318 q 181 411 193 376 q 165 483 169 446 q 165 550 161 519 q 175 641 175 599 q 189 732 175 683 q 254 833 211 793 q 364 879 297 874 q 419 876 392 882 q 471 863 446 869 q 514 853 490 857 q 556 840 538 850 q 578 822 571 833 q 601 801 586 810 z "},"H":{"ha":739,"x_min":22,"x_max":719,"o":"m 67 544 q 57 583 60 564 q 51 621 54 601 q 47 656 49 638 q 36 688 46 674 q 35 704 36 692 q 35 731 35 717 q 35 759 35 746 q 35 779 35 772 q 31 802 33 793 q 26 819 28 811 q 23 835 24 826 q 25 860 22 844 q 32 888 32 872 q 35 918 32 904 q 37 947 35 933 q 36 974 39 960 q 31 995 35 988 q 39 1017 28 1003 q 58 1029 46 1026 q 79 1035 69 1032 q 94 1035 83 1035 q 115 1037 104 1036 q 135 1036 126 1038 q 147 1031 144 1035 q 149 1022 151 1029 q 150 1013 147 1015 q 163 1010 157 1010 q 175 1008 168 1010 q 207 1003 192 1008 q 222 981 222 997 l 231 981 q 240 913 233 944 q 253 849 247 881 q 253 805 258 826 q 249 757 249 783 q 288 755 268 760 q 326 750 307 750 l 383 750 q 406 749 393 750 q 430 747 418 747 q 451 751 442 747 q 463 764 460 754 q 456 786 463 772 q 447 807 450 800 q 444 820 444 817 q 444 835 444 824 q 444 869 440 850 q 451 904 449 888 q 450 931 451 918 q 451 960 449 944 q 483 1001 456 992 q 539 1010 510 1010 q 569 1009 554 1010 q 593 994 585 1008 q 596 983 599 988 q 603 974 593 979 q 623 967 614 968 q 638 963 632 965 q 647 954 643 961 q 651 932 650 947 q 653 907 651 917 q 661 886 654 897 q 669 833 664 860 q 679 779 675 807 q 682 735 682 757 q 682 690 682 714 q 693 594 685 642 q 692 496 701 547 q 696 326 683 414 q 705 237 703 281 q 714 144 707 193 q 718 116 717 133 q 719 79 719 99 q 715 42 718 60 q 708 13 713 24 q 705 3 706 3 q 692 0 704 3 q 621 0 657 -8 q 595 2 607 0 q 569 6 583 4 q 549 13 554 10 q 541 21 543 17 q 540 32 539 25 q 539 51 540 39 q 534 72 539 58 q 522 92 529 85 q 506 100 519 99 q 483 110 492 101 q 457 143 465 121 q 453 178 454 160 q 451 215 451 196 q 450 277 449 246 q 451 339 451 308 q 451 407 449 372 q 451 472 453 442 q 404 477 432 479 q 357 475 376 475 q 317 472 336 475 q 278 469 297 469 q 276 429 278 449 q 278 390 275 410 q 288 352 282 371 q 296 314 293 333 q 303 217 306 264 q 292 119 301 169 q 286 76 290 99 q 278 31 282 54 q 270 4 275 11 q 239 -8 265 -3 q 206 -10 225 -8 q 174 -6 188 -11 q 142 10 150 3 q 131 43 133 17 q 130 74 131 54 q 122 104 129 94 q 105 111 115 108 q 92 117 94 114 q 71 127 72 121 q 69 153 69 133 q 76 206 71 179 q 85 260 81 233 q 92 314 90 288 q 92 368 94 340 q 84 398 89 382 q 79 432 79 414 q 75 487 78 460 q 67 544 72 514 m 469 715 q 458 715 467 714 q 440 717 450 715 q 420 719 429 718 q 408 721 411 721 q 352 724 379 721 q 296 725 325 728 q 272 719 285 724 q 245 711 258 715 q 219 704 232 707 q 197 703 207 701 q 180 713 185 704 q 174 735 175 722 q 174 761 174 747 q 175 786 175 775 q 166 847 174 815 q 150 907 158 878 q 146 964 147 935 q 135 1021 144 993 l 104 1015 q 82 1010 93 1013 q 69 1008 71 1008 q 61 977 56 997 q 67 943 67 957 q 60 901 63 919 q 61 860 58 882 q 68 775 68 818 q 74 690 68 732 q 94 432 90 558 q 103 338 101 383 q 104 240 104 292 q 101 215 103 231 q 100 181 100 199 q 103 149 100 164 q 113 128 106 133 q 128 117 117 122 q 151 110 139 113 q 176 108 164 107 q 192 113 188 108 q 198 129 194 117 q 205 157 201 142 q 210 185 208 172 q 213 204 213 199 q 211 228 213 218 q 210 253 210 239 q 200 297 206 278 q 192 339 194 317 q 184 392 185 368 q 183 442 183 417 q 183 473 183 454 q 184 511 183 492 q 187 550 185 531 q 192 582 189 569 q 215 596 193 593 q 267 597 238 599 q 324 591 296 594 q 369 588 353 588 q 395 591 378 588 q 431 597 413 594 q 464 599 449 600 q 483 590 479 599 q 490 562 489 582 q 488 518 490 542 q 481 472 485 494 q 476 439 478 450 q 476 341 471 389 q 483 243 481 293 q 483 217 483 232 q 483 186 482 201 q 488 157 483 171 q 500 135 492 143 q 515 126 504 131 q 537 118 525 121 q 560 115 549 115 q 578 117 571 114 q 607 133 601 121 q 613 165 613 144 q 608 209 613 185 q 603 260 603 233 q 603 375 600 317 q 603 494 607 433 q 596 588 603 542 q 582 683 589 635 q 581 799 579 742 q 582 911 582 856 q 582 947 582 929 q 577 976 582 964 q 560 993 572 989 q 522 992 547 997 q 504 986 511 988 q 488 978 497 985 q 465 929 469 957 q 462 872 460 901 q 468 814 464 843 q 472 761 472 785 q 476 738 475 750 q 469 715 476 725 z "},"I":{"ha":461,"x_min":79,"x_max":394,"o":"m 146 921 q 143 752 146 833 q 136 591 140 671 q 126 430 132 511 q 114 263 119 349 q 110 225 114 249 q 106 178 107 201 q 110 134 106 154 q 131 107 115 114 q 153 103 138 104 q 188 104 169 103 q 221 109 206 106 q 242 118 236 113 q 252 151 250 128 q 258 189 254 175 q 267 252 264 221 q 274 314 271 283 q 288 428 279 372 q 290 540 296 483 q 268 739 278 640 q 276 936 258 838 q 274 972 281 963 q 254 979 267 981 q 226 970 242 978 q 194 956 210 963 q 167 950 179 950 q 149 964 154 950 q 160 981 147 972 q 192 998 174 990 q 226 1011 210 1006 q 249 1017 243 1017 q 269 1010 261 1017 q 292 996 278 1003 q 310 991 300 993 q 331 985 321 989 q 351 977 342 982 q 365 964 361 972 q 371 940 371 953 q 369 913 371 926 q 364 885 367 899 q 361 860 361 871 q 366 777 361 818 q 376 692 371 736 q 390 540 385 617 q 381 386 394 463 q 368 290 374 338 q 356 189 363 242 q 356 151 356 176 q 356 101 357 126 q 351 53 356 75 q 333 22 346 31 q 305 13 322 17 q 269 9 288 10 q 233 9 250 8 q 206 11 215 10 q 192 20 194 14 q 187 35 189 26 q 182 52 185 43 q 169 71 179 61 q 147 81 164 76 q 121 93 129 85 q 108 103 113 100 q 99 118 104 107 q 83 174 88 142 q 82 231 79 207 q 94 347 90 289 q 99 464 99 404 q 99 587 100 524 q 99 721 99 650 q 108 805 99 767 q 121 889 118 843 q 119 948 121 918 q 114 1006 117 978 q 124 998 119 1006 q 130 980 128 990 q 133 959 132 969 q 138 942 135 949 l 146 921 z "},"J":{"ha":717,"x_min":24,"x_max":675,"o":"m 74 1003 q 76 969 75 985 q 85 942 78 953 q 88 926 86 931 q 91 921 89 922 q 98 921 93 919 q 114 922 103 922 q 199 922 154 915 q 286 928 243 928 l 347 928 q 364 926 358 926 q 372 926 369 926 q 376 921 375 925 q 381 907 378 917 q 385 860 388 885 q 386 814 382 836 q 406 753 394 782 q 419 690 417 724 q 432 589 432 642 q 436 486 432 536 q 443 405 439 447 q 439 328 447 363 q 401 268 428 285 q 340 236 375 251 q 305 223 325 231 q 264 211 285 215 q 224 208 243 207 q 193 225 206 210 q 174 281 178 247 q 162 344 169 315 q 136 388 154 372 q 75 389 118 403 q 48 349 49 382 q 59 277 47 317 q 90 201 71 238 q 122 150 108 165 q 178 115 147 125 q 241 106 208 106 q 306 115 274 107 q 369 133 339 124 q 413 148 390 139 q 458 169 436 157 q 501 197 481 182 q 533 228 521 213 q 553 266 546 244 q 565 310 561 288 q 569 357 568 333 q 574 400 571 381 q 560 675 579 539 q 508 944 540 811 q 491 989 503 972 q 450 1013 479 1006 q 360 1016 407 1019 q 272 1013 314 1013 q 226 1015 256 1013 q 166 1019 197 1018 q 109 1017 135 1019 q 74 1003 83 1014 m 90 896 q 53 929 63 908 q 44 975 44 950 q 56 1018 47 1000 q 93 1033 64 1036 q 144 1032 119 1033 q 193 1033 168 1031 q 230 1033 210 1036 q 272 1029 250 1029 q 328 1031 300 1029 q 381 1033 356 1033 l 413 1033 q 447 1023 431 1031 q 476 1013 463 1015 q 500 998 496 1006 q 511 972 504 990 q 524 948 518 954 q 542 944 529 942 q 555 945 550 944 q 564 947 560 946 q 574 949 568 949 q 589 949 579 949 q 594 926 590 939 q 603 899 599 913 q 610 871 607 885 q 614 847 614 857 q 621 812 618 828 q 626 781 624 796 q 630 751 628 767 q 635 714 632 735 q 640 622 639 669 q 646 531 642 575 q 657 406 646 467 q 672 282 668 344 q 666 222 675 246 q 635 167 657 197 q 588 117 614 144 q 531 79 563 90 q 494 68 514 74 q 458 51 474 63 q 436 33 446 43 q 413 21 426 24 q 321 8 368 14 q 225 14 274 3 q 186 24 210 17 q 150 40 163 32 q 137 56 139 49 q 128 67 135 63 q 104 110 117 88 q 85 160 92 132 q 64 196 76 176 q 44 236 51 215 q 35 285 36 260 q 33 333 33 310 q 28 367 33 347 q 33 394 24 386 q 59 401 42 399 q 85 403 76 403 q 118 404 100 403 q 151 397 136 406 q 166 376 163 386 q 176 351 169 365 l 179 351 q 198 349 185 349 q 215 347 211 350 l 247 347 q 270 312 268 336 q 272 267 272 288 q 276 242 275 251 q 297 236 278 233 q 339 247 317 239 q 381 263 361 254 q 409 292 401 272 q 417 336 417 313 q 415 384 418 360 q 413 428 413 408 q 414 474 413 451 q 413 521 415 497 q 397 643 404 582 q 369 763 390 704 q 363 799 367 778 q 347 829 360 821 q 333 835 342 835 q 314 834 324 836 q 294 829 304 832 q 278 825 285 826 q 223 824 250 822 q 167 829 196 826 q 134 833 147 829 q 114 861 121 838 q 106 882 107 878 q 90 896 106 886 z "},"K":{"ha":771,"x_min":39,"x_max":782,"o":"m 172 1039 q 200 1037 189 1043 q 223 1021 211 1031 q 249 1001 235 1011 q 289 988 264 992 q 301 951 300 969 q 300 913 303 933 q 296 882 297 894 q 294 858 294 869 q 292 833 293 846 q 289 803 290 819 q 340 852 321 829 q 374 896 358 875 q 403 935 389 917 q 442 968 418 953 q 468 989 454 975 q 493 1007 482 1003 q 528 1011 508 1014 q 565 1004 549 1008 q 596 1001 575 1003 q 624 993 617 1000 q 626 984 626 990 q 626 971 626 978 q 626 958 626 964 q 628 950 626 951 q 641 949 632 950 q 660 944 650 947 q 679 938 671 942 q 690 928 688 933 q 678 899 692 917 q 658 878 664 882 q 620 831 639 854 q 589 781 601 808 q 564 743 585 765 q 520 697 543 721 q 478 653 497 674 q 458 624 460 633 q 460 607 457 617 q 463 592 464 597 q 485 549 469 568 q 514 508 500 529 q 558 418 539 461 q 599 326 578 375 q 633 281 611 301 q 668 235 656 261 q 702 182 679 206 q 743 132 725 158 q 768 96 754 119 q 778 51 782 72 q 769 39 778 44 q 750 29 761 33 q 727 23 739 25 q 707 19 715 21 q 688 17 699 18 q 669 17 678 15 q 629 11 647 11 q 589 11 611 11 q 562 16 567 13 q 551 39 557 19 q 543 52 546 46 q 542 67 540 58 q 528 78 536 68 q 513 89 519 89 q 490 105 499 93 q 475 128 482 117 q 461 148 468 143 q 447 165 454 153 q 427 215 435 190 q 407 263 419 240 q 373 327 389 294 q 329 382 357 360 q 315 340 321 361 q 308 297 308 319 q 308 237 311 264 q 311 179 306 210 q 314 141 315 161 q 310 99 313 121 q 304 57 307 78 q 301 17 301 36 q 264 6 279 14 q 225 1 249 -1 q 191 6 207 4 q 157 8 175 7 q 123 10 142 11 q 97 26 104 8 q 90 49 89 36 q 86 75 90 61 q 63 93 78 90 q 42 106 49 96 q 40 124 39 114 q 44 147 42 135 q 49 170 46 158 q 50 190 51 182 q 53 265 50 228 q 59 340 56 303 q 64 416 63 378 q 63 492 65 454 q 59 542 58 515 q 54 594 60 569 q 58 645 56 619 q 57 693 60 671 q 56 718 58 704 q 51 746 54 732 q 56 819 53 782 q 56 892 60 856 q 56 919 54 901 q 60 954 57 936 q 70 988 64 972 q 85 1011 76 1004 q 107 1027 97 1022 q 126 1033 117 1032 q 146 1035 135 1035 q 172 1039 157 1036 m 81 931 q 78 872 82 903 q 74 813 74 840 q 78 660 76 736 q 82 508 81 585 q 76 311 85 410 q 58 111 68 213 q 119 103 82 104 q 179 107 156 103 q 196 110 190 108 q 205 115 201 111 q 210 126 208 119 q 213 147 211 133 q 218 176 217 163 q 222 204 219 189 q 226 353 222 282 q 226 397 225 375 q 231 440 228 419 q 226 481 228 456 q 233 518 224 507 q 265 528 249 536 q 299 500 282 519 q 329 457 315 481 q 353 421 343 433 q 399 344 381 379 q 433 265 418 310 q 459 208 444 233 q 493 153 474 182 q 513 128 504 138 q 531 115 521 119 q 553 107 540 110 q 588 103 567 104 q 629 101 610 103 q 665 101 649 100 q 688 99 681 100 q 701 114 694 99 q 703 131 706 122 q 694 149 700 140 q 681 165 688 157 q 669 178 674 172 q 609 253 636 214 q 554 331 582 292 q 510 399 526 363 q 469 469 493 435 q 439 511 458 488 q 404 560 419 535 q 382 611 389 586 q 389 660 375 636 q 440 726 408 693 q 499 793 472 760 q 524 830 504 804 q 563 885 543 856 q 594 940 582 914 q 601 981 607 967 l 599 981 q 567 990 585 986 q 530 995 549 994 q 494 991 511 996 q 465 974 476 986 q 424 919 440 950 q 386 863 408 889 q 334 806 358 832 q 288 744 310 781 q 260 697 272 718 q 225 654 247 675 q 218 712 215 681 q 224 769 221 743 q 228 844 225 807 q 231 915 231 882 q 233 932 231 921 q 238 956 236 943 q 239 978 239 968 q 235 993 239 989 q 199 1013 225 1006 q 149 1018 172 1021 q 104 1002 125 1011 q 82 982 83 993 q 81 967 81 975 q 81 950 81 958 l 81 931 z "},"L":{"ha":583,"x_min":53,"x_max":568,"o":"m 183 1003 q 192 1019 186 1022 q 203 1003 197 1015 q 213 975 208 990 q 221 954 218 960 q 235 965 225 958 q 256 974 244 971 q 278 977 268 978 q 296 967 289 976 q 301 956 300 964 q 303 937 303 947 q 302 917 303 926 q 301 904 301 908 q 304 817 301 857 q 306 732 307 776 q 322 515 299 624 q 325 460 326 490 q 326 406 324 431 q 321 365 326 389 q 322 326 315 342 q 357 308 333 308 q 401 303 381 307 q 420 303 410 301 q 442 306 431 304 q 463 306 453 307 q 482 300 474 306 q 492 282 493 289 q 496 264 490 275 q 517 248 508 253 q 533 233 526 243 q 555 203 553 218 q 563 160 557 188 q 567 119 565 135 q 564 91 568 103 q 549 69 560 79 q 518 42 539 58 q 478 21 497 26 q 439 15 458 15 q 399 18 419 15 q 351 21 378 21 q 306 15 331 21 q 258 7 282 10 q 215 8 235 4 q 183 33 196 13 q 175 59 176 44 q 163 81 174 74 q 138 90 154 89 q 111 96 122 90 q 91 109 97 103 q 82 124 85 115 q 78 144 79 132 q 74 172 76 156 q 70 215 71 194 q 67 254 69 235 q 69 337 67 296 q 74 418 72 378 q 76 499 76 458 q 67 581 75 539 q 61 684 60 632 q 60 785 63 736 q 56 851 60 817 q 53 918 53 886 q 60 967 56 942 q 85 1010 64 993 q 103 1019 92 1015 q 128 1023 115 1022 q 152 1020 140 1024 q 169 1008 164 1017 q 142 998 156 997 q 116 999 128 999 q 97 994 104 999 q 89 967 89 989 q 92 898 86 933 q 97 826 97 863 q 100 751 97 789 q 103 675 103 713 q 96 562 103 617 q 89 453 89 507 q 92 362 89 406 q 97 274 94 318 q 97 243 97 263 q 99 202 97 224 q 106 162 101 181 q 119 133 111 143 q 158 119 126 122 q 226 115 189 115 q 297 117 263 115 q 344 118 331 118 q 372 117 357 118 q 403 114 388 115 q 435 114 419 113 q 461 121 450 115 q 475 129 471 126 q 480 135 479 132 q 479 144 481 138 q 476 165 478 151 q 475 189 474 174 q 477 220 476 204 q 476 248 478 236 q 468 260 475 260 q 422 262 450 260 q 365 268 394 264 q 306 278 335 272 q 260 289 278 283 q 256 374 261 332 q 245 458 251 417 q 233 542 239 500 q 225 628 226 583 q 215 707 222 668 q 197 788 207 746 q 191 894 190 839 q 192 1003 192 949 l 183 1003 z "},"M":{"ha":893,"x_min":53,"x_max":865,"o":"m 68 875 q 68 914 71 893 q 68 954 65 935 q 72 972 68 961 q 82 981 75 983 q 92 974 90 981 q 94 960 94 968 q 92 944 93 951 q 90 933 90 936 q 87 900 88 917 q 86 868 86 883 q 88 803 86 835 q 86 738 89 771 q 79 640 83 692 q 79 543 75 589 l 79 413 q 78 353 75 381 q 90 296 82 326 q 95 268 94 281 q 99 240 96 256 q 107 217 101 229 q 113 193 113 206 q 109 172 113 185 q 103 151 106 160 q 92 131 97 142 q 86 111 86 121 q 118 113 101 111 q 150 111 135 115 l 153 108 q 160 103 157 104 l 182 103 q 191 106 185 103 q 204 113 197 110 q 218 119 211 117 q 228 119 225 121 q 238 195 238 163 q 236 272 239 228 q 230 421 236 347 q 211 565 224 494 q 209 633 208 599 q 217 699 210 667 q 224 719 219 719 q 242 711 228 718 q 260 694 251 701 q 275 676 269 688 q 298 634 286 654 q 325 593 310 614 q 342 558 336 575 q 357 526 347 542 q 374 498 365 513 q 389 464 382 483 q 403 444 394 451 q 426 438 411 438 q 448 435 438 433 q 471 438 458 438 q 488 435 476 438 q 503 440 499 433 q 509 449 508 443 q 510 461 510 454 q 526 504 514 481 q 530 533 531 519 q 532 558 529 547 q 561 651 551 607 q 565 666 563 656 q 572 684 568 676 q 578 693 575 692 q 583 682 582 694 q 594 649 588 668 q 600 621 600 631 q 602 581 600 600 q 604 543 604 563 q 605 478 604 510 q 608 413 606 446 q 615 316 611 364 q 624 217 619 268 q 635 168 626 193 q 640 119 643 143 q 634 101 640 113 q 631 89 628 90 q 647 83 635 85 q 674 81 660 81 q 701 85 689 82 q 717 90 714 88 q 724 106 724 100 q 733 117 725 113 q 756 115 744 119 q 776 117 767 110 q 785 130 783 119 q 786 146 786 140 q 781 168 786 158 q 774 186 776 178 q 768 205 769 194 q 764 221 767 215 q 758 269 758 246 q 751 311 758 292 q 747 349 749 331 q 744 386 744 367 q 742 460 744 425 q 736 535 740 496 q 736 571 736 553 q 733 610 736 589 q 720 710 728 660 q 710 813 713 760 q 707 858 707 833 q 700 903 707 882 q 699 935 700 913 q 694 967 699 957 q 681 978 688 976 q 667 980 675 981 q 649 977 658 979 q 626 975 639 975 q 602 977 618 975 q 579 975 586 979 q 572 952 575 969 q 564 928 568 935 q 549 901 558 911 q 529 881 540 892 q 506 858 524 871 q 482 833 489 844 q 472 816 474 822 q 458 801 471 810 q 449 795 450 799 q 440 785 449 792 q 422 770 429 778 q 409 758 415 763 q 395 757 403 754 q 376 772 388 760 q 360 798 369 785 q 338 824 350 811 q 329 832 331 833 q 325 836 328 831 q 321 847 322 844 q 310 854 319 849 q 286 877 297 865 q 263 899 275 889 q 247 913 254 904 q 236 928 240 921 q 217 943 226 935 q 200 957 208 951 q 183 970 192 964 q 165 989 174 976 q 151 1010 157 1001 q 125 1017 144 1019 q 114 1013 122 1014 q 99 1011 106 1011 q 90 1014 92 1011 q 96 1024 88 1017 q 121 1033 104 1031 q 150 1036 138 1036 q 182 1036 165 1043 q 194 1018 188 1029 q 204 1001 200 1007 q 251 945 226 972 q 299 889 275 918 q 317 874 307 882 q 338 854 326 865 q 358 841 347 849 q 372 824 369 833 q 378 814 375 818 q 385 803 381 810 q 396 791 388 800 q 411 785 404 782 q 417 791 413 786 q 426 801 421 796 q 435 810 431 806 q 440 817 439 815 q 460 838 451 829 q 477 852 469 846 q 492 865 485 858 q 506 881 499 871 q 534 912 521 897 q 554 946 547 926 q 558 970 557 954 q 564 992 558 986 q 579 999 568 996 q 596 1001 590 1001 q 632 1002 611 1004 q 669 997 653 1000 q 697 982 685 993 q 713 957 710 971 q 717 938 717 947 q 719 919 717 928 q 725 905 721 911 q 742 894 729 899 q 770 886 757 890 q 792 871 783 882 q 795 851 794 865 q 796 829 796 838 q 801 766 799 796 q 808 703 804 736 q 816 599 814 650 q 825 496 818 549 q 838 385 829 440 q 850 275 847 331 q 856 182 850 229 q 864 85 861 135 q 865 60 864 72 q 860 38 865 47 l 838 21 q 808 17 824 15 q 776 17 792 19 q 758 10 767 14 q 742 7 749 7 q 724 12 731 7 q 712 24 717 17 q 701 38 707 31 q 686 50 694 46 q 664 55 674 61 q 640 51 654 49 q 627 76 628 58 q 626 103 626 93 q 610 169 624 139 q 596 233 596 200 q 592 308 596 272 q 583 382 588 343 q 585 434 582 407 q 590 489 588 461 q 590 543 592 517 q 579 593 589 569 q 567 566 575 579 q 557 535 560 553 q 551 503 553 519 q 549 472 550 488 q 547 440 549 456 q 538 413 544 425 q 519 365 526 393 q 493 326 511 338 q 460 314 482 317 q 426 314 439 311 q 413 326 419 315 q 400 349 406 336 q 390 376 394 363 q 385 400 386 390 q 356 459 378 428 q 310 514 333 490 q 305 456 304 485 q 306 397 306 428 q 306 328 308 361 q 310 260 304 296 q 317 182 314 222 q 319 103 319 142 q 316 68 319 83 q 290 42 313 53 q 272 24 278 32 q 260 8 265 15 q 247 -4 254 0 q 228 -10 240 -8 q 206 -10 219 -11 q 177 -6 192 -8 q 149 1 163 -3 q 131 8 136 4 q 117 23 119 14 q 114 41 114 32 q 115 59 114 50 q 113 76 115 68 q 101 86 107 85 q 91 88 96 88 q 81 88 86 88 q 72 94 76 88 q 70 123 69 101 q 68 154 71 144 q 67 201 68 178 q 64 250 67 225 q 53 390 54 319 q 56 526 53 460 q 58 701 56 615 q 68 875 61 788 z "},"N":{"ha":871,"x_min":39,"x_max":813,"o":"m 193 60 q 181 65 185 65 q 174 65 176 65 q 167 63 171 64 q 154 65 163 63 q 122 93 126 72 q 114 138 117 114 q 107 180 108 156 q 107 219 106 204 q 110 301 115 260 q 106 383 106 343 q 100 450 106 421 q 89 506 94 479 q 88 554 86 531 q 89 601 89 578 q 79 658 89 629 q 75 713 69 686 q 76 756 78 736 q 75 796 75 775 q 72 846 75 824 q 67 892 68 868 q 60 912 63 900 q 61 932 58 924 q 89 932 72 960 q 96 906 93 921 q 101 876 99 892 q 102 845 103 860 q 100 821 101 831 q 101 734 96 778 q 106 642 106 690 q 116 472 107 558 q 128 299 125 386 q 131 247 132 272 q 133 196 129 221 q 131 152 135 178 q 135 111 128 126 q 160 85 143 89 q 196 83 176 82 q 237 94 224 86 q 254 132 250 103 q 260 281 260 203 q 254 428 260 358 q 251 489 254 461 q 249 549 249 517 q 241 617 244 582 q 249 688 238 653 q 276 665 267 675 q 299 636 286 656 q 322 587 308 611 q 347 539 336 563 q 374 499 358 515 q 401 461 389 483 q 433 401 421 432 q 463 338 446 369 q 498 283 478 308 q 531 225 518 257 q 542 184 536 204 q 558 147 549 164 q 584 119 568 131 q 624 104 600 107 q 644 104 632 104 q 667 106 656 104 q 690 112 679 108 q 707 122 701 115 q 716 140 711 125 q 721 163 721 154 q 722 260 721 213 q 725 344 722 308 q 725 456 729 397 q 719 569 721 514 q 715 669 713 617 q 710 768 717 721 q 699 863 701 817 q 699 957 696 908 q 696 983 699 968 q 682 1000 693 997 q 666 1007 681 1006 q 644 1008 651 1008 q 621 1001 629 1008 q 608 984 613 994 q 603 960 604 974 q 603 931 603 946 q 603 835 600 882 q 606 739 606 788 q 599 632 603 685 q 603 524 596 579 q 604 460 606 494 q 594 403 603 426 q 551 474 572 435 q 511 554 531 514 q 474 614 500 572 q 420 703 449 656 q 365 792 392 750 q 328 854 339 835 q 299 910 314 882 q 269 960 285 938 q 240 984 258 978 q 200 990 222 990 q 155 987 178 990 q 114 982 132 983 q 92 978 104 981 q 67 974 79 975 q 47 975 56 972 q 39 989 39 978 q 69 1003 54 997 q 95 1012 82 1008 q 117 1014 108 1015 q 135 1015 125 1014 q 157 1017 146 1017 q 177 1024 169 1019 q 196 1028 185 1028 q 231 1015 215 1028 q 261 988 247 1003 q 285 960 276 975 q 307 931 293 944 q 313 918 308 926 q 324 901 318 910 q 336 884 331 892 q 346 872 342 876 q 358 861 347 872 q 381 835 368 850 q 406 805 393 821 q 425 778 418 789 q 432 759 426 767 q 440 739 438 751 q 471 700 447 719 q 506 661 494 681 q 519 638 514 646 q 531 614 524 631 q 535 594 536 604 q 544 576 535 585 q 554 556 550 567 q 568 539 558 546 q 571 534 574 532 q 576 531 568 536 q 581 570 583 549 q 576 614 579 592 q 569 705 572 658 q 571 794 567 751 q 576 832 571 814 q 583 871 581 850 q 583 908 583 888 q 585 949 583 928 q 584 983 585 969 q 583 1017 583 996 q 619 1028 600 1019 q 657 1035 639 1036 q 707 1000 696 1035 q 713 976 711 986 q 731 960 715 967 q 751 957 742 957 q 764 943 761 957 q 768 907 771 928 q 772 871 765 886 q 774 814 776 842 q 776 757 771 786 q 783 695 779 742 q 792 586 788 649 q 800 455 796 524 q 807 327 804 386 q 811 227 810 268 q 811 182 813 186 q 800 124 801 153 q 801 68 799 96 q 805 46 801 60 q 801 21 808 32 q 786 15 797 15 q 763 14 775 14 q 738 15 750 14 q 719 15 726 17 q 685 2 704 10 q 653 6 667 -6 q 633 24 644 7 q 618 54 622 40 q 597 81 611 75 q 571 99 582 86 q 538 146 550 125 q 517 185 526 167 q 501 222 508 203 q 482 264 493 240 q 467 301 476 282 q 443 338 458 321 q 442 344 440 340 q 440 354 443 347 q 425 373 429 363 q 414 393 421 383 q 397 415 401 404 q 385 439 393 426 q 353 470 371 456 q 328 506 335 485 q 331 469 325 490 q 336 433 336 449 q 343 390 339 411 q 347 344 347 368 q 342 222 346 282 q 346 99 339 161 l 346 65 q 342 36 346 50 q 332 8 338 22 q 322 -13 329 -6 q 300 -21 315 -21 q 285 -20 292 -21 q 271 -17 279 -19 q 248 -11 263 -12 q 231 -4 233 -10 q 217 8 221 0 q 210 26 213 17 q 205 45 208 36 q 193 60 201 54 z "},"O":{"ha":783,"x_min":65,"x_max":721,"o":"m 281 911 q 345 922 314 917 q 410 911 376 928 q 457 867 443 896 q 489 811 471 839 q 545 690 525 749 q 568 560 565 631 q 569 483 571 526 q 564 399 568 440 q 553 323 560 358 q 539 268 546 288 q 509 233 532 242 q 454 215 486 224 q 406 206 435 210 q 346 205 376 203 q 290 217 315 207 q 253 249 264 226 q 246 273 249 257 q 241 306 243 289 q 237 340 239 324 q 233 368 235 357 q 232 404 232 385 q 232 444 232 424 q 221 488 228 468 q 211 531 214 507 q 194 625 200 576 q 185 721 189 674 q 181 753 183 738 q 183 788 179 769 q 219 860 189 829 q 281 911 249 892 m 325 829 q 296 775 304 807 q 288 708 288 743 q 292 636 288 672 q 301 569 297 600 q 317 449 310 508 q 325 325 325 389 q 324 301 325 315 q 324 272 324 286 q 329 247 325 258 q 343 232 333 236 q 367 227 351 222 q 394 232 383 232 q 462 239 428 232 q 515 272 496 246 q 527 301 524 282 q 531 340 531 319 q 532 381 532 361 q 533 415 532 401 q 538 460 535 436 q 542 510 540 485 q 544 560 544 535 q 539 606 544 585 q 519 669 532 642 q 483 726 507 696 q 455 752 468 742 q 425 776 442 763 q 402 797 414 785 q 377 819 390 810 q 350 832 364 828 q 321 829 336 836 l 325 829 m 115 897 q 106 842 113 869 q 96 788 99 815 q 94 713 93 751 q 96 636 96 674 q 104 491 99 561 q 125 347 110 421 q 149 279 133 315 q 178 214 165 243 q 203 169 188 190 q 238 136 218 149 q 299 113 265 122 q 369 99 333 103 q 440 100 404 96 q 504 117 475 104 q 557 144 529 131 q 600 185 585 157 q 615 233 613 208 q 618 283 617 257 q 629 356 622 319 q 638 433 636 393 q 637 509 638 472 q 636 586 636 546 q 636 642 636 614 q 629 697 636 669 q 602 778 621 738 q 568 854 583 818 q 535 922 550 889 q 485 975 521 956 q 402 1005 450 996 q 313 1014 354 1014 q 267 1014 293 1014 q 214 1010 240 1014 q 165 998 188 1007 q 131 971 143 989 q 125 959 128 968 q 119 940 122 950 q 110 924 115 931 q 100 918 106 917 q 97 930 96 919 q 102 952 99 940 q 110 974 106 964 q 115 985 114 983 q 145 1014 125 1003 q 189 1031 165 1025 q 235 1038 213 1036 q 275 1039 258 1039 q 322 1038 299 1039 q 374 1033 346 1038 q 408 1033 389 1033 q 445 1028 426 1032 q 481 1019 464 1025 q 510 1003 497 1014 q 532 978 525 993 q 558 953 539 964 q 599 931 582 942 q 626 892 615 919 q 669 788 656 840 q 701 679 682 735 q 719 547 721 617 q 717 410 717 478 q 718 317 717 364 q 706 226 719 271 q 669 148 694 188 q 617 82 644 108 q 538 19 576 36 q 443 6 500 3 q 399 3 421 6 q 356 -1 378 0 q 314 1 335 -3 q 272 17 293 4 q 242 35 260 24 q 208 62 225 47 q 179 92 192 76 q 164 122 167 107 q 159 163 157 142 q 154 204 161 185 q 142 236 150 221 q 131 268 135 251 q 116 324 122 296 q 104 379 110 351 q 88 491 93 436 q 74 606 82 546 q 67 694 68 646 q 75 794 65 743 q 78 825 78 807 q 81 860 78 843 q 91 888 83 876 q 115 897 99 899 z "},"P":{"ha":672,"x_min":121,"x_max":658,"o":"m 176 965 q 158 967 169 967 q 136 967 146 967 q 124 973 126 968 q 132 989 121 978 q 144 997 136 994 q 163 1000 153 999 q 181 1001 172 1001 q 196 1003 190 1001 q 236 1010 217 1006 q 279 1018 256 1015 q 328 1026 299 1021 q 368 1032 357 1031 q 390 1033 374 1035 q 426 1026 407 1031 q 463 1017 444 1022 q 490 1010 481 1013 q 537 996 515 1007 q 572 961 558 985 q 587 945 576 953 q 608 929 597 938 q 626 913 618 921 q 636 894 635 904 q 649 850 640 875 q 658 794 657 825 q 653 762 658 783 q 643 717 649 740 q 633 672 638 693 q 626 643 628 651 q 604 611 619 624 q 576 579 589 599 q 542 550 565 560 q 504 524 519 540 q 458 502 481 511 q 415 483 435 493 q 392 467 396 475 q 385 439 389 458 q 383 392 385 415 q 378 346 382 369 q 365 293 375 321 q 354 239 354 265 q 357 193 354 218 q 363 143 360 168 q 365 115 363 131 q 369 83 367 99 q 372 53 371 68 q 368 28 372 38 q 353 29 361 28 q 342 38 346 31 q 333 42 338 38 q 329 50 329 46 q 315 49 321 53 q 301 44 308 44 q 283 42 290 43 q 272 40 276 42 q 262 36 267 39 q 249 28 257 33 q 228 11 239 15 q 203 4 217 7 q 199 28 203 17 q 196 50 196 40 q 193 63 192 53 q 190 75 194 72 q 171 79 185 83 q 147 72 157 75 q 142 199 136 132 q 147 331 147 267 q 143 506 143 421 q 150 681 143 590 q 155 715 153 697 q 157 749 157 733 q 153 822 157 786 q 147 893 150 858 q 145 907 147 897 q 142 927 143 917 q 142 947 142 938 q 147 958 143 956 q 170 960 164 972 q 176 936 176 947 q 172 865 181 900 q 169 794 163 831 q 181 721 175 757 q 182 649 186 685 q 174 498 172 571 q 169 346 175 425 q 162 293 167 321 q 157 238 157 265 q 161 197 157 218 q 165 161 165 176 q 162 137 165 151 q 165 118 158 122 q 174 117 167 117 q 192 119 182 118 q 210 122 201 121 q 221 124 218 124 q 246 126 240 124 q 258 149 251 129 q 268 260 274 200 q 265 376 263 319 q 274 532 274 451 q 275 563 274 549 q 285 592 276 576 q 392 585 343 576 q 490 635 440 593 q 520 657 506 647 q 546 681 535 667 q 563 715 557 694 q 569 767 569 735 q 574 800 569 783 q 576 831 579 817 q 572 863 574 849 q 567 893 571 876 q 549 926 560 907 q 522 961 538 944 q 487 990 507 978 q 442 1003 467 1001 q 368 1003 406 1006 q 296 996 331 1001 q 269 990 282 993 q 246 982 256 988 q 206 972 222 972 q 169 965 189 972 l 176 965 m 278 888 q 287 900 275 897 q 316 903 299 903 q 350 900 333 903 q 375 894 367 897 q 388 891 382 889 q 400 888 393 893 q 414 874 407 885 q 428 858 421 863 q 447 839 443 850 q 449 807 451 828 q 432 763 443 788 q 400 731 421 739 q 372 722 389 725 q 342 718 356 718 q 310 713 331 715 q 279 724 289 711 q 276 756 275 735 q 278 788 278 776 q 281 810 278 797 q 279 838 283 824 q 274 851 276 846 q 269 861 271 856 q 269 873 268 867 q 278 888 271 879 m 353 835 q 343 796 344 818 q 343 757 342 774 q 347 741 346 746 q 363 732 347 736 q 406 757 385 732 q 411 770 407 760 q 418 792 415 781 q 422 814 421 803 q 418 829 422 825 q 405 834 415 832 q 383 836 394 836 q 360 835 371 836 q 347 831 350 833 l 353 835 z "},"Q":{"ha":754,"x_min":57,"x_max":750,"o":"m 442 860 l 442 856 q 506 765 486 815 q 533 657 525 715 q 547 545 544 603 q 533 435 549 488 q 521 399 526 408 q 490 393 515 390 q 464 404 478 396 q 436 421 450 413 q 409 434 422 429 q 386 435 396 439 q 367 417 372 428 q 364 393 363 406 q 369 368 365 381 q 378 346 374 356 q 391 331 382 339 q 408 313 400 322 q 423 294 417 303 q 429 281 429 286 q 410 241 431 257 q 371 224 389 225 q 286 221 326 211 q 228 275 246 231 q 215 363 214 315 q 210 454 215 410 q 198 518 203 486 q 193 583 193 550 q 185 653 190 617 q 178 725 179 689 q 186 796 178 761 q 219 860 194 831 q 267 893 243 888 q 322 896 290 899 q 351 891 335 894 q 386 883 368 888 q 421 873 404 879 q 449 860 438 867 l 442 860 m 501 649 q 472 687 493 672 q 436 722 451 701 q 408 764 418 742 q 376 800 397 786 q 350 803 365 801 q 318 805 335 806 q 288 799 301 804 q 267 782 274 794 q 261 764 264 774 q 258 749 258 754 q 269 680 267 714 q 274 612 272 646 q 276 544 275 578 q 279 478 276 511 q 291 433 282 454 q 303 390 300 413 q 299 346 303 368 q 306 307 294 324 q 324 292 311 297 q 348 288 336 288 q 369 292 360 288 q 378 307 378 297 q 369 339 378 326 q 351 363 360 351 q 341 387 343 374 q 353 419 339 400 q 380 444 365 442 q 411 442 394 447 q 447 429 428 436 q 488 424 465 422 q 510 435 503 424 q 522 462 518 446 q 526 494 525 478 q 529 524 526 511 q 526 559 529 540 q 522 585 524 578 q 515 617 519 604 q 501 649 511 631 m 496 947 q 490 957 489 951 q 488 965 490 963 q 481 970 485 968 q 474 975 476 972 q 452 985 463 982 q 432 993 442 989 q 389 995 410 994 q 344 999 368 996 q 248 999 296 1008 q 160 957 200 989 q 113 901 128 931 q 92 838 97 871 q 86 768 86 804 q 86 694 86 732 q 90 532 83 615 q 108 371 96 449 q 119 308 111 338 q 139 249 126 279 q 150 209 146 229 q 165 174 154 189 q 206 136 182 151 q 256 113 229 121 q 311 101 283 104 q 364 99 339 97 q 417 112 393 101 q 468 133 440 122 q 489 147 481 142 q 504 152 497 151 q 520 149 511 153 q 542 138 529 146 q 586 92 565 117 q 635 53 607 68 q 667 52 658 40 q 692 83 676 64 q 706 125 708 106 q 690 162 703 144 q 659 196 678 179 q 626 229 640 213 q 613 250 615 242 q 611 266 610 258 q 615 282 613 274 q 621 303 618 290 q 640 356 632 331 q 649 408 649 381 q 647 471 646 439 q 650 534 649 503 q 650 597 651 565 q 642 658 649 628 q 628 717 638 685 q 608 780 619 749 q 581 840 596 811 q 549 888 565 868 q 532 904 543 894 q 510 923 521 914 q 493 941 500 932 q 488 957 486 950 l 496 947 m 533 933 q 567 899 543 917 q 610 875 590 881 q 642 867 631 871 q 658 854 653 863 q 665 833 663 846 q 672 801 668 821 q 697 722 682 761 q 724 642 711 682 q 743 560 736 601 q 746 478 750 519 q 719 374 740 425 q 681 275 699 324 q 667 238 671 254 q 675 203 664 222 q 689 184 681 193 q 706 165 697 175 q 720 145 714 156 q 726 122 726 135 q 723 101 726 110 q 717 85 719 93 q 712 69 714 78 q 714 49 710 61 q 721 14 721 25 q 704 -17 721 3 q 665 -47 682 -39 q 633 -53 649 -56 q 603 -35 618 -50 q 569 3 588 -21 q 523 44 546 32 q 468 49 500 56 q 399 33 433 39 q 329 42 365 26 q 286 58 310 47 q 239 82 263 68 q 195 112 215 96 q 165 144 175 128 q 141 190 154 165 q 117 239 128 214 q 97 290 106 264 q 89 339 89 315 q 78 417 89 381 q 68 497 68 454 q 63 561 68 533 q 67 629 57 589 q 74 717 72 671 q 76 806 76 763 q 87 875 81 843 q 113 939 93 907 q 138 963 119 953 q 171 985 156 972 q 209 1008 190 1000 q 251 1017 228 1017 q 331 1022 290 1017 q 410 1018 371 1028 q 455 1006 429 1013 q 500 988 481 1000 q 513 975 508 981 q 519 964 517 969 q 525 951 522 958 q 533 933 528 943 z "},"R":{"ha":697,"x_min":63,"x_max":668,"o":"m 92 839 q 100 759 99 794 q 94 676 101 724 q 94 604 88 639 q 100 533 100 569 q 110 448 100 488 q 128 364 121 408 q 129 293 131 328 q 131 226 128 258 q 130 190 131 210 q 129 152 129 171 q 132 115 129 133 q 143 85 135 97 q 165 69 149 74 q 201 64 182 64 q 237 69 219 64 q 263 85 254 75 q 269 114 272 96 q 263 147 267 132 q 257 192 260 171 q 254 238 254 214 q 247 313 254 275 q 238 390 240 351 q 228 462 235 426 q 219 529 222 497 q 258 533 236 533 q 301 526 279 532 q 343 513 324 521 q 375 493 363 504 q 406 457 388 478 q 431 421 424 436 q 442 385 439 401 q 445 351 444 368 q 446 317 446 335 q 447 278 446 299 q 449 235 449 260 q 449 188 449 211 q 453 146 450 164 q 463 124 456 128 q 494 119 471 117 q 525 126 517 121 q 542 140 540 133 q 544 165 544 147 q 552 212 551 189 q 549 261 553 235 q 532 377 544 319 q 510 493 519 435 q 476 572 500 542 q 418 626 451 601 q 401 636 411 632 q 380 644 390 640 q 363 654 369 649 q 360 667 357 660 q 374 680 361 674 q 392 692 386 686 q 405 706 400 699 q 418 722 410 714 q 444 762 435 743 q 458 800 454 781 q 463 841 463 819 q 463 889 464 863 q 450 942 461 915 q 421 989 439 969 q 378 1019 403 1008 q 324 1026 353 1031 q 246 1019 288 1021 q 174 999 204 1017 q 158 990 168 996 q 139 979 149 985 q 119 972 129 974 q 104 976 110 971 q 103 992 97 985 q 119 1006 108 1000 q 140 1017 129 1013 q 156 1022 151 1021 q 248 1036 204 1033 q 344 1043 292 1039 q 399 1039 368 1044 q 458 1022 429 1033 q 513 993 488 1011 q 549 951 538 975 q 579 878 568 913 q 583 797 590 843 q 566 753 572 774 q 543 715 560 733 q 519 675 528 697 q 492 647 511 653 q 474 637 476 643 q 478 624 472 631 q 496 610 485 617 q 518 600 507 604 q 561 574 542 592 q 596 538 581 557 q 643 465 621 504 q 665 386 665 425 q 667 319 665 347 q 665 264 668 292 q 657 213 658 236 q 654 167 656 189 q 648 122 653 144 q 629 75 643 100 q 621 63 624 68 q 615 56 618 58 q 608 53 613 54 q 592 53 603 53 q 565 53 578 53 q 539 56 551 53 q 515 56 528 56 q 497 63 503 57 q 488 75 486 69 q 482 86 489 81 q 471 97 476 94 q 460 100 465 99 q 449 106 454 101 q 439 124 444 110 q 429 167 431 142 q 431 213 428 193 q 428 308 435 258 q 407 397 422 357 q 389 438 404 419 q 361 472 374 456 q 349 486 357 482 q 332 490 340 490 q 317 485 324 489 q 310 472 310 481 q 315 414 310 446 q 324 356 321 382 q 340 269 331 310 q 350 186 350 229 q 349 148 347 171 q 348 100 350 125 q 335 51 346 75 q 300 8 325 26 q 279 -1 293 3 q 249 -6 265 -4 q 219 -5 233 -7 q 197 4 206 -3 q 184 28 186 15 q 171 53 182 42 q 151 60 160 60 q 136 60 143 60 q 125 66 129 61 q 119 86 121 71 q 104 217 110 153 q 94 346 99 282 q 98 412 94 379 q 94 472 101 444 q 87 526 88 501 q 86 581 86 551 q 82 626 86 601 q 71 667 78 650 q 74 688 68 675 q 81 711 81 700 q 77 754 81 732 q 67 797 74 776 q 63 824 64 814 q 63 843 63 833 q 63 863 63 853 q 64 892 64 874 q 65 919 64 907 q 71 943 65 932 q 76 961 71 956 q 88 940 85 957 q 90 904 90 924 q 90 866 90 885 q 92 839 89 847 m 333 831 q 337 801 336 818 q 326 774 338 785 q 315 760 324 767 q 297 749 307 754 q 276 738 286 743 q 263 731 267 733 q 232 731 243 724 q 215 753 221 739 q 208 785 210 768 q 207 814 207 801 q 209 852 207 833 q 211 889 211 871 q 213 925 211 910 q 242 940 215 940 q 285 934 268 943 q 311 908 301 925 q 326 872 321 892 q 333 831 331 851 m 281 763 q 285 763 281 760 q 294 770 289 765 q 303 780 299 775 q 310 788 308 785 q 311 808 311 794 q 311 831 311 821 q 299 874 308 853 q 272 879 279 888 q 265 853 265 871 q 271 808 268 829 q 281 763 274 786 z "},"S":{"ha":622,"x_min":25,"x_max":579,"o":"m 246 1019 q 229 1015 242 1018 q 203 1006 217 1011 q 176 997 189 1001 q 157 990 163 993 q 141 977 153 986 q 117 957 129 968 q 93 935 104 946 q 81 919 82 925 q 69 896 71 907 q 64 869 67 885 q 53 805 56 833 q 50 732 50 776 q 56 690 50 711 q 68 646 63 668 q 83 622 74 638 q 100 596 93 606 q 117 581 101 592 q 154 559 133 571 q 197 536 175 547 q 233 521 219 525 q 271 507 253 513 q 304 485 289 501 q 338 449 319 469 q 373 406 357 429 q 400 360 389 383 q 410 313 411 336 q 405 270 410 297 q 393 236 400 243 q 371 217 389 229 q 343 204 353 206 q 317 198 331 199 q 289 197 303 197 q 260 205 269 197 q 233 222 250 213 q 208 233 218 229 q 192 254 199 238 q 183 278 189 267 q 175 303 178 290 q 174 324 174 313 q 174 347 175 335 q 164 370 174 367 q 135 375 154 374 q 116 379 126 376 q 95 383 106 382 q 76 382 85 383 q 61 374 67 381 q 51 349 50 361 q 53 325 53 338 q 68 267 60 296 q 90 210 76 239 q 99 190 97 200 q 108 169 101 179 q 126 154 119 161 q 144 139 133 147 q 161 117 150 128 q 175 107 165 114 q 196 93 185 100 q 217 80 207 86 q 233 72 228 74 l 256 72 q 289 71 272 72 q 321 72 306 69 q 340 80 326 74 q 370 95 354 86 q 401 115 386 104 q 421 139 415 126 q 449 172 432 158 q 476 204 465 185 q 495 247 490 224 q 507 293 500 271 q 514 340 510 317 q 511 388 518 364 q 497 440 511 407 q 446 510 482 474 q 431 523 442 514 q 409 542 421 532 q 386 563 397 553 q 371 576 375 572 q 354 589 367 582 q 327 603 342 596 q 298 619 313 611 q 278 631 283 626 q 253 647 274 635 q 210 676 233 658 q 168 715 188 693 q 147 760 149 736 q 161 825 147 794 q 180 856 168 836 q 201 881 192 875 q 224 886 211 883 q 244 892 236 889 q 283 893 258 899 q 322 874 308 888 q 337 857 335 865 q 339 836 339 849 q 341 815 339 825 q 343 796 343 804 q 419 798 386 789 q 489 808 453 807 q 488 832 490 821 q 479 851 486 843 q 474 865 476 857 q 465 879 471 872 q 449 913 457 896 q 424 942 440 931 q 410 956 417 947 q 391 974 403 964 q 359 993 379 983 q 307 1013 339 1003 q 277 1019 293 1018 q 246 1019 261 1019 m 144 388 q 161 378 154 383 q 175 369 168 374 q 185 360 185 363 q 200 357 185 357 q 223 354 208 354 q 240 347 238 354 q 240 333 242 343 q 237 314 239 324 q 232 295 235 304 q 229 282 229 286 q 233 250 229 260 q 246 226 236 240 q 266 215 251 219 q 296 209 281 211 q 325 207 311 207 q 344 210 339 207 q 374 250 371 222 q 365 297 376 278 q 352 327 357 311 q 341 359 347 343 q 326 388 335 375 q 300 410 317 401 q 231 450 264 429 q 157 488 197 471 q 123 505 136 497 q 99 523 110 513 q 81 549 89 533 q 61 592 72 565 q 39 640 53 615 q 28 690 25 665 q 29 735 29 703 q 31 802 29 767 q 38 868 33 838 q 50 907 42 899 q 59 915 50 906 q 79 936 68 924 q 100 960 90 949 q 113 972 110 971 q 142 989 124 976 q 167 1006 160 1001 q 207 1026 186 1022 q 240 1031 228 1031 q 255 1032 244 1032 q 278 1032 265 1032 q 301 1031 290 1032 q 317 1031 313 1031 q 363 1024 340 1031 q 410 1008 386 1017 q 419 1002 414 1006 q 432 994 425 999 q 453 979 439 992 q 472 964 467 967 q 506 916 489 943 q 529 879 522 889 q 542 853 540 867 q 549 825 544 840 q 550 796 551 811 q 549 764 549 781 q 545 752 549 760 q 539 742 542 744 q 523 731 536 735 q 493 724 510 726 q 460 719 476 721 q 435 715 443 717 q 407 719 426 715 q 388 732 388 722 q 378 750 382 742 q 374 765 375 757 q 376 781 372 774 q 353 778 365 781 q 335 781 342 775 q 324 801 324 785 q 322 829 325 818 q 316 851 321 843 q 296 851 311 860 q 283 844 292 850 q 266 832 275 839 q 249 818 257 825 q 240 807 242 811 q 227 784 232 794 q 222 758 222 774 q 226 737 222 746 q 233 715 231 728 q 239 705 235 714 q 249 684 243 696 q 263 662 256 672 q 278 649 271 651 q 297 641 282 647 q 330 627 313 635 q 362 613 347 619 q 379 604 376 606 q 395 593 382 603 q 424 571 408 583 q 454 547 439 558 q 476 532 469 536 q 502 506 488 525 q 530 466 517 488 q 552 424 543 444 q 561 396 561 404 q 568 365 563 389 q 576 308 574 340 q 578 240 579 275 q 565 178 576 204 q 553 148 561 161 q 535 121 546 135 q 511 92 524 107 q 479 69 499 78 q 463 59 475 67 q 438 43 451 51 q 410 28 424 35 q 390 19 397 21 q 358 10 374 17 q 326 -3 343 4 q 310 -6 319 -6 q 289 -7 300 -7 q 235 3 261 -7 q 179 19 208 13 q 141 51 160 29 q 106 86 122 74 q 97 97 101 90 q 90 108 93 104 q 91 131 85 121 q 90 150 97 142 q 76 181 85 157 q 60 234 68 206 q 46 288 51 263 q 39 325 40 314 q 33 347 35 335 q 39 374 32 358 q 65 396 47 392 q 103 397 82 400 q 124 396 114 397 q 144 388 133 394 z "},"T":{"ha":729,"x_min":11,"x_max":708,"o":"m 32 953 q 40 933 39 943 q 40 914 40 922 q 41 881 40 890 q 71 868 42 871 q 101 866 92 867 q 119 865 111 865 q 138 864 128 864 q 168 864 147 864 q 191 865 178 864 q 217 867 204 867 q 241 865 229 867 q 261 856 253 863 q 264 832 267 849 q 264 806 261 815 q 269 783 269 794 q 268 758 268 771 q 274 685 268 721 q 281 613 281 650 q 294 450 283 531 q 311 286 304 369 q 315 224 314 256 q 314 157 317 192 q 311 128 313 142 q 312 102 310 114 q 322 82 314 90 q 346 71 329 74 q 364 69 351 69 q 390 71 376 69 q 415 76 403 72 q 431 83 426 79 q 442 113 440 93 q 440 153 443 132 q 434 194 438 174 q 431 226 431 214 q 428 307 431 269 q 419 389 425 344 q 410 501 410 444 q 404 613 410 557 q 401 667 404 639 q 394 725 397 696 q 390 783 390 754 q 393 838 389 811 q 405 858 396 851 q 426 865 414 864 q 453 865 439 867 q 481 864 468 864 q 507 866 501 865 q 515 868 513 867 q 524 871 518 869 q 550 875 529 872 q 597 888 578 878 q 617 911 617 899 q 615 956 617 933 q 606 1003 614 979 q 541 1001 568 1003 q 488 999 514 1000 q 435 996 463 997 q 369 994 407 994 q 301 993 329 994 q 249 990 274 992 q 195 987 224 988 q 128 988 167 986 l 64 988 q 42 985 54 988 q 28 990 31 983 q 36 1006 25 1003 q 56 1011 47 1008 q 81 1012 71 1013 q 101 1010 92 1011 q 122 1006 111 1008 q 149 1003 132 1004 q 241 1002 201 1000 q 333 1007 281 1004 q 384 1008 361 1007 q 431 1014 407 1008 q 465 1019 453 1018 q 486 1019 476 1019 q 508 1019 496 1019 q 543 1024 521 1019 q 572 1026 556 1025 q 602 1024 588 1026 q 626 1015 617 1022 q 636 990 636 1007 q 658 987 646 989 q 679 981 669 985 q 697 969 689 976 q 706 949 704 961 q 705 910 708 931 q 701 871 701 890 q 705 846 701 863 q 701 818 708 829 q 676 803 696 810 q 634 792 657 797 q 590 783 611 786 q 558 778 568 779 q 546 781 550 778 q 538 785 542 783 q 532 785 535 786 q 524 775 529 783 q 515 740 515 763 q 517 694 514 718 q 524 649 519 671 q 531 615 529 628 q 556 494 542 554 q 576 372 571 433 q 582 249 583 311 q 576 124 581 186 q 575 106 576 117 q 574 86 574 94 q 562 54 574 75 q 539 24 550 33 q 518 8 533 14 q 485 1 503 3 q 451 -2 468 -1 q 426 -3 435 -3 q 394 -1 411 -3 q 369 14 378 1 q 361 26 363 17 q 353 40 360 35 q 336 51 346 49 q 317 56 326 54 q 298 60 307 57 q 283 74 289 64 q 276 96 278 82 q 276 125 275 110 q 279 155 278 140 q 281 179 281 169 q 285 265 281 219 q 288 349 290 311 q 270 517 279 435 q 253 685 261 600 q 250 726 250 700 q 240 768 250 753 q 228 777 236 776 q 211 776 221 778 q 190 771 201 774 q 171 768 179 768 q 142 763 154 767 q 117 758 129 760 q 93 758 106 756 q 64 768 81 760 q 47 784 46 775 q 44 808 47 793 q 40 821 43 817 q 33 828 38 825 q 26 834 29 831 q 18 844 22 838 q 11 868 11 851 q 13 903 11 885 q 18 940 15 922 q 21 968 21 957 l 32 953 z "},"U":{"ha":786,"x_min":42,"x_max":732,"o":"m 168 996 q 148 1003 163 1000 q 117 1006 133 1006 q 86 1006 100 1007 q 68 1000 72 1004 q 63 986 64 994 q 64 969 63 978 q 67 953 65 961 q 71 942 69 946 q 93 808 82 875 q 101 674 104 740 q 99 608 99 640 q 99 542 99 575 q 96 451 99 497 q 106 363 93 404 q 120 315 113 339 q 138 271 128 292 q 159 222 150 243 q 182 175 168 200 q 212 144 192 157 q 258 123 232 131 q 313 113 283 115 q 369 115 342 111 q 431 119 400 117 q 490 130 461 122 q 545 153 519 138 q 590 199 571 169 q 626 287 615 235 q 639 381 638 339 q 642 497 642 442 q 639 611 642 553 q 618 768 635 690 q 601 926 601 846 q 600 953 600 938 q 598 983 600 968 q 588 1008 596 997 q 564 1022 581 1019 q 537 1021 546 1025 q 524 1008 528 1017 q 519 990 519 1000 q 522 969 519 979 q 538 840 538 903 q 540 710 538 776 q 546 586 543 649 q 538 465 549 524 q 526 393 531 429 q 517 319 521 357 q 513 283 517 304 q 499 250 510 263 q 452 224 478 231 q 400 217 426 217 q 348 224 376 219 q 300 244 319 229 q 233 318 254 272 q 201 417 213 364 q 192 482 190 447 q 193 553 193 517 q 190 626 193 589 q 182 700 186 664 q 172 849 175 776 q 168 996 168 921 m 106 307 q 94 338 103 326 q 85 365 85 349 q 83 451 83 413 q 83 538 83 489 q 79 585 83 557 q 79 633 75 613 q 78 681 83 656 q 71 728 74 706 q 66 800 67 764 q 58 872 65 836 q 53 911 58 893 q 53 949 49 929 q 49 978 56 961 q 47 1011 42 996 q 72 1020 54 1022 q 106 1018 90 1018 q 129 1024 117 1021 q 153 1026 142 1026 q 160 1024 154 1026 q 168 1022 165 1022 q 181 1021 179 1022 q 182 1011 182 1019 q 183 997 183 1006 q 181 978 182 988 q 181 961 181 969 q 186 949 182 953 l 193 938 q 232 923 221 932 q 254 888 243 914 q 266 846 261 868 q 271 801 271 824 q 280 669 276 735 q 278 538 283 604 q 283 480 278 510 q 296 418 289 450 q 303 382 299 403 q 315 347 307 361 q 332 323 321 336 q 356 298 343 310 q 382 276 368 286 q 407 263 396 267 q 424 257 413 260 q 447 252 435 254 q 469 251 458 250 q 488 256 481 251 q 497 281 494 263 q 501 320 500 299 q 501 362 501 342 q 503 392 501 382 q 511 445 506 419 q 517 500 517 471 l 517 585 q 523 620 521 600 q 528 660 525 640 q 530 711 528 682 q 525 768 532 740 q 514 855 514 810 q 514 942 514 900 q 508 985 511 960 q 510 1026 504 1011 q 534 1037 519 1040 q 564 1033 549 1033 q 594 1034 578 1036 q 622 1014 611 1032 q 624 1003 624 1008 q 628 986 625 997 q 630 973 628 975 q 643 971 632 971 q 670 973 658 971 q 693 960 682 975 q 700 939 703 951 q 697 915 697 926 q 710 868 697 893 q 722 819 722 843 q 718 747 721 782 q 715 674 715 713 q 719 608 715 640 q 722 542 722 575 q 725 449 725 494 q 732 363 725 404 q 726 299 732 331 q 715 235 719 267 q 701 192 713 215 q 682 149 690 168 q 657 101 675 125 q 624 61 639 78 q 592 36 607 42 q 554 28 578 31 q 447 9 501 14 q 336 10 393 4 q 294 22 322 11 q 238 47 267 33 q 189 72 210 60 q 168 90 168 85 q 163 125 168 110 q 153 156 157 140 q 132 201 142 179 q 114 247 122 224 q 107 273 111 258 q 94 299 103 288 l 106 307 z "},"V":{"ha":840,"x_min":0,"x_max":828,"o":"m 15 979 q 2 990 0 986 q 13 995 4 993 q 33 997 21 997 q 50 999 44 997 q 72 1003 58 1000 q 101 1011 86 1007 q 131 1018 117 1015 q 156 1022 146 1021 q 172 1022 165 1025 q 183 1011 178 1018 q 194 997 189 1004 q 211 988 200 990 q 244 974 235 983 q 261 940 254 964 q 291 814 276 874 q 322 695 306 754 q 353 576 338 636 q 386 453 369 517 q 402 486 389 471 q 426 518 415 501 q 455 570 440 546 q 489 621 469 594 q 540 713 515 665 q 586 808 565 761 q 615 885 600 843 q 651 960 631 928 q 714 1003 668 1003 q 738 1002 724 1003 q 767 999 753 1001 q 791 991 781 997 q 804 975 801 985 q 801 956 804 967 q 797 940 797 946 q 810 929 803 929 q 822 919 817 929 q 826 894 828 910 q 818 863 824 879 q 806 829 813 846 q 797 801 800 813 q 784 760 790 781 q 769 722 778 740 q 708 550 733 636 q 656 375 682 464 q 626 297 644 335 q 585 224 607 260 q 541 150 563 188 q 503 74 519 113 q 434 -1 479 11 q 324 11 389 -12 q 318 19 319 13 q 316 35 317 26 q 314 49 315 43 q 308 57 313 56 q 290 64 299 64 q 274 67 282 64 q 256 85 263 72 q 244 113 249 97 q 235 144 239 128 q 226 171 231 160 q 210 218 218 194 q 194 265 203 242 q 172 324 183 294 q 153 386 161 354 q 128 490 138 436 q 108 597 118 544 q 92 669 103 636 q 78 742 81 703 q 66 789 75 756 q 51 857 57 822 q 47 919 44 892 q 67 951 49 947 l 69 951 q 79 922 74 936 q 87 899 83 911 q 90 885 90 888 q 99 838 99 861 q 101 788 99 814 q 126 690 114 735 q 149 593 139 646 q 185 449 160 533 q 243 250 211 365 q 249 213 246 235 q 256 169 251 192 q 267 128 261 147 q 285 101 274 110 q 306 96 289 97 q 342 96 322 94 q 378 100 361 97 q 401 106 396 103 q 417 120 413 111 q 433 140 421 129 q 449 159 439 146 q 468 179 460 172 q 501 235 489 207 q 526 296 514 264 q 551 385 538 340 q 586 472 565 431 q 631 564 606 522 q 679 653 656 606 q 710 726 697 688 q 735 804 724 765 q 748 847 742 831 q 760 877 754 864 q 769 903 765 890 q 776 933 774 915 q 780 955 779 947 q 778 967 781 963 q 767 974 775 971 q 746 979 760 976 q 703 976 717 981 q 675 944 689 971 q 620 816 644 882 q 554 690 596 750 q 512 608 528 650 q 475 524 496 567 q 451 465 467 493 q 417 410 435 436 q 404 387 413 401 q 385 360 396 372 q 360 340 374 347 q 332 340 346 333 q 319 350 324 342 q 312 369 314 358 q 308 393 310 381 q 301 414 306 406 q 265 489 278 453 q 246 569 251 525 q 223 661 236 617 q 194 753 210 706 q 178 809 186 779 q 164 869 171 839 q 147 931 157 900 q 125 988 138 961 q 74 978 101 978 q 15 979 46 979 z "},"W":{"ha":997,"x_min":25,"x_max":992,"o":"m 40 978 q 44 921 40 944 q 51 861 49 897 q 58 770 53 813 q 69 685 63 728 q 93 551 82 614 q 126 422 104 489 q 150 349 138 385 q 169 276 163 313 q 187 199 178 242 q 214 129 196 156 q 231 113 219 118 q 258 108 243 108 q 287 109 272 107 q 314 114 301 111 q 333 123 326 117 q 342 139 339 129 q 347 160 344 149 q 351 183 349 171 q 378 297 365 242 q 403 407 390 353 q 419 468 407 440 q 442 519 431 496 q 458 538 449 535 q 476 535 467 540 q 497 521 486 531 q 517 501 507 511 q 556 450 538 479 q 592 388 575 421 q 623 322 608 356 q 649 258 638 289 q 663 227 656 238 q 683 201 669 217 q 704 192 692 194 q 731 191 717 190 q 758 194 744 192 q 779 200 771 197 q 788 215 783 201 q 800 229 792 229 q 811 290 803 258 q 822 353 819 321 q 830 409 825 381 q 838 469 835 438 q 835 535 840 501 q 838 601 829 568 q 861 704 851 653 q 872 811 871 756 q 880 869 872 836 q 888 929 888 901 q 888 972 888 950 q 881 1015 889 994 q 853 1010 867 1008 q 826 1011 839 1011 q 799 1006 813 1008 q 771 1003 785 1003 q 763 963 768 981 q 760 921 757 944 q 750 815 760 869 q 729 707 740 760 q 725 661 722 683 q 722 611 728 639 q 715 562 717 588 q 711 511 714 536 q 707 500 706 501 q 694 499 708 499 q 678 506 682 501 q 667 518 674 511 q 642 548 653 531 q 617 581 632 565 q 576 608 597 596 q 538 647 556 619 q 530 659 533 650 q 519 676 526 668 q 513 682 517 678 q 507 689 508 686 q 492 715 499 700 q 478 738 485 731 q 449 759 458 749 q 421 767 439 769 q 415 731 422 751 q 396 689 407 710 q 372 650 385 668 q 351 619 360 632 q 313 531 329 578 q 268 444 296 485 q 249 468 253 457 q 239 499 246 479 q 231 526 236 514 q 219 553 226 539 q 210 590 213 571 q 208 627 208 608 q 206 665 207 646 q 199 703 204 683 q 178 782 185 743 q 165 863 171 821 q 162 933 161 899 q 151 1000 163 968 q 103 996 126 1000 q 53 992 81 992 l 40 978 m 197 957 q 242 953 226 957 q 264 921 257 949 q 267 882 267 904 q 274 842 267 860 q 294 736 282 793 q 322 632 307 679 q 350 646 339 632 q 369 679 361 660 q 385 718 378 699 q 399 749 392 738 q 405 765 403 756 q 410 781 407 774 q 418 794 413 789 q 432 800 424 800 q 451 795 443 801 q 465 781 458 789 q 479 765 472 772 q 496 757 486 757 q 524 767 510 754 q 554 778 538 781 q 581 757 574 775 q 599 724 589 739 q 649 663 618 694 q 704 603 681 631 q 712 618 711 610 q 710 635 713 626 q 706 652 708 643 q 704 669 704 661 q 719 712 710 689 q 729 753 729 735 q 733 856 729 806 q 750 953 738 906 q 751 974 751 964 q 749 992 750 983 q 751 1008 749 1001 q 763 1019 754 1015 q 794 1032 775 1028 q 835 1038 814 1036 q 875 1039 856 1039 q 908 1038 894 1039 q 928 1037 922 1038 q 934 1034 933 1036 q 935 1028 935 1032 q 939 1015 935 1024 q 945 1003 944 1007 q 946 999 946 1000 q 948 995 946 997 q 958 988 950 993 q 970 981 965 982 q 978 979 975 981 q 984 975 982 978 q 989 963 986 972 q 990 949 992 958 q 989 933 989 939 q 985 869 989 901 q 975 807 982 836 q 946 660 954 736 q 935 510 938 585 q 922 397 928 451 q 908 288 915 342 q 907 251 907 272 q 905 209 907 231 q 899 168 903 188 q 888 135 896 149 q 860 124 882 131 q 814 113 839 118 q 766 104 789 107 q 733 106 743 101 q 720 122 719 113 q 715 139 721 132 q 710 151 711 147 q 706 156 708 154 q 700 158 704 157 q 686 164 696 160 q 650 204 665 176 q 628 250 635 232 q 612 303 617 282 q 590 353 607 325 q 547 436 565 393 q 496 510 528 479 q 490 462 499 488 q 482 414 482 436 q 474 321 479 368 q 463 229 469 274 q 449 170 460 199 q 433 114 439 142 q 427 72 429 90 q 415 31 425 53 q 412 18 413 24 q 404 6 411 13 q 385 0 400 1 q 351 -1 369 -1 q 317 0 333 -1 q 294 4 300 1 q 282 17 285 8 q 278 35 279 25 q 278 54 278 44 q 274 72 278 64 q 251 86 267 85 q 226 100 236 88 q 203 131 217 108 q 177 181 190 153 q 154 240 164 210 q 143 296 144 271 q 135 351 142 325 q 121 401 129 376 q 103 452 113 426 q 90 506 94 478 q 83 595 88 553 q 68 685 78 638 q 33 837 40 763 q 32 996 25 911 q 70 1006 47 999 q 117 1017 93 1013 q 160 1020 140 1021 q 189 1007 181 1019 q 192 996 192 1003 q 193 981 193 989 q 194 967 193 974 q 197 957 194 961 z "},"X":{"ha":938,"x_min":1,"x_max":939,"o":"m 171 961 q 147 966 161 965 q 119 965 133 967 q 91 957 104 963 q 71 943 78 951 q 69 928 67 939 q 76 903 71 917 q 89 874 82 889 q 101 849 96 860 q 138 788 113 826 q 192 709 164 749 q 246 637 221 669 q 279 594 271 604 q 299 571 297 576 q 285 550 300 565 q 236 476 256 514 q 193 396 217 439 q 146 326 165 360 q 101 254 126 292 q 88 233 93 242 q 78 215 82 224 q 69 194 74 206 q 60 168 65 183 q 51 153 58 164 q 38 132 44 143 q 26 110 31 121 q 26 93 22 99 q 53 85 32 86 q 101 85 75 85 q 149 89 126 86 q 176 94 171 92 q 215 137 201 114 q 240 188 229 160 q 260 224 250 208 q 280 256 269 240 q 300 289 290 272 q 319 326 310 306 q 351 399 335 367 q 396 460 368 432 q 439 410 422 436 q 469 358 456 385 q 497 303 483 331 q 533 247 511 275 q 554 219 543 231 q 572 190 565 208 q 590 160 583 176 q 603 135 596 143 q 642 116 617 119 q 696 116 668 113 q 749 126 724 119 q 789 139 775 133 q 776 176 793 147 q 732 242 758 204 q 676 324 706 281 q 629 406 647 368 q 605 446 622 425 q 572 486 588 467 q 547 529 563 506 q 528 581 532 553 q 529 615 525 596 q 541 656 533 635 q 556 697 549 676 q 565 736 563 718 q 588 795 571 765 q 613 854 606 825 q 628 907 618 882 q 633 958 638 932 q 623 975 633 968 q 598 988 613 982 q 568 995 583 993 q 543 996 553 997 q 517 974 519 989 q 511 939 515 958 q 484 882 500 907 q 460 824 468 857 q 447 785 454 807 q 432 740 440 763 q 413 697 424 717 q 389 667 401 678 q 353 715 376 692 q 310 763 329 739 q 267 819 290 790 q 226 879 244 847 q 217 900 222 888 q 204 924 211 913 q 189 947 197 936 q 171 961 181 957 m 513 1010 q 535 1021 521 1018 q 567 1022 550 1024 q 599 1016 583 1021 q 625 1007 615 1011 q 649 997 643 1001 q 656 986 656 992 q 656 973 657 981 q 660 954 656 965 q 675 938 665 943 q 694 930 685 933 q 712 921 703 926 q 725 901 721 915 q 728 867 731 883 q 720 835 726 851 q 706 805 714 819 q 692 775 697 790 q 680 742 685 758 q 668 710 675 726 q 655 671 658 694 q 650 629 651 647 q 649 594 646 613 q 660 557 653 575 q 676 521 667 539 q 692 486 685 503 q 758 370 717 425 q 831 258 799 315 q 876 196 847 226 q 917 131 904 165 q 931 91 924 114 q 926 56 939 68 q 880 47 903 49 q 833 43 857 46 q 813 39 824 42 q 791 34 803 36 q 768 32 779 32 q 747 38 757 32 q 727 62 733 44 q 708 86 721 79 q 687 94 699 93 q 663 93 675 94 q 635 92 650 92 q 607 99 621 92 q 594 108 603 100 q 565 144 585 117 q 510 226 544 172 q 422 375 476 281 q 395 315 407 342 q 373 263 383 288 q 350 210 363 238 q 319 150 338 183 q 274 81 304 115 q 214 17 243 46 q 189 0 204 6 q 157 -6 174 -6 q 123 -3 140 -7 q 93 7 106 0 q 71 17 76 11 q 65 31 65 24 q 63 46 64 38 q 53 63 61 54 q 34 74 44 72 q 17 76 24 75 q 6 85 10 78 q 6 113 1 92 q 16 138 10 126 q 30 160 22 150 q 44 183 38 171 q 56 210 51 194 q 71 262 67 242 q 90 307 75 282 q 130 378 108 340 q 174 453 151 415 q 219 525 196 490 q 267 588 243 560 q 244 614 253 603 q 229 635 236 625 q 215 654 222 644 q 193 679 207 664 q 161 713 174 699 q 138 743 149 728 q 117 777 128 758 q 90 824 107 796 q 73 853 83 835 q 56 892 63 872 q 49 927 50 911 q 60 950 49 943 q 101 970 75 961 q 152 979 126 979 q 198 969 178 979 q 224 932 218 958 q 254 940 243 929 q 285 958 265 951 q 310 961 301 961 q 326 958 319 961 q 338 949 332 956 q 351 932 343 943 q 392 874 371 906 q 433 822 414 843 q 466 870 457 846 q 490 924 475 894 q 496 944 494 932 q 499 968 497 956 q 503 992 500 981 q 513 1010 506 1003 z "},"Y":{"ha":717,"x_min":3,"x_max":725,"o":"m 10 963 q 52 924 31 949 q 93 876 74 900 q 140 820 119 853 q 183 754 161 788 q 232 697 203 724 q 278 639 261 669 q 290 603 288 622 q 290 565 292 585 q 286 527 289 546 q 286 490 283 508 q 292 429 293 458 q 293 367 290 400 q 290 270 294 318 q 292 175 286 222 q 294 148 292 158 q 302 131 296 138 q 319 122 308 125 q 350 115 331 118 q 390 107 365 113 q 431 103 414 101 q 451 110 447 106 q 457 133 454 114 q 458 190 460 161 q 454 249 457 219 q 449 360 451 303 q 440 475 447 417 q 435 522 438 496 q 430 574 432 547 q 429 626 428 601 q 438 669 431 651 q 467 718 449 700 q 504 761 485 736 q 539 800 524 778 q 567 839 554 822 q 609 917 588 882 q 642 992 631 951 q 628 1006 642 1000 q 595 1012 614 1011 q 557 1009 576 1013 q 526 997 538 1006 q 507 971 515 989 q 490 939 499 953 q 439 871 461 906 q 408 835 425 853 q 381 797 392 817 q 368 775 374 786 q 357 758 363 764 q 344 751 351 751 q 324 763 336 751 q 279 820 300 789 q 233 875 258 851 q 194 912 217 894 q 157 950 172 929 q 156 961 154 956 q 153 972 158 967 q 129 981 142 981 q 106 976 117 981 q 54 976 79 975 q 10 963 29 978 m 521 539 q 535 444 525 490 q 547 351 546 399 q 553 259 550 307 q 553 165 557 211 q 553 128 553 151 q 550 81 553 104 q 539 38 547 57 q 514 13 531 18 q 478 3 500 6 q 433 2 456 0 q 390 12 410 4 q 363 35 371 19 q 353 58 356 47 q 347 77 350 68 q 338 94 344 86 q 317 108 331 101 q 295 118 304 114 q 281 128 286 122 q 272 142 275 133 q 265 167 268 151 q 262 248 260 207 q 267 330 264 289 q 273 413 271 371 q 268 494 275 454 q 261 560 264 528 q 253 625 258 592 q 235 668 249 653 q 201 707 221 683 q 166 746 183 725 q 135 793 149 767 q 110 836 124 817 q 80 874 96 856 q 47 909 64 892 q 17 947 31 926 q 14 953 18 949 q 6 963 10 957 q 3 975 3 968 q 13 989 3 982 q 21 987 13 986 q 39 989 29 988 q 58 991 49 990 q 68 989 67 992 q 80 999 78 997 q 84 1001 82 1001 q 92 999 86 1000 q 114 999 97 997 q 140 999 121 999 q 165 997 158 1000 q 167 990 167 994 q 172 982 168 985 q 188 960 178 975 q 208 943 197 946 q 228 947 218 940 q 246 957 238 954 q 274 945 263 957 q 294 921 285 933 q 342 876 318 901 q 394 849 365 851 q 417 874 406 863 q 439 899 428 885 q 468 931 450 918 q 497 963 486 944 q 509 990 503 974 q 526 1014 515 1007 q 547 1025 536 1019 q 568 1033 558 1031 q 595 1028 582 1033 q 624 1022 608 1022 q 656 1027 639 1025 q 686 1026 672 1029 q 678 1012 683 1018 q 669 996 674 1006 q 669 974 664 981 q 689 963 674 968 q 717 947 708 956 q 718 915 725 939 q 701 882 711 900 q 681 849 692 864 q 662 810 671 829 q 638 772 653 792 q 601 719 622 743 q 560 667 579 694 q 532 642 547 656 q 511 611 517 629 q 513 575 507 596 q 521 539 518 554 z "},"Z":{"ha":757,"x_min":8,"x_max":758,"o":"m 28 957 q 23 916 22 929 q 31 896 24 903 q 54 887 39 889 q 94 881 69 885 q 184 863 142 875 q 274 847 226 850 q 320 855 297 846 q 367 860 343 864 q 386 857 374 857 q 411 856 399 857 q 435 853 424 856 q 451 847 447 851 q 451 825 457 840 q 437 792 446 810 q 419 757 428 774 q 410 732 410 740 q 399 691 406 708 q 382 659 392 674 q 359 631 372 644 q 332 599 346 617 q 306 569 317 579 q 286 551 294 560 q 269 533 278 543 q 249 504 260 522 q 228 472 238 488 q 200 443 218 456 q 171 415 189 431 q 133 384 153 400 q 97 352 114 368 q 74 322 81 336 q 69 303 71 315 q 67 276 68 290 q 65 247 65 261 q 65 225 65 233 q 74 176 67 201 q 89 131 81 150 q 97 114 94 118 q 103 110 100 110 q 112 112 107 110 q 128 114 117 114 l 215 114 q 308 117 258 114 q 408 124 357 119 q 507 131 458 128 q 600 133 556 133 q 642 146 629 133 q 658 179 654 158 q 658 228 661 200 q 650 286 654 256 q 604 283 629 292 q 556 264 579 275 q 485 250 518 253 q 410 247 453 247 q 349 242 378 247 q 289 233 321 238 q 243 237 261 233 q 200 247 225 240 q 242 352 211 306 q 310 444 274 399 q 372 505 338 481 q 438 564 406 529 q 514 678 478 617 q 578 804 550 740 q 588 826 581 813 q 601 856 594 840 q 611 884 607 871 q 614 904 615 897 q 594 930 611 921 q 554 944 576 939 q 510 953 532 950 q 476 960 488 956 q 372 988 426 976 q 263 1004 317 999 q 208 1010 235 1008 q 154 1014 182 1011 q 109 1017 129 1015 q 73 1015 89 1019 q 45 998 57 1011 q 28 957 33 985 m 622 946 q 640 920 639 933 q 636 894 642 907 q 623 868 631 881 q 614 846 615 856 q 615 827 614 832 q 619 822 617 822 q 626 820 622 821 q 636 813 631 819 q 654 784 653 796 q 649 749 656 772 q 579 599 622 672 q 494 458 536 525 q 469 406 481 431 q 439 360 457 381 q 403 323 424 338 q 367 289 383 308 q 403 277 385 278 q 441 281 422 276 q 478 291 460 285 q 515 300 497 297 q 577 311 546 307 q 636 315 608 315 q 663 310 658 315 q 666 297 667 306 q 666 278 665 289 q 681 258 667 268 q 701 251 689 247 q 725 249 714 256 q 736 221 738 238 q 738 189 735 204 q 751 142 743 164 q 753 99 758 119 q 726 60 749 72 q 675 44 704 49 q 615 36 646 39 q 560 25 583 33 q 420 -7 490 1 q 279 -18 350 -15 q 219 -2 238 -18 q 176 43 201 14 q 141 74 157 65 q 100 93 125 82 q 66 118 74 104 q 51 160 58 132 q 37 255 40 203 q 50 350 33 307 l 51 347 q 56 352 51 347 q 67 363 60 357 q 81 376 74 369 q 94 389 89 383 q 129 421 113 408 q 165 449 146 433 q 203 493 188 465 q 240 540 218 521 q 309 612 281 578 q 367 692 338 646 q 387 726 376 711 q 404 763 397 742 q 407 791 411 783 q 392 800 403 799 q 365 798 381 801 q 335 793 349 794 q 247 781 292 785 q 157 775 201 778 q 120 774 135 774 q 93 793 106 774 q 80 820 82 804 q 78 851 78 836 l 74 847 q 32 865 51 853 q 10 892 13 878 q 8 909 8 897 q 9 933 8 921 q 10 957 10 946 q 13 975 11 968 q 29 1010 18 1000 q 56 1024 40 1021 q 90 1026 71 1026 q 133 1029 110 1025 q 183 1028 160 1035 q 233 1018 206 1021 q 297 1010 267 1015 q 361 997 328 1004 q 428 987 393 989 q 494 979 463 985 q 526 974 507 976 q 566 969 546 972 q 604 959 586 965 q 633 943 622 953 l 622 946 z "},"[":{"ha":615,"x_min":58,"x_max":572,"o":"m 410 1014 q 365 1008 389 1014 q 318 1001 340 1001 q 298 1002 313 1001 q 269 1001 283 1003 q 249 994 256 1000 q 251 975 242 988 q 232 973 244 972 q 206 974 219 974 q 180 973 192 974 q 163 967 168 972 q 160 955 160 964 q 160 935 160 946 q 160 915 160 925 q 161 899 161 904 q 153 858 158 878 q 153 813 149 838 q 169 638 160 725 q 185 461 179 550 q 195 315 188 388 q 203 168 203 243 q 201 151 203 163 q 199 128 200 140 q 197 107 197 117 q 200 94 197 97 q 211 88 204 89 q 226 90 218 88 q 241 94 233 92 q 254 97 249 96 q 315 98 286 99 q 374 107 343 97 q 410 117 394 115 q 449 118 426 118 q 466 117 454 118 q 490 116 478 117 q 512 116 501 115 q 528 121 522 117 l 543 160 q 547 173 546 167 q 547 189 547 179 q 545 221 547 200 q 532 250 543 242 q 511 250 526 253 q 488 247 496 247 q 425 246 458 247 q 360 250 392 244 q 331 268 339 256 q 320 297 322 281 q 318 331 318 313 q 315 368 318 350 q 307 409 314 390 q 297 450 300 428 q 293 533 290 492 q 290 614 296 574 q 278 696 282 657 q 269 771 275 735 q 265 801 268 783 q 259 838 261 819 q 258 872 257 856 q 265 899 258 888 q 300 916 276 914 q 340 921 324 918 q 360 922 346 921 q 388 924 374 922 q 415 930 403 926 q 429 938 426 933 q 431 956 433 944 q 424 979 429 967 q 413 1002 418 992 q 407 1017 408 1013 l 410 1014 m 69 421 q 77 560 76 496 q 71 700 78 625 q 69 726 71 711 q 65 758 67 742 q 60 792 63 775 q 60 821 58 808 q 65 834 60 828 q 78 846 71 840 q 92 857 85 851 q 101 868 99 863 q 108 876 103 871 q 121 885 114 881 q 133 892 128 889 q 139 894 139 896 q 138 933 135 914 q 143 975 140 953 q 178 1008 154 1004 q 225 1014 203 1011 q 285 1025 256 1019 q 344 1032 314 1031 q 385 1038 365 1038 q 415 1021 406 1038 q 426 1001 421 1015 q 436 981 431 988 q 449 974 443 974 q 462 974 456 974 q 474 974 468 975 q 486 961 479 972 q 495 919 492 946 q 499 875 499 893 q 499 838 499 858 q 481 808 500 818 q 455 800 469 801 q 428 799 440 799 q 387 796 408 799 q 344 790 365 793 q 319 785 335 788 q 297 771 303 782 q 294 745 292 764 q 297 717 297 726 q 299 647 297 682 q 310 575 300 611 q 326 503 321 536 q 333 433 332 471 q 333 393 333 418 q 336 344 333 368 q 346 299 339 319 q 368 275 353 279 q 432 267 394 268 q 493 265 469 267 q 520 268 507 265 q 543 272 533 271 q 559 267 553 272 q 568 247 565 263 q 567 194 572 219 q 561 147 563 169 q 560 127 561 138 q 553 111 560 117 q 538 103 546 104 q 520 103 529 103 q 502 103 511 104 q 488 99 493 103 q 478 78 478 90 q 479 52 478 65 q 479 25 481 39 q 465 1 478 11 q 444 -7 458 -3 q 413 -14 429 -11 q 381 -19 396 -17 q 357 -21 365 -21 q 294 -21 325 -21 q 232 -19 264 -21 q 181 -26 208 -19 q 126 -19 153 -32 q 110 0 115 -14 q 102 31 104 14 q 100 65 100 47 q 101 94 100 82 q 99 161 101 128 q 94 231 97 194 q 90 281 94 257 q 81 326 86 304 q 72 372 75 349 q 69 421 68 394 z "},"\\":{"ha":597,"x_min":15,"x_max":593,"o":"m 36 999 q 47 984 43 989 q 54 969 51 979 q 63 917 63 942 q 78 852 69 885 q 97 788 88 819 q 129 679 114 731 q 167 575 144 628 q 194 497 183 536 q 213 417 204 457 q 233 340 222 378 q 263 268 244 303 q 320 142 293 206 q 375 19 347 78 q 404 24 386 22 q 441 31 422 26 q 474 41 460 35 q 492 60 489 47 q 489 78 493 64 q 477 107 485 92 q 462 136 469 122 q 449 156 454 150 q 418 216 435 188 q 393 276 401 244 q 381 331 385 304 q 372 383 378 357 q 358 435 367 410 q 332 483 350 460 q 278 572 300 529 q 242 669 257 614 q 219 776 228 722 q 193 882 210 829 q 185 909 190 892 q 172 944 179 926 q 156 976 165 961 q 138 999 147 992 q 108 1000 124 1006 q 81 990 93 994 q 70 987 74 988 q 60 986 67 986 q 50 992 53 986 q 36 999 47 999 m 103 1033 q 133 1028 122 1031 q 154 1013 143 1026 q 167 994 164 1001 q 172 981 169 986 q 182 974 175 976 q 207 972 189 972 q 228 974 219 972 q 244 975 238 975 q 259 971 251 975 q 276 956 267 967 q 306 901 292 933 q 338 843 319 869 q 437 618 399 731 q 506 385 475 506 q 549 224 525 303 q 588 63 572 146 q 590 42 588 53 q 592 19 592 31 q 592 -4 593 7 q 583 -24 590 -15 q 553 -49 572 -40 q 512 -58 533 -57 q 471 -53 490 -60 q 439 -32 451 -47 q 425 -12 429 -19 q 417 -3 421 -6 q 405 2 413 0 q 383 7 397 4 q 358 19 367 11 q 343 38 349 28 q 333 62 338 49 q 319 89 328 75 q 200 360 247 218 q 111 639 153 501 q 78 774 92 706 q 42 908 64 843 q 34 929 39 917 q 24 956 29 942 q 17 984 19 971 q 19 1007 15 997 q 35 1020 25 1015 q 56 1028 44 1025 q 81 1031 68 1031 q 103 1033 93 1032 z "},"]":{"ha":571,"x_min":63,"x_max":526,"o":"m 86 996 q 88 976 88 988 q 91 953 89 965 q 97 932 93 942 q 110 918 101 922 q 156 917 125 911 q 206 922 186 922 q 224 927 211 922 q 240 931 238 932 q 250 917 247 926 q 253 898 253 908 q 253 878 254 888 q 253 864 253 869 q 258 761 257 813 q 267 656 260 710 q 285 470 278 560 q 292 285 292 381 q 290 238 292 256 q 258 215 289 219 q 228 215 243 214 q 202 215 214 217 q 183 205 190 213 q 172 179 175 197 q 174 123 169 151 q 181 65 179 94 q 248 62 207 57 q 321 69 289 67 q 362 76 339 69 q 394 99 385 82 q 405 131 401 113 q 409 167 408 149 q 410 205 410 186 q 410 238 410 224 q 413 341 410 289 q 410 444 415 393 q 392 536 404 490 q 374 629 381 582 q 370 766 371 699 q 358 901 369 833 q 346 950 353 929 q 326 985 339 971 q 292 1007 313 999 q 240 1018 271 1015 q 208 1024 229 1021 q 166 1026 188 1026 q 124 1023 144 1026 q 92 1010 103 1019 q 88 1005 89 1007 q 86 996 86 1003 m 79 922 q 70 954 72 939 q 65 989 68 969 q 64 1017 63 1008 q 86 1031 65 1026 q 125 1038 106 1038 q 165 1039 144 1039 q 213 1033 190 1036 q 258 1026 235 1029 q 303 1016 282 1026 q 338 986 325 1006 q 349 965 344 975 q 371 947 353 954 q 383 948 376 947 q 394 944 390 949 q 413 930 408 938 q 421 911 418 922 q 436 872 428 894 q 451 829 444 850 q 460 781 457 804 q 475 735 464 758 q 491 688 489 714 q 494 638 493 661 q 506 563 500 601 q 513 489 513 525 q 518 411 514 450 q 519 333 522 372 q 519 206 515 268 q 525 81 522 144 q 526 51 525 67 q 524 22 526 36 q 515 -1 522 8 q 493 -11 508 -10 q 446 -21 467 -15 q 403 -32 425 -26 q 355 -47 379 -44 q 307 -50 331 -49 q 279 -45 290 -53 q 260 -25 268 -37 q 246 3 251 -12 q 233 29 240 18 q 219 44 225 44 q 197 43 214 43 q 185 42 192 43 q 172 43 178 40 q 159 74 160 51 q 158 111 158 97 q 153 136 158 121 q 145 167 149 151 q 144 197 142 183 q 161 215 146 211 q 180 220 169 219 q 201 220 190 221 q 224 220 213 219 q 243 228 235 221 q 260 250 254 235 q 269 283 267 265 q 272 320 272 301 q 272 351 272 339 q 258 473 268 414 q 240 593 249 532 q 234 642 235 619 q 233 693 233 665 q 237 763 233 725 q 231 838 240 801 q 208 835 219 838 q 184 833 196 833 q 163 834 172 832 q 149 844 153 836 q 144 871 143 854 q 135 896 146 888 q 120 901 128 900 q 105 902 113 901 q 90 907 97 903 q 79 922 83 911 z "},":":{"ha":404,"x_min":49,"x_max":361,"o":"m 61 524 q 53 524 56 521 q 49 532 50 526 q 50 543 49 538 q 54 551 51 549 q 79 559 65 563 q 103 554 93 556 q 140 554 124 550 q 176 553 154 554 q 211 544 197 551 q 220 534 218 540 q 224 520 222 528 q 227 506 225 513 q 236 494 229 499 q 249 492 243 492 q 259 491 254 492 q 267 488 264 490 q 274 479 271 486 q 281 433 281 456 q 288 392 281 411 q 294 344 292 367 q 274 307 296 322 q 233 294 258 294 q 188 296 207 293 q 151 296 172 296 q 115 307 131 296 q 101 331 104 310 q 102 343 101 332 q 101 357 103 354 q 84 362 94 365 q 67 364 74 358 q 58 373 60 369 q 57 385 57 376 q 56 424 54 406 q 54 463 57 443 q 51 482 54 469 q 50 500 49 494 q 62 506 53 503 q 75 507 71 510 q 79 495 78 504 q 81 476 81 486 q 81 458 81 467 q 81 444 81 449 q 79 429 81 438 q 76 411 78 421 q 75 394 75 401 q 78 382 75 386 q 87 377 81 378 q 96 376 93 376 q 133 375 115 372 q 167 389 151 378 q 188 406 175 396 q 203 425 200 415 q 206 447 210 436 q 203 469 203 458 q 206 502 203 482 q 199 526 208 522 q 176 531 190 532 q 156 531 163 531 q 126 532 142 533 q 96 533 111 531 q 77 541 85 539 q 67 524 69 543 l 61 524 m 140 272 q 122 269 132 272 q 110 251 113 267 q 105 219 104 236 q 106 190 106 203 q 108 160 108 179 q 115 129 108 142 q 138 113 122 118 q 164 106 153 108 q 191 107 179 104 q 218 113 203 110 q 246 115 233 117 q 272 129 258 114 q 278 142 281 140 q 267 150 275 143 q 260 163 257 158 q 267 179 264 168 q 264 213 271 196 q 253 246 257 231 q 233 268 240 265 q 203 271 225 271 q 172 271 189 271 q 140 272 156 271 m 121 286 q 134 285 125 286 q 153 283 143 283 q 176 283 164 282 q 201 283 189 283 q 231 285 219 286 q 257 272 243 283 q 272 258 264 268 q 288 240 281 247 q 302 242 296 236 q 314 240 308 247 q 319 221 317 236 q 325 201 321 206 q 326 183 325 193 q 329 167 326 174 q 338 157 335 158 q 349 146 342 156 q 353 133 351 142 q 360 118 356 125 q 349 90 361 103 q 325 69 336 78 q 281 54 310 57 q 233 51 253 51 q 197 51 218 49 q 164 69 175 54 q 160 81 160 72 q 153 94 160 90 q 142 97 149 97 q 129 97 136 97 q 100 120 108 104 q 90 156 92 136 q 88 201 83 179 q 92 250 92 224 q 95 275 92 267 q 121 286 99 283 z "},",":{"ha":400,"x_min":111,"x_max":315,"o":"m 163 146 q 162 127 161 136 q 161 110 163 118 q 156 93 160 100 q 149 76 153 86 q 142 55 144 67 q 138 33 140 43 q 129 -8 135 18 q 131 -49 124 -33 q 151 -62 133 -54 q 179 -68 169 -71 q 193 -49 190 -67 q 200 -21 196 -32 q 217 20 211 0 q 231 64 222 40 q 236 76 233 69 q 243 88 239 82 q 253 98 246 93 q 264 110 260 103 q 260 123 267 118 q 244 130 254 128 q 224 133 235 132 q 207 136 213 135 q 185 142 196 139 q 163 146 175 146 m 160 167 q 201 155 182 158 q 243 149 221 151 q 265 146 254 146 q 279 136 275 146 q 281 125 282 133 q 279 114 279 117 q 272 103 276 107 q 264 93 268 99 q 260 82 260 83 q 269 76 261 81 q 291 71 276 72 q 310 63 306 69 q 311 41 315 54 q 304 19 307 28 q 289 -32 296 -7 q 271 -85 282 -57 q 256 -115 267 -94 q 240 -139 246 -135 q 224 -142 233 -142 q 207 -142 215 -142 q 183 -138 197 -139 q 161 -131 169 -137 q 152 -115 149 -122 q 156 -97 156 -108 q 144 -82 156 -87 q 125 -67 132 -76 q 113 -35 114 -51 q 111 0 111 -19 q 125 50 114 28 q 143 100 136 72 q 145 116 144 106 q 147 137 146 126 q 150 156 147 147 q 160 167 153 164 z "},"-":{"ha":522,"x_min":67,"x_max":453,"o":"m 103 575 q 107 531 106 551 q 100 489 108 511 q 90 475 97 471 q 81 493 83 479 q 80 522 79 508 q 81 549 81 535 q 81 568 81 558 q 88 589 82 578 q 91 598 92 596 q 100 603 90 600 q 141 601 119 604 q 182 596 163 599 q 239 594 210 594 q 299 596 268 593 q 343 602 321 601 q 388 603 365 603 q 402 602 397 603 q 414 592 407 601 q 414 583 414 588 q 415 575 414 578 q 427 571 421 569 q 436 568 433 572 q 443 549 443 561 q 443 531 443 538 q 448 496 443 514 q 450 463 453 478 q 438 439 449 447 q 414 425 428 431 q 385 417 400 419 q 361 413 371 414 q 316 406 339 408 q 274 394 293 403 q 238 383 256 388 q 200 376 219 378 q 165 373 188 374 q 135 385 142 372 q 128 408 126 394 q 124 432 131 421 q 104 443 117 446 q 79 444 92 440 q 67 450 67 447 q 72 454 67 453 q 85 456 78 456 q 97 457 93 457 q 202 451 149 454 q 306 463 256 449 q 326 468 317 465 q 346 474 335 471 q 367 476 356 475 q 389 483 379 476 q 398 510 401 494 q 393 536 394 525 q 390 564 390 551 q 375 582 389 576 q 349 581 363 583 q 324 582 336 579 q 300 582 310 582 q 276 578 290 582 q 230 570 254 571 q 183 569 206 569 q 163 569 172 569 q 143 569 153 568 q 123 578 133 572 q 103 582 113 583 l 103 575 z "},".":{"ha":303,"x_min":24,"x_max":271,"o":"m 89 221 q 74 218 76 224 q 64 217 69 218 q 54 214 58 217 q 50 201 47 213 q 53 182 53 190 q 53 170 54 175 q 53 160 53 165 q 54 132 53 143 q 60 110 56 121 q 72 88 67 99 q 89 71 78 76 q 113 67 103 69 q 135 61 124 64 q 152 61 144 57 q 169 68 160 65 q 192 67 181 69 q 203 81 203 65 q 199 91 203 86 q 190 100 194 96 q 184 108 186 104 q 186 119 182 113 q 190 125 189 122 q 192 132 192 128 q 195 140 194 135 q 196 147 196 146 q 192 172 196 161 q 186 193 189 182 q 174 218 185 208 q 144 221 164 228 q 140 219 142 221 q 136 218 138 218 q 125 219 131 218 q 113 221 119 221 l 89 221 m 211 201 q 213 197 211 199 q 221 196 215 194 q 227 203 224 199 q 240 200 231 207 q 246 179 244 194 q 253 154 247 164 q 255 128 254 140 q 260 104 256 115 q 263 76 261 89 q 268 50 264 64 q 271 33 271 40 q 263 19 271 26 q 256 13 261 15 q 242 8 250 11 q 209 3 226 4 q 176 0 192 1 q 149 -8 165 -6 q 126 8 133 -11 q 124 18 124 13 q 122 29 125 24 q 114 41 121 35 q 101 49 107 47 q 88 49 94 50 q 74 50 81 49 q 53 63 60 54 q 42 84 46 72 q 38 109 39 96 q 33 133 36 122 q 26 167 26 149 q 25 200 25 185 q 24 212 25 203 q 24 229 24 221 q 30 233 25 232 q 39 238 35 235 q 45 244 43 242 q 54 247 47 247 q 69 248 60 249 q 88 249 78 247 q 119 246 103 249 q 156 243 136 243 q 169 243 161 243 q 186 242 178 243 q 201 236 194 240 q 207 222 207 232 q 209 214 210 219 q 211 201 208 208 z "},"/":{"ha":526,"x_min":14,"x_max":501,"o":"m 496 931 q 498 893 501 917 q 489 856 494 869 q 457 763 478 808 q 415 674 436 718 q 395 617 406 654 q 375 535 385 579 q 358 449 365 492 q 347 381 350 407 q 334 308 344 356 q 313 210 324 260 q 291 117 301 160 q 278 60 281 74 q 254 21 272 31 q 207 11 236 11 q 175 6 194 10 q 135 1 156 3 q 97 3 114 0 q 74 18 79 6 q 71 35 69 25 q 74 57 72 46 q 76 78 76 68 q 69 96 76 89 q 47 107 58 101 q 24 113 35 113 q 15 137 17 119 q 15 177 14 154 q 21 225 17 200 q 31 271 25 250 q 55 356 42 311 q 88 438 68 400 q 143 592 124 513 q 179 754 163 671 q 199 848 190 803 q 235 933 208 893 q 242 946 236 936 q 256 966 249 956 q 272 983 264 976 q 285 983 279 989 q 278 967 286 982 q 260 935 271 953 q 242 901 250 918 q 232 878 233 883 q 201 776 213 828 q 180 671 189 724 q 162 565 171 618 q 136 461 153 513 q 102 377 121 419 q 69 293 83 335 q 52 220 58 258 q 38 144 46 182 q 59 143 49 144 q 76 142 69 142 q 116 139 92 142 q 154 142 140 136 q 167 151 168 147 q 168 169 165 154 q 201 305 182 239 q 239 438 219 371 q 274 575 258 507 q 310 711 290 643 q 333 783 317 749 q 363 853 349 818 q 379 899 374 876 q 390 944 385 921 q 397 964 393 954 q 403 983 401 974 q 403 1002 406 993 q 390 1018 400 1011 q 339 1026 369 1029 q 285 1022 308 1022 q 264 1024 276 1022 q 249 1036 251 1025 q 251 1048 244 1044 q 269 1052 258 1051 q 290 1053 279 1053 q 306 1053 300 1053 q 339 1049 325 1056 q 369 1039 353 1042 q 389 1035 381 1036 q 408 1029 397 1035 q 422 1016 419 1025 q 423 997 424 1007 q 423 976 422 986 q 432 958 424 965 q 449 951 440 953 q 467 948 458 950 q 483 942 475 946 q 496 931 490 939 z "},"!":{"ha":371,"x_min":0,"x_max":0,"o":""},"\"":{"ha":449,"x_min":0,"x_max":0,"o":""},"&":{"ha":928,"x_min":-12,"x_max":933,"o":"m 844 757 q 841 709 844 731 q 838 663 838 688 q 837 638 838 650 q 832 611 836 626 q 824 588 831 599 q 810 566 818 576 q 794 545 801 556 q 783 524 786 535 l 782 524 q 781 525 781 524 q 808 501 790 510 q 838 478 826 492 q 862 455 849 467 q 882 429 875 443 q 899 385 892 410 q 915 338 906 361 q 928 227 933 285 q 899 119 922 169 q 878 97 890 104 q 849 79 867 90 q 785 47 817 61 q 717 25 753 33 q 673 19 707 22 q 594 13 639 15 q 500 10 550 11 q 409 10 450 8 q 342 19 368 13 q 317 36 315 25 q 274 11 296 24 q 233 -17 251 -1 q 224 -30 228 -21 q 213 -42 219 -39 q 188 -41 201 -46 q 162 -29 175 -36 q 135 -16 149 -22 q 111 -10 122 -10 q 115 19 110 7 q 126 41 119 31 q 140 62 133 51 q 150 86 147 72 q 122 98 135 89 q 92 107 110 107 q 112 153 96 131 q 138 196 128 176 q 103 210 119 196 q 69 238 86 224 q 36 263 53 253 q 0 265 19 274 q 0 303 -12 289 q 33 332 13 317 q 41 338 36 333 q 49 346 46 343 q 49 361 51 354 q 44 379 47 368 l 44 408 q 58 428 44 424 q 85 447 71 433 q 92 457 90 451 q 101 465 94 463 q 126 471 113 472 q 150 474 140 469 q 157 438 150 456 q 163 414 161 422 q 172 394 165 406 q 189 378 183 388 q 206 364 194 368 q 228 366 221 358 q 246 389 236 374 q 315 440 276 419 q 382 493 353 460 q 398 506 388 499 q 419 522 408 514 q 438 540 429 531 q 449 558 446 549 q 433 564 442 558 q 414 578 424 569 q 397 594 404 586 q 388 607 390 603 q 364 640 376 626 q 343 675 351 653 q 340 716 339 694 q 338 757 340 738 q 333 782 335 768 q 329 811 332 796 q 326 831 326 824 q 326 843 325 838 q 331 855 326 849 q 342 872 335 861 q 392 926 365 908 q 456 965 419 944 q 549 994 503 994 q 638 983 594 993 q 685 974 663 976 q 726 957 707 971 q 765 912 749 932 q 797 864 782 892 q 806 851 799 861 q 822 825 814 840 q 838 792 831 810 q 844 757 844 774 m 638 965 q 571 976 607 976 q 500 967 535 976 q 434 941 465 958 q 382 901 403 924 q 349 845 358 871 q 347 783 340 819 q 359 722 350 751 q 379 663 368 692 q 397 635 383 651 q 426 604 410 619 q 458 577 442 589 q 485 564 474 565 q 422 513 453 540 q 368 463 392 486 q 297 408 333 432 q 233 342 260 385 l 226 342 q 192 351 210 342 q 162 375 175 360 q 140 410 149 390 q 131 453 131 431 q 101 437 113 442 q 76 414 90 432 q 69 379 67 392 q 85 346 71 367 q 102 322 89 339 q 134 286 115 304 q 176 253 153 268 q 226 235 200 238 q 214 217 229 231 q 178 187 199 204 q 142 149 158 169 q 125 111 125 129 q 159 98 146 108 q 188 76 172 88 q 208 108 199 92 q 231 139 217 124 q 259 167 244 153 q 293 190 274 182 q 310 194 304 194 q 322 192 317 194 q 333 187 328 190 q 347 179 338 183 q 509 124 424 131 q 681 135 594 117 q 777 202 743 150 q 813 313 811 254 q 804 377 817 346 q 776 438 792 408 q 756 469 767 453 q 731 496 744 486 q 688 526 711 511 q 656 564 664 540 q 731 639 708 594 q 758 746 754 683 q 753 812 763 774 q 733 883 744 850 q 699 932 725 908 q 638 965 674 956 m 629 268 q 572 239 607 246 q 499 236 536 232 q 429 253 461 240 q 382 282 397 265 q 401 312 386 297 q 439 342 415 326 q 483 386 458 361 q 539 418 507 411 q 567 421 551 421 q 598 417 582 421 q 626 405 614 413 q 644 385 639 397 q 648 358 647 374 q 647 325 649 342 q 642 293 646 308 q 629 268 638 278 m 611 346 q 565 317 592 326 q 519 293 539 308 q 503 281 511 288 q 491 269 494 275 q 491 259 488 264 q 508 251 494 254 q 552 251 533 244 q 583 270 571 257 q 601 303 594 283 q 611 346 608 324 m 571 651 q 520 663 549 654 q 478 692 492 672 q 456 719 467 703 q 439 746 446 735 q 420 787 421 767 q 430 825 419 807 q 459 858 440 843 q 499 883 478 874 q 540 888 519 893 q 576 867 560 882 q 605 833 593 853 q 622 792 617 813 q 627 751 628 769 q 617 711 626 733 q 607 694 613 703 q 592 682 601 686 q 585 674 590 679 q 574 664 579 669 q 566 655 568 658 q 571 651 564 651 m 542 801 q 515 772 522 794 q 510 726 507 750 q 526 683 513 701 q 560 665 539 664 q 574 674 565 667 q 592 690 583 681 q 606 710 600 700 q 611 731 611 721 q 601 749 610 740 q 582 765 593 758 q 560 779 571 772 q 542 792 549 786 l 542 801 z "},"(":{"ha":547,"x_min":1,"x_max":503,"o":"m 360 122 q 402 161 378 146 q 442 203 426 176 q 388 227 415 218 q 333 251 360 236 q 272 301 297 271 q 231 367 246 332 q 188 469 208 411 q 157 593 167 526 q 151 660 153 624 q 153 735 150 697 q 165 808 157 772 q 189 874 174 844 q 232 917 204 901 q 290 940 260 933 q 324 949 306 947 q 353 954 343 950 q 371 983 368 963 q 375 1019 374 1004 q 328 1017 353 1018 q 279 1010 303 1015 q 233 997 256 1006 q 192 972 210 988 q 119 900 149 939 q 65 806 89 861 q 44 718 50 765 q 38 624 38 671 q 35 593 38 608 q 33 563 33 578 q 44 496 33 531 q 70 427 54 461 q 106 362 86 393 q 142 306 125 331 q 236 197 182 243 q 360 122 290 150 m 240 1028 q 264 1042 244 1038 q 307 1046 283 1046 q 353 1042 331 1046 q 388 1033 376 1039 q 399 1006 400 1018 q 394 979 397 993 q 423 972 411 972 q 440 967 435 971 q 443 950 446 963 q 426 910 440 938 q 394 878 415 886 q 349 864 374 869 q 297 851 324 858 q 250 825 271 844 q 211 750 219 794 q 207 656 203 706 q 222 557 211 606 q 240 469 232 508 q 281 370 256 418 q 344 282 307 322 q 369 264 354 271 q 400 251 385 257 q 428 240 415 246 q 449 224 442 233 q 456 205 456 214 q 457 188 457 196 q 458 170 457 179 q 467 153 458 161 q 487 135 478 142 q 499 122 496 129 q 501 105 503 115 q 488 75 499 94 q 437 15 461 29 q 368 18 413 0 q 304 40 333 33 q 244 69 275 47 q 192 113 213 90 q 158 160 172 135 q 131 213 143 185 q 107 275 119 242 q 74 360 92 318 q 38 449 57 401 q 10 547 18 494 q 4 652 1 599 q 22 758 7 706 q 68 860 38 811 q 110 912 89 886 q 153 960 131 938 q 202 1002 176 983 q 260 1033 228 1021 l 240 1028 z "},")":{"ha":549,"x_min":0,"x_max":0,"o":""},"*":{"ha":388,"x_min":6,"x_max":381,"o":"m 22 946 q 19 919 21 933 q 21 894 17 906 q 30 883 22 885 q 49 882 38 882 q 100 874 75 882 q 150 860 125 865 q 138 830 146 846 q 126 799 129 814 q 115 779 124 792 q 106 760 106 767 q 117 744 107 749 q 135 738 128 740 q 153 741 147 738 q 167 753 160 744 q 178 778 175 765 q 186 803 181 792 q 200 822 193 815 q 222 817 207 828 q 253 781 243 797 q 263 764 260 769 q 275 751 265 758 q 297 776 289 763 q 312 790 306 785 q 311 803 318 796 q 303 805 308 804 q 296 808 297 806 q 281 817 286 810 q 268 828 276 825 q 252 842 261 835 q 236 856 243 849 q 243 864 239 860 q 251 875 247 868 q 274 892 261 879 q 302 907 285 906 q 331 921 319 908 q 324 933 326 928 q 319 946 322 939 q 315 956 317 954 q 304 957 313 957 q 272 942 289 951 q 239 925 254 933 q 230 919 236 922 q 217 912 224 915 q 203 908 210 908 q 192 915 196 908 q 190 928 189 918 q 192 943 192 938 q 198 966 194 954 q 203 993 201 978 q 201 1005 203 1003 q 192 1011 200 1007 q 178 1018 188 1014 q 161 1022 169 1022 q 152 1017 153 1022 q 151 1000 151 1011 q 149 967 150 983 q 144 936 149 951 q 143 925 144 929 q 135 919 142 921 q 117 921 128 917 q 100 928 106 925 q 61 935 81 932 q 22 946 42 939 m 151 1033 q 167 1030 157 1032 q 186 1026 176 1028 q 204 1021 196 1024 q 215 1015 213 1018 q 221 1006 221 1010 q 220 1000 221 1003 q 222 995 219 997 q 233 990 224 993 q 249 983 244 988 q 253 974 253 979 q 253 963 254 969 q 251 946 251 956 q 269 950 258 943 q 288 957 281 957 q 306 965 294 960 q 319 965 317 969 q 324 959 324 964 q 331 950 325 954 q 340 950 331 950 q 356 949 350 949 q 365 943 361 949 q 374 925 368 938 q 381 906 381 913 q 374 898 379 900 q 361 894 368 896 q 347 892 354 893 q 335 889 339 890 q 319 878 326 883 q 303 864 313 872 q 288 854 296 861 q 275 842 279 847 q 292 829 285 831 q 311 817 300 828 q 324 808 314 814 q 335 799 335 803 q 330 789 335 794 q 324 781 325 783 q 338 766 329 772 q 347 751 347 760 q 336 727 349 740 q 319 707 324 714 q 310 693 313 696 q 296 690 307 690 q 272 698 281 690 q 253 715 264 706 q 239 724 247 719 q 224 731 231 728 q 216 731 213 732 q 211 726 219 731 q 199 711 204 718 q 192 693 194 704 q 178 679 183 678 q 157 686 172 681 q 126 690 140 688 q 114 708 111 692 q 120 729 118 725 q 107 742 122 733 q 99 757 96 749 q 106 775 101 765 q 115 801 108 789 q 126 826 121 814 q 99 831 117 829 q 64 835 82 832 q 31 842 46 838 q 15 853 17 846 q 17 860 15 856 q 18 867 18 864 q 16 875 18 874 q 11 882 14 876 q 6 900 7 892 q 6 919 6 908 q 7 934 6 924 q 15 949 8 944 q 31 953 21 953 q 51 950 40 953 q 73 943 63 947 q 90 936 83 939 q 98 932 92 935 q 112 927 104 929 q 126 924 119 925 q 135 925 132 922 q 138 934 136 926 q 142 951 140 942 q 144 969 143 961 q 144 982 144 978 q 144 1013 144 994 q 151 1033 143 1031 z "},"+":{"ha":653,"x_min":0,"x_max":0,"o":""},";":{"ha":379,"x_min":94,"x_max":340,"o":"m 118 538 q 110 538 113 535 q 106 545 107 540 q 106 555 104 550 q 110 563 107 560 q 133 569 121 571 q 157 563 146 567 l 193 563 q 226 563 206 564 q 258 557 246 563 q 267 548 264 554 q 271 535 269 542 q 274 521 272 528 q 283 510 276 514 q 295 506 289 506 q 306 505 301 506 q 313 501 310 504 q 319 490 317 499 q 326 451 326 472 q 331 408 326 429 q 338 366 335 386 q 319 331 340 346 q 280 317 304 318 q 236 319 256 317 q 202 319 221 319 q 168 328 183 318 q 158 337 161 332 q 153 350 156 342 q 154 364 153 354 q 153 378 156 374 q 138 382 147 385 q 121 383 128 379 q 113 392 114 388 q 113 403 113 396 q 111 442 110 424 q 110 479 113 461 q 107 497 110 486 q 107 514 104 508 q 117 521 110 518 q 129 521 125 524 q 133 510 132 518 q 135 492 135 501 q 135 474 135 483 q 135 461 135 465 q 130 431 135 450 q 131 403 125 411 q 140 398 133 399 q 151 397 147 397 q 185 394 168 393 q 217 404 203 396 q 238 423 226 413 q 253 443 249 433 q 255 464 257 453 q 253 485 253 475 q 254 499 253 490 q 256 515 256 507 q 254 531 256 524 q 247 540 253 538 q 226 544 239 544 q 206 543 213 543 q 180 543 193 543 q 151 546 167 543 q 132 551 140 549 q 121 535 124 553 l 118 538 m 147 207 q 147 185 146 196 q 146 167 147 175 q 140 149 146 157 q 131 132 135 140 q 126 107 128 121 q 121 82 125 93 q 117 63 119 74 q 112 40 114 51 q 110 16 110 28 q 113 -4 110 4 q 120 -12 114 -7 q 135 -21 126 -17 q 152 -27 143 -25 q 165 -29 161 -29 q 176 -21 172 -28 q 181 -6 179 -14 q 184 11 183 3 q 188 24 185 19 q 206 70 200 47 q 219 118 213 93 q 227 130 224 124 q 235 143 231 136 q 246 153 239 149 q 257 167 253 158 q 253 180 260 175 q 235 188 246 185 q 214 192 225 190 q 194 196 203 193 q 173 201 185 197 q 147 207 161 204 m 142 229 q 190 216 168 221 q 236 207 213 211 q 258 206 244 207 q 275 196 271 204 q 275 184 275 193 q 272 171 275 175 q 265 159 269 164 q 257 149 261 154 q 253 137 253 138 q 263 132 254 136 q 285 124 269 125 q 306 114 301 122 q 308 92 313 106 q 300 71 303 78 q 283 13 292 42 q 264 -42 275 -15 q 249 -75 260 -54 q 231 -100 239 -96 q 213 -104 222 -104 q 194 -104 203 -104 q 169 -101 185 -104 q 146 -93 154 -99 q 137 -77 133 -85 q 140 -58 140 -69 q 128 -41 140 -46 q 107 -24 115 -36 q 95 9 96 -7 q 97 44 94 25 q 108 100 97 76 q 126 156 118 124 q 128 172 128 161 q 130 195 129 183 q 133 216 131 207 q 142 229 136 225 z "},"<":{"ha":499,"x_min":26,"x_max":493,"o":"m 318 664 q 286 644 300 657 q 260 618 272 632 q 235 589 247 604 q 208 560 222 574 q 157 510 183 536 q 100 461 131 485 q 69 438 86 450 q 61 404 53 425 q 98 347 76 372 q 143 300 119 322 q 174 263 163 281 q 204 226 186 244 q 258 190 229 206 q 315 158 286 175 q 339 148 326 151 q 360 136 351 144 q 374 126 369 129 q 381 124 378 124 q 389 128 385 125 q 401 140 393 132 q 419 153 410 147 q 433 167 428 160 q 436 181 438 174 q 424 197 435 189 q 349 260 382 228 q 272 318 315 292 q 242 342 254 328 q 218 375 229 357 q 201 392 211 379 q 186 414 192 406 q 193 435 179 422 q 228 463 207 449 q 270 490 249 476 q 300 511 292 503 q 328 533 313 522 q 356 557 343 544 q 378 584 369 569 q 388 618 388 599 q 363 658 388 642 q 351 665 358 661 q 338 672 344 669 q 325 672 331 674 q 318 664 319 671 m 179 567 q 276 644 233 599 q 291 658 282 650 q 309 672 300 665 q 327 681 318 678 q 340 678 336 683 l 360 669 q 374 663 367 667 q 385 656 382 658 q 406 644 393 640 q 436 647 419 647 q 456 641 446 647 q 475 627 467 635 q 488 611 483 619 q 493 599 493 603 q 487 581 493 590 q 475 567 481 571 q 462 547 467 558 q 453 528 457 536 q 439 510 446 518 q 425 494 432 503 q 401 471 422 481 q 383 454 393 463 q 360 438 374 446 q 340 421 349 431 q 322 403 331 411 q 301 390 310 396 q 281 379 292 385 q 268 370 269 372 q 271 361 267 368 q 285 338 272 346 q 306 324 297 329 q 346 283 329 307 q 383 253 363 267 q 424 226 403 240 q 451 200 438 218 q 456 165 464 182 q 450 159 454 163 q 442 151 446 156 q 435 142 438 147 q 435 131 432 136 q 444 110 436 117 q 456 88 453 103 q 462 75 458 78 q 458 63 465 72 q 438 41 451 53 q 408 19 425 29 q 375 4 392 10 q 346 1 358 -1 q 320 18 328 6 q 304 44 313 31 q 281 76 294 64 q 254 107 268 89 q 207 150 231 136 q 151 181 183 164 q 120 208 135 193 q 90 243 106 224 q 64 267 76 260 q 54 300 51 275 q 62 313 56 306 q 72 324 68 319 q 67 338 72 328 q 56 357 63 347 q 44 375 50 367 q 33 386 38 383 q 31 410 26 399 q 47 432 36 421 q 69 453 57 443 q 90 472 82 464 q 113 501 104 489 q 131 522 122 513 q 150 542 139 532 q 179 567 161 553 z "},">":{"ha":553,"x_min":15,"x_max":551,"o":"m 200 675 q 179 659 192 668 q 157 640 167 650 q 144 619 147 631 q 149 597 140 608 q 185 565 158 575 q 213 536 200 551 q 238 508 225 521 q 271 460 258 488 q 303 413 283 433 q 313 395 308 400 q 303 374 317 390 q 257 336 282 353 q 229 307 242 324 q 206 279 217 290 q 135 238 171 256 q 67 194 100 219 q 55 185 64 192 q 46 174 46 178 q 53 163 46 169 q 68 148 60 156 q 85 134 76 140 q 99 125 94 128 q 108 115 106 118 q 112 113 110 113 q 116 115 114 113 q 125 119 118 117 q 147 134 136 126 q 169 149 158 142 q 206 165 190 158 q 238 185 221 172 q 278 219 258 200 q 322 256 297 239 q 368 285 344 274 q 417 313 392 296 q 426 317 419 313 q 440 326 433 321 q 453 338 447 332 q 460 347 458 343 q 459 373 465 357 q 442 406 453 389 q 420 437 432 422 q 403 458 408 451 q 374 501 388 479 q 336 547 360 524 q 299 578 317 564 q 265 613 281 593 q 239 638 250 631 q 208 661 228 646 l 200 675 m 24 163 q 27 188 15 179 q 53 206 39 197 q 83 232 69 219 q 117 256 97 244 q 133 269 124 261 q 153 283 143 276 q 189 301 164 289 q 238 331 214 314 q 276 367 261 347 q 281 408 290 388 q 253 452 272 429 q 215 494 235 475 q 180 531 196 514 q 160 556 164 547 q 136 585 146 571 q 132 626 126 600 q 152 657 135 643 q 188 678 169 671 q 203 678 197 681 q 215 674 210 676 q 228 669 221 671 q 246 669 235 667 q 265 680 261 676 q 286 675 268 683 q 331 637 313 660 q 367 592 349 614 q 401 559 383 574 q 435 529 418 544 q 465 497 451 514 q 485 458 478 481 q 515 406 496 428 q 542 360 535 385 q 535 319 551 336 q 501 286 518 301 q 460 243 481 264 q 411 206 439 222 q 342 155 375 183 q 271 104 310 126 q 215 75 243 88 q 160 44 188 63 q 119 32 133 28 q 81 60 104 36 q 71 74 76 67 q 60 89 65 82 q 53 100 54 97 q 52 103 51 103 q 55 106 53 104 q 60 117 57 108 q 63 127 63 126 q 53 136 64 128 q 40 150 47 146 q 31 161 33 154 l 24 163 z "},"?":{"ha":588,"x_min":0,"x_max":0,"o":""},"":{"ha":963,"x_min":-1,"x_max":956,"o":"m 250 338 q 258 301 257 317 q 272 267 260 285 q 310 215 293 243 q 356 168 328 188 q 416 128 381 147 q 482 99 451 110 q 506 89 493 92 q 535 79 519 86 q 556 73 546 74 q 581 72 567 72 q 614 67 601 65 q 640 72 626 69 q 692 88 665 78 q 738 114 718 99 q 807 159 772 133 q 868 221 842 185 q 849 251 861 236 q 821 275 836 265 q 808 254 814 263 q 790 236 801 246 q 757 219 778 225 q 719 204 736 213 q 628 190 672 193 q 538 204 585 186 q 519 213 529 210 q 500 217 508 215 q 486 228 493 219 q 469 244 479 238 q 440 274 451 258 q 424 310 428 290 q 416 335 422 322 q 403 362 410 349 q 394 388 397 375 q 393 410 390 400 q 409 426 394 422 q 441 429 424 429 q 476 427 458 429 q 504 426 494 425 l 567 426 q 607 429 586 426 q 647 432 628 432 q 761 432 703 426 q 792 433 781 432 q 796 460 803 435 q 794 481 793 471 q 794 497 794 490 q 789 508 793 504 q 774 513 785 513 q 721 509 746 510 q 664 506 696 508 q 582 499 624 503 q 500 501 540 496 q 460 499 481 504 q 419 494 439 494 q 404 493 413 494 q 389 494 396 492 q 385 515 386 506 q 385 536 385 525 q 377 556 385 550 q 369 575 369 563 q 383 610 369 600 q 419 617 396 619 q 464 618 443 614 q 504 621 485 622 q 602 609 553 618 q 699 590 651 600 q 736 586 722 583 q 757 613 750 589 q 758 656 760 636 q 757 701 757 675 q 715 708 733 707 q 674 713 697 710 q 616 713 644 713 q 563 721 588 714 q 523 727 542 726 q 482 728 504 728 q 451 732 467 728 q 419 739 435 736 q 405 747 408 742 q 402 758 401 751 q 407 773 403 765 q 415 790 411 781 q 457 860 431 828 q 524 908 483 892 q 560 922 540 915 q 600 929 579 928 q 640 927 621 931 q 674 913 658 924 q 706 880 689 900 q 731 844 722 860 q 744 851 733 844 q 766 867 754 858 q 788 882 778 875 q 800 890 799 889 q 794 907 801 894 q 777 933 788 919 q 756 957 767 946 q 742 971 746 968 q 698 997 722 988 q 651 1013 674 1006 q 554 1019 599 1022 q 457 1001 510 1017 q 406 977 429 992 q 365 939 383 963 q 348 920 357 928 q 331 904 339 913 q 315 886 322 896 q 304 861 308 876 q 291 824 299 840 q 276 786 283 807 q 272 765 274 776 q 263 747 269 754 q 236 738 254 740 q 199 734 218 735 q 160 734 179 733 q 129 735 142 735 q 103 735 118 735 q 74 735 89 736 q 45 728 58 733 q 24 713 32 724 q 22 694 22 708 q 21 665 21 681 q 23 635 21 649 q 28 617 25 621 q 51 606 36 607 q 81 610 65 606 q 110 619 96 614 q 136 626 125 625 q 159 628 146 629 q 186 627 172 628 q 213 628 200 626 q 235 639 226 631 q 240 617 239 631 q 238 588 240 603 q 233 558 236 572 q 229 536 231 544 q 211 519 218 517 q 182 521 204 521 q 146 519 168 519 q 102 517 124 519 q 64 508 81 515 q 44 486 47 501 q 65 447 40 457 q 123 435 89 436 q 192 438 157 435 q 243 440 226 442 q 248 416 247 429 q 247 390 249 403 q 246 363 246 376 q 250 338 246 350 m 847 904 q 847 884 851 894 q 832 865 842 874 q 809 847 822 856 q 783 832 796 839 q 760 826 771 825 q 738 834 749 828 q 717 849 728 840 q 694 865 707 858 q 667 875 683 875 q 635 871 651 875 q 601 861 618 867 q 568 854 583 856 q 546 843 558 853 q 522 820 533 833 q 503 792 511 807 q 496 765 496 778 q 525 744 496 751 q 592 732 554 736 q 665 726 629 728 q 711 724 700 725 q 733 724 722 722 q 753 726 744 726 q 769 722 763 726 q 779 706 775 718 q 781 689 782 699 q 783 675 781 679 q 803 670 789 668 q 821 664 817 672 q 827 643 825 658 q 829 610 829 628 q 826 578 829 593 q 819 558 824 563 q 802 553 815 554 q 774 550 789 551 q 746 549 760 549 q 726 549 732 549 q 647 545 686 546 q 568 544 608 544 q 508 549 543 544 q 450 549 474 553 q 435 539 439 546 q 446 521 431 532 q 460 515 450 517 q 481 511 469 513 q 503 510 493 510 q 519 510 514 510 q 590 515 553 513 q 667 520 628 518 q 742 522 706 522 q 811 517 779 521 q 816 512 814 517 q 819 501 818 507 q 820 489 819 494 q 821 482 821 483 q 850 461 840 471 q 858 426 860 451 q 857 397 858 407 q 849 383 856 388 q 832 376 843 378 q 800 371 821 374 q 694 358 740 360 q 609 357 647 356 q 540 360 571 358 q 478 360 508 363 q 432 342 433 357 q 454 299 431 328 q 486 264 469 281 q 524 232 503 247 q 549 222 533 225 q 580 216 564 218 q 610 211 596 214 q 636 204 625 208 q 708 210 669 200 q 778 236 747 221 q 804 263 792 249 q 817 275 813 271 q 824 281 821 279 q 832 281 828 282 q 846 279 836 281 q 861 268 856 279 q 875 257 867 257 q 890 266 882 257 q 904 275 897 275 q 925 278 924 278 q 938 267 926 279 q 955 231 954 251 q 947 191 956 211 q 923 151 939 171 q 889 115 907 131 q 834 65 857 94 q 779 18 811 36 q 730 -2 756 7 q 681 -12 704 -11 q 565 -10 626 -15 q 450 18 503 -6 q 415 40 425 29 q 397 63 404 50 q 378 89 389 75 q 343 122 368 103 q 318 148 331 132 q 295 183 306 164 q 276 220 285 201 q 263 253 268 239 q 253 276 258 261 q 243 308 249 292 q 232 338 238 324 q 218 356 226 351 q 194 360 211 360 q 159 358 178 360 q 123 354 140 356 q 97 356 106 353 q 76 366 79 363 q 74 385 74 369 q 74 403 71 394 q 69 422 76 413 q 53 435 63 431 q 37 446 44 440 q 26 460 29 451 q 28 486 22 469 q 42 506 32 499 q 63 519 51 514 q 88 526 75 524 q 113 532 101 529 q 147 534 131 535 q 182 536 164 533 q 215 547 206 543 q 225 575 225 551 q 174 576 197 575 q 128 571 151 578 q 78 560 104 564 q 28 567 51 557 q 27 581 28 574 q 24 594 26 588 q 10 617 19 608 q 1 643 1 626 q 0 663 -1 651 q 1 681 1 674 q 2 708 1 700 q 18 724 3 715 q 50 738 29 731 q 86 747 71 744 q 116 749 103 750 q 146 747 129 747 q 171 747 156 747 q 201 747 186 746 q 231 751 217 749 q 250 760 244 753 q 262 776 258 765 q 267 800 265 788 q 271 825 269 813 q 276 846 272 838 q 290 872 285 860 q 299 894 294 883 q 308 915 303 904 q 324 935 314 925 q 379 978 351 963 q 436 1004 407 993 q 479 1023 461 1017 q 526 1029 497 1029 q 541 1033 538 1029 q 554 1035 544 1038 q 585 1031 571 1031 q 621 1031 600 1031 q 681 1022 653 1029 q 738 993 708 1014 q 763 978 746 989 q 798 953 781 967 q 829 926 815 939 q 847 904 843 913 z "},"":{"ha":501,"x_min":40,"x_max":476,"o":"m 347 979 q 285 1006 324 999 q 206 1010 246 1014 q 131 990 165 1006 q 79 944 96 974 q 66 880 67 919 q 75 799 65 840 q 103 723 85 758 q 150 671 122 688 q 223 649 186 651 q 291 658 260 646 q 345 696 322 671 q 375 757 368 721 q 388 801 379 778 q 397 850 396 825 q 400 886 401 874 q 392 907 399 899 q 375 923 386 915 q 347 944 364 931 q 338 962 336 954 q 347 979 340 969 m 375 968 q 415 938 397 949 q 456 908 432 926 q 470 880 468 896 q 472 844 472 864 q 468 740 476 793 q 422 650 460 688 q 339 601 385 614 q 247 586 293 589 q 216 590 233 586 q 183 603 199 594 q 153 623 167 611 q 135 651 140 635 q 131 667 129 663 q 122 681 132 672 q 112 691 117 686 q 101 703 107 696 q 79 732 90 718 q 65 764 68 746 q 56 800 61 785 q 46 829 50 815 q 41 859 42 843 q 46 896 40 875 q 65 953 51 924 q 106 999 78 983 q 151 1019 131 1010 q 197 1028 172 1028 l 275 1028 q 292 1024 282 1025 q 310 1021 301 1024 q 319 1015 315 1018 q 328 1011 324 1013 q 351 991 339 1001 q 375 968 364 981 m 193 986 q 215 988 208 992 q 233 978 222 983 q 266 967 251 969 q 296 953 281 964 q 338 919 319 944 q 364 871 356 893 q 367 835 369 856 q 357 795 365 815 q 336 758 349 775 q 310 732 324 742 q 240 708 279 710 q 168 717 200 707 q 119 750 138 726 q 92 804 100 774 q 87 867 83 835 q 103 926 90 900 q 138 970 115 953 q 193 986 161 988 m 135 764 q 161 741 144 749 q 198 731 178 733 q 237 729 218 728 q 269 733 256 731 q 329 765 306 739 q 353 831 353 792 q 335 876 349 853 q 306 915 321 899 q 279 938 290 931 q 256 947 268 946 q 228 947 243 949 q 193 942 214 944 q 172 933 185 942 q 150 915 158 924 q 138 894 143 910 q 132 868 132 878 q 119 815 121 839 q 135 764 117 792 m 257 896 q 194 876 217 893 q 182 819 171 858 q 201 794 186 799 q 232 794 217 789 q 256 810 247 799 q 257 833 265 821 q 232 832 242 822 q 228 853 222 842 q 241 865 232 867 q 257 871 250 863 q 258 883 258 872 q 257 896 257 893 m 228 908 q 251 910 239 910 q 272 906 263 910 q 284 893 281 901 q 283 871 288 885 q 276 857 281 861 q 269 850 271 853 q 271 845 267 847 q 289 838 275 843 q 308 819 306 829 q 303 799 310 810 q 285 781 297 789 q 258 768 272 772 q 201 772 228 760 q 161 811 175 783 q 156 847 154 828 q 171 881 157 865 q 183 894 176 890 q 197 900 190 899 q 212 903 204 901 q 228 908 219 904 z "},"":{"ha":517,"x_min":25,"x_max":494,"o":"m 40 1013 q 40 997 40 1006 q 46 986 39 988 q 72 986 57 982 q 99 988 88 990 q 110 983 108 986 q 114 969 111 979 q 119 955 115 963 q 128 938 122 947 q 133 917 132 926 q 133 896 133 907 q 140 884 133 885 q 154 890 147 883 q 163 912 164 897 q 156 938 161 926 q 148 956 153 944 q 150 972 143 967 q 174 978 160 979 q 199 981 188 978 q 206 988 206 982 q 206 997 207 990 q 203 1007 206 1004 q 194 1010 200 1010 q 181 1011 188 1011 q 153 1010 167 1011 q 124 1007 139 1008 q 110 1010 117 1007 q 94 1015 104 1013 q 77 1017 86 1015 q 60 1018 68 1018 q 42 1018 50 1024 q 33 1017 36 1018 q 35 1013 32 1014 q 40 1013 38 1013 m 56 1022 q 74 1022 65 1022 q 90 1021 82 1022 q 106 1015 99 1018 q 119 1013 113 1013 q 134 1015 126 1013 q 149 1017 142 1017 q 173 1017 160 1017 q 199 1015 186 1018 q 209 1010 206 1013 q 213 1000 213 1008 q 214 995 215 997 q 215 990 213 993 q 225 978 217 986 q 230 963 231 971 q 221 947 229 954 q 206 944 213 940 q 197 938 200 949 q 194 919 194 931 q 192 894 193 907 q 185 872 190 882 q 171 861 181 863 q 162 861 168 861 q 154 864 156 861 q 149 867 150 865 q 146 872 149 869 q 146 878 144 876 q 140 882 147 879 l 132 882 q 127 892 126 885 q 128 904 128 900 q 124 918 125 913 q 121 931 124 924 q 116 937 118 938 q 111 943 114 936 q 104 956 107 954 q 89 956 101 957 q 72 960 82 956 q 54 968 61 965 q 47 976 50 971 q 42 985 44 982 q 28 1001 32 992 q 32 1018 25 1010 q 43 1024 36 1025 q 56 1022 50 1022 m 258 1000 q 253 974 251 989 q 258 946 256 960 q 260 933 258 942 q 265 918 261 925 q 273 908 268 911 q 286 908 278 904 q 291 914 292 911 q 290 922 290 917 q 292 934 290 929 q 293 943 293 939 q 293 954 293 950 q 294 965 293 958 q 297 978 297 972 q 304 982 297 985 q 312 978 310 981 q 317 969 314 975 q 324 955 319 963 q 333 939 329 947 q 338 930 336 935 q 342 921 339 925 q 344 914 343 919 q 346 907 346 908 q 358 907 350 903 q 374 913 369 910 q 381 926 378 915 q 381 938 381 931 q 383 953 382 946 q 388 967 385 961 q 397 972 390 972 q 410 952 406 969 q 417 926 415 935 q 420 917 419 924 q 424 907 421 910 q 435 906 426 904 q 447 908 444 908 q 460 919 463 911 q 451 939 457 928 q 442 967 447 954 q 429 994 436 981 q 427 1003 428 999 q 421 1011 426 1008 q 407 1022 418 1015 q 390 1029 396 1029 q 377 1014 383 1026 q 368 994 371 1001 q 360 977 365 989 q 347 968 356 965 q 342 973 346 968 q 335 984 339 978 q 329 996 332 990 q 325 1003 326 1001 q 306 1025 315 1014 q 281 1029 296 1036 q 268 1017 274 1026 q 260 1000 263 1007 l 258 1000 m 317 874 q 311 871 315 871 q 303 875 308 871 q 290 890 297 879 q 276 897 286 897 q 263 904 267 897 q 258 921 257 911 q 256 938 258 931 q 252 957 254 949 q 247 976 250 965 q 252 1003 247 988 q 267 1025 257 1018 q 299 1039 281 1036 q 328 1022 317 1042 q 335 1002 331 1015 q 346 986 339 989 q 359 994 353 982 q 369 1013 365 1006 q 379 1027 375 1022 q 393 1035 383 1032 q 409 1031 404 1038 q 424 1018 414 1025 q 436 1015 428 1015 q 451 1008 444 1014 q 461 994 458 1001 q 465 978 464 988 q 472 958 468 967 q 482 938 475 949 q 488 926 485 932 q 492 913 492 919 q 494 898 494 903 q 486 889 493 893 q 475 885 482 886 q 464 882 468 885 q 451 884 454 882 q 446 890 449 886 q 440 895 443 892 q 435 900 438 899 q 429 901 432 903 q 424 900 426 900 q 411 910 415 903 q 404 922 407 917 q 401 935 401 929 q 399 946 400 940 q 398 928 397 938 q 399 913 399 919 q 399 901 399 910 q 397 890 400 893 q 380 885 394 886 q 360 886 365 883 q 358 892 357 889 q 356 896 358 894 q 351 900 354 899 l 343 900 l 338 911 q 330 921 333 915 q 324 933 326 926 q 318 947 321 940 q 311 960 315 954 q 308 945 308 953 q 308 931 308 938 q 318 913 311 919 q 328 894 325 906 q 317 874 331 881 z "},"":{"ha":675,"x_min":33,"x_max":633,"o":"m 333 390 q 347 401 338 399 q 366 404 356 404 q 388 404 376 404 q 406 406 399 404 q 427 405 415 407 q 450 400 439 403 q 471 397 461 397 q 486 406 481 397 q 492 423 493 410 q 494 442 492 436 q 497 466 496 458 q 496 488 499 474 q 478 492 496 490 q 435 497 460 494 q 388 499 411 499 q 353 500 364 500 q 352 530 350 508 q 361 560 354 551 q 374 567 365 565 q 392 569 382 569 q 413 569 403 569 q 428 568 422 568 q 469 567 446 568 q 504 583 493 565 q 509 608 511 590 q 507 636 507 625 q 440 635 474 636 q 371 636 407 633 q 383 656 374 647 q 397 678 392 665 q 415 710 410 693 q 424 744 419 726 q 455 793 439 775 q 496 838 471 811 q 524 864 508 849 q 553 898 539 879 q 578 936 567 917 q 592 975 589 956 q 546 978 568 975 q 500 985 524 982 q 483 955 496 971 q 463 928 469 939 q 424 881 444 906 q 379 838 403 857 q 342 795 357 819 q 308 750 328 771 q 281 739 288 735 q 261 761 275 743 q 246 789 254 775 q 228 818 238 803 q 200 888 213 853 q 171 951 188 922 q 150 989 160 972 q 131 1024 140 1006 q 109 1038 122 1035 q 84 1038 96 1042 q 63 1024 72 1033 q 54 1000 54 1014 q 63 982 54 992 q 79 964 72 972 q 92 928 88 946 q 100 890 96 910 q 133 815 117 854 q 171 738 150 776 q 183 719 175 729 q 198 699 190 710 q 212 676 206 688 q 219 656 218 665 q 219 638 224 643 q 205 631 215 632 q 182 632 194 631 q 157 633 169 633 q 113 635 132 633 q 83 613 94 636 q 81 578 74 590 q 107 558 89 565 q 134 551 115 554 q 173 547 153 549 q 210 547 193 546 q 233 551 226 547 q 233 513 233 526 q 211 488 233 499 q 175 485 197 485 q 140 483 153 486 q 110 484 129 483 q 76 482 92 485 q 56 472 61 479 q 67 447 50 464 q 91 429 75 435 q 124 421 107 424 q 159 417 142 418 q 189 411 176 415 q 213 405 206 407 q 222 397 219 403 q 224 383 224 392 q 228 358 225 375 q 229 269 228 313 q 240 185 231 226 q 244 146 240 169 q 256 101 247 122 q 279 69 264 81 q 321 67 294 58 q 349 103 343 74 q 352 169 354 133 q 344 238 350 204 q 338 288 339 271 q 336 309 338 294 q 333 340 335 324 q 331 369 332 356 q 333 390 331 383 m 233 975 q 270 906 257 943 q 304 838 283 869 q 309 826 308 831 q 311 819 310 821 q 316 817 313 817 q 329 818 319 817 q 352 835 340 821 q 371 856 364 849 q 409 894 389 875 q 447 936 429 913 q 461 955 456 944 q 472 976 467 965 q 483 994 476 986 q 500 1004 489 1001 q 522 1006 507 1007 q 554 1002 538 1006 q 585 993 571 999 q 604 979 600 988 q 603 963 606 972 q 600 943 600 953 q 609 921 601 932 q 623 899 617 910 q 631 875 629 888 q 625 847 633 863 q 613 827 621 836 q 595 810 604 818 q 577 792 586 801 q 564 771 568 783 q 550 742 556 758 q 531 713 544 726 q 515 698 526 706 q 492 683 504 690 q 471 669 481 676 q 460 656 461 663 q 493 649 476 649 q 523 647 510 649 q 544 636 536 644 q 553 603 553 628 q 557 577 553 588 q 563 560 561 567 q 563 548 565 553 q 547 540 561 543 q 492 532 521 536 q 438 531 464 528 q 406 533 424 531 q 379 531 388 535 q 376 520 375 524 q 383 515 378 517 q 394 513 388 514 q 403 511 400 513 q 442 508 422 503 q 482 503 461 513 q 516 490 507 492 q 528 474 525 489 q 533 431 531 449 q 535 399 536 413 q 530 376 535 386 q 515 354 525 365 q 465 324 490 326 q 406 325 440 322 q 417 241 415 285 q 424 154 419 197 q 422 101 426 135 q 414 43 418 67 q 407 29 410 33 q 400 24 404 25 q 388 22 396 22 q 367 18 381 21 q 338 14 354 18 q 310 13 322 10 q 296 20 300 17 q 290 28 292 24 q 286 36 288 32 q 281 47 285 40 q 266 70 274 60 q 252 91 258 81 q 241 113 246 101 q 232 143 236 125 q 220 197 225 168 q 208 253 215 225 q 206 272 206 263 q 207 291 207 282 q 206 308 207 300 q 197 321 204 315 q 172 333 185 331 q 144 336 158 335 q 118 341 131 338 q 94 358 106 344 q 92 370 93 361 q 88 389 90 379 q 84 408 86 399 q 79 421 82 417 q 69 431 76 426 q 56 441 63 436 q 47 451 50 446 q 46 464 43 457 q 65 491 47 482 q 94 500 83 500 q 120 498 101 500 q 158 494 139 496 q 192 496 178 493 q 204 507 207 499 q 144 510 168 510 q 83 518 119 510 q 82 540 86 528 q 75 560 78 551 q 73 588 75 575 q 71 613 71 601 q 85 640 72 633 q 117 647 99 647 q 156 642 136 646 q 189 640 175 639 q 185 681 193 660 q 166 723 178 703 q 140 762 154 743 q 118 794 126 781 q 110 826 111 810 q 100 856 110 842 q 93 869 96 864 q 87 878 90 874 q 81 890 83 883 q 75 908 78 896 q 54 963 68 938 q 33 1024 40 988 q 49 1038 43 1033 q 62 1044 56 1042 q 74 1048 68 1046 q 90 1054 81 1050 q 108 1055 103 1057 q 124 1050 113 1053 q 141 1021 131 1031 q 175 1004 151 1011 q 208 995 194 999 q 233 975 221 992 z "},"":{"ha":426,"x_min":24,"x_max":424,"o":"m 307 990 q 248 1014 283 1007 q 176 1017 213 1021 q 107 998 139 1013 q 58 957 75 983 q 45 898 46 933 q 53 826 44 863 q 81 757 63 789 q 125 711 100 725 q 189 689 156 692 q 251 697 222 686 q 302 730 281 707 q 331 783 324 753 q 341 828 335 807 q 350 868 347 849 q 351 903 353 890 q 342 923 349 915 q 326 938 336 931 q 303 957 317 944 q 307 990 283 972 m 331 979 q 366 950 350 960 q 403 921 382 940 q 415 897 414 908 q 418 868 415 885 q 415 770 424 819 q 371 689 406 721 q 297 645 339 657 q 214 631 254 633 q 183 635 200 631 q 151 647 167 639 q 124 665 136 654 q 107 692 111 676 q 105 705 104 701 q 100 715 106 708 q 89 724 94 721 q 76 733 83 726 q 58 761 68 749 q 43 790 49 774 q 36 824 40 810 q 28 852 32 839 q 24 880 25 865 q 29 914 24 894 q 46 967 36 939 q 83 1007 56 994 q 125 1024 104 1015 q 168 1033 146 1033 l 236 1033 q 252 1030 244 1031 q 268 1026 260 1029 q 276 1023 274 1025 q 285 1018 279 1021 q 307 1001 296 1011 q 331 979 318 990 m 165 997 q 183 997 178 1001 q 200 989 189 992 q 228 979 214 982 q 257 965 242 976 q 294 933 276 957 q 321 886 311 910 q 324 853 326 871 q 313 819 321 836 q 293 786 306 801 q 268 761 281 771 q 206 742 244 743 q 142 750 168 740 q 78 803 97 763 q 64 887 60 843 q 94 965 68 931 q 165 997 119 999 m 107 793 q 133 772 117 779 q 167 763 149 765 q 204 762 186 761 q 236 765 222 763 q 287 795 265 771 q 307 854 308 819 q 292 895 307 874 q 267 932 278 917 q 243 952 254 946 q 220 960 232 958 q 195 960 208 963 q 165 954 182 958 q 145 947 157 954 q 122 932 133 940 q 113 911 119 925 q 104 886 107 897 q 95 840 97 858 q 107 793 93 821 m 136 800 q 153 802 144 803 q 168 804 161 801 q 164 827 168 815 q 161 847 160 839 q 170 853 164 857 q 183 844 176 849 q 197 829 190 838 q 211 818 204 821 q 231 814 218 813 q 254 818 244 815 q 243 835 251 828 q 225 850 235 843 q 206 863 215 857 q 190 878 196 869 q 208 892 201 878 q 211 918 214 907 q 192 936 208 933 q 161 936 176 939 q 135 924 139 933 q 132 896 132 915 q 133 847 129 871 q 136 800 136 824 m 203 939 q 215 938 210 940 q 226 929 221 935 q 236 911 232 924 q 234 891 239 903 q 232 872 229 879 q 244 851 232 861 q 264 832 257 842 q 275 812 271 821 q 268 800 279 803 q 248 794 257 793 q 229 800 239 794 q 199 817 215 808 q 172 842 183 826 q 179 823 175 835 q 186 801 183 811 q 172 775 196 778 q 157 776 160 775 q 151 785 151 779 q 147 793 150 790 q 141 792 143 794 q 136 793 139 790 q 128 813 131 799 q 126 844 126 828 q 125 877 125 861 q 125 903 125 893 q 125 920 125 911 q 136 936 125 929 q 169 944 147 944 q 203 939 190 944 m 160 918 q 178 917 167 918 q 190 908 190 915 q 178 892 190 899 q 160 886 167 886 l 160 918 m 165 893 q 169 896 167 894 q 176 899 172 897 q 180 903 179 901 q 178 904 181 904 q 171 903 174 907 q 168 893 168 899 l 165 893 z "},"":{"ha":303,"x_min":31,"x_max":276,"o":"m 114 1272 q 151 1247 132 1261 q 175 1206 171 1233 q 167 1175 178 1188 q 138 1163 157 1163 q 106 1173 121 1163 q 88 1200 90 1183 q 90 1242 85 1222 q 114 1272 94 1263 m 265 1171 q 251 1129 264 1147 q 214 1092 238 1106 q 203 1085 207 1089 q 192 1075 199 1081 q 163 1071 181 1071 q 132 1069 146 1071 q 128 1072 136 1069 q 108 1078 119 1075 q 90 1082 97 1081 q 88 1082 82 1083 q 70 1097 74 1089 q 67 1115 67 1106 q 68 1131 67 1124 q 64 1144 69 1139 q 35 1197 40 1168 q 33 1264 31 1226 q 51 1299 33 1279 q 83 1321 68 1318 q 106 1326 97 1325 q 124 1326 115 1326 q 140 1324 132 1326 q 163 1319 149 1322 q 170 1318 167 1318 q 176 1318 174 1318 q 185 1311 183 1315 q 190 1306 188 1307 q 206 1290 197 1299 q 218 1276 215 1281 q 234 1277 226 1272 q 247 1276 242 1282 q 270 1249 264 1264 q 276 1223 276 1233 q 274 1212 276 1213 q 274 1228 272 1211 q 273 1228 274 1233 q 270 1212 272 1222 q 267 1189 268 1201 q 265 1171 265 1176 m 211 1242 q 197 1268 207 1254 q 186 1296 186 1282 q 165 1299 176 1300 q 144 1303 154 1299 q 128 1311 136 1306 q 114 1318 119 1317 q 101 1310 104 1318 q 88 1301 99 1303 q 57 1276 68 1297 q 46 1235 46 1254 q 47 1199 44 1213 q 63 1169 50 1185 q 78 1148 72 1153 q 103 1135 85 1143 q 159 1133 129 1121 q 200 1172 189 1144 q 209 1206 204 1188 q 211 1242 214 1225 z "},"":{"ha":432,"x_min":10,"x_max":435,"o":"m 119 1054 q 140 1048 128 1051 q 165 1039 153 1044 q 185 1025 176 1033 q 197 1007 194 1017 q 198 994 199 1001 q 197 981 197 988 q 199 968 197 974 q 211 961 201 963 q 220 985 217 971 q 229 1011 224 999 q 245 1031 235 1024 q 275 1033 256 1039 q 303 1017 289 1028 q 326 1003 317 1007 q 353 992 342 996 q 372 974 365 989 q 375 962 375 965 q 386 951 375 958 q 405 949 393 949 q 424 943 417 949 q 433 922 431 936 q 435 899 435 907 q 419 856 431 878 q 397 814 408 833 q 376 742 386 781 q 360 709 371 718 q 325 699 349 700 q 306 699 318 699 q 283 701 294 700 q 261 706 271 703 q 247 713 251 708 q 242 723 243 717 q 243 736 242 729 q 247 749 244 743 q 247 758 249 754 q 238 770 243 768 q 226 774 232 772 q 213 776 219 775 q 204 785 207 778 q 192 769 197 778 q 181 750 186 760 q 169 731 175 740 q 154 717 163 722 q 119 715 139 707 q 81 724 99 722 q 63 724 74 724 q 40 727 51 725 q 22 734 29 729 q 13 749 14 739 q 16 772 10 756 q 25 796 22 788 q 27 809 26 806 q 27 815 28 813 q 23 818 26 817 q 15 826 19 819 q 14 849 11 836 q 22 874 17 861 q 35 898 28 886 q 44 918 42 910 q 74 990 58 956 q 119 1054 90 1025 m 119 1029 q 99 1006 107 1021 q 85 975 92 992 q 74 942 79 958 q 63 913 69 925 q 51 889 58 897 q 38 871 43 881 q 34 846 26 851 q 61 839 42 840 q 92 829 72 836 q 119 825 113 822 q 135 843 128 829 q 149 874 143 857 q 160 908 156 892 q 164 931 164 924 q 174 977 171 958 q 157 1015 178 996 q 139 1027 147 1022 q 119 1029 131 1032 m 281 1003 q 261 980 269 994 q 247 949 253 965 q 237 915 242 932 q 228 888 232 899 q 217 866 219 875 q 213 844 215 857 q 214 824 211 833 q 236 810 217 815 q 260 803 249 808 q 281 803 272 797 q 296 820 289 806 q 309 852 303 835 q 319 885 315 869 q 325 907 324 901 q 331 932 328 921 q 335 953 335 943 q 331 972 335 963 q 315 993 326 982 q 300 1003 308 999 q 281 1003 292 1007 z "},"":{"ha":401,"x_min":29,"x_max":390,"o":"m 390 851 q 375 819 383 828 q 357 809 367 810 q 337 813 347 808 q 318 821 326 818 q 308 826 313 822 q 299 835 304 831 q 290 840 294 839 q 279 836 285 840 q 290 817 282 828 q 305 797 299 807 q 310 775 311 786 q 296 753 310 764 q 272 742 285 746 q 249 733 258 739 q 227 722 235 728 q 207 718 219 717 q 197 722 200 721 q 185 719 194 724 q 172 707 178 715 q 158 699 165 699 q 139 702 150 696 q 122 713 128 708 q 101 745 110 726 q 83 782 92 764 q 65 808 75 796 q 44 833 54 821 q 30 861 31 849 q 40 892 29 874 q 63 917 47 900 q 90 936 79 935 q 108 927 101 939 q 122 913 115 915 q 135 913 131 910 q 143 920 139 917 q 151 926 147 924 q 161 928 154 929 q 149 965 160 946 q 139 999 138 983 q 157 1024 142 1014 q 183 1044 172 1033 q 193 1058 188 1050 q 206 1072 199 1065 q 219 1081 213 1078 q 233 1081 226 1085 q 248 1065 240 1078 q 261 1046 256 1053 q 272 1036 271 1035 q 288 1039 274 1038 q 303 1029 296 1038 q 315 1010 310 1021 q 326 989 321 1000 q 335 971 331 978 q 369 914 354 943 q 390 851 385 885 m 374 864 q 365 897 371 883 q 350 922 358 911 q 334 941 342 932 q 321 960 326 950 q 311 981 314 971 q 304 1001 308 992 q 290 1016 297 1018 q 271 1001 282 1014 q 249 984 264 994 q 232 968 235 974 q 235 947 229 960 q 251 922 242 935 q 269 898 260 908 q 282 883 278 888 q 309 851 297 864 q 344 846 321 839 q 362 851 354 849 q 374 864 369 854 m 274 767 q 252 817 272 790 q 221 863 232 843 q 210 878 215 874 q 199 893 206 883 q 183 903 192 900 q 163 894 175 906 q 146 881 156 888 q 136 868 136 875 q 140 849 133 861 q 154 823 146 836 q 172 799 163 810 q 185 783 181 788 q 210 754 200 765 q 247 749 219 743 q 263 753 254 750 q 274 767 271 756 z "},"":{"ha":667,"x_min":49,"x_max":632,"o":"m 60 165 q 49 172 50 161 q 54 185 49 182 q 72 190 63 192 q 89 185 82 188 l 117 185 q 142 185 126 186 q 168 181 158 185 q 178 163 178 175 q 188 144 178 151 q 204 140 197 138 q 215 131 211 142 q 219 98 219 115 q 222 65 219 81 q 228 33 226 50 q 215 6 231 17 q 185 -4 204 -4 q 150 -1 165 -4 q 124 -2 139 -1 q 99 4 110 -3 q 91 11 93 8 q 88 21 89 14 q 88 32 88 24 q 88 43 89 40 q 74 46 82 49 q 61 46 67 43 q 56 61 56 51 q 55 92 54 78 q 54 121 56 106 q 51 134 54 125 q 51 146 49 143 q 60 152 54 150 q 68 153 65 154 q 74 130 74 147 q 74 106 74 113 q 70 83 74 97 q 69 61 67 68 q 77 58 72 58 q 86 58 82 58 q 136 64 113 49 q 152 78 143 71 q 164 93 161 86 q 165 108 167 100 q 164 125 164 117 q 165 135 164 129 q 165 149 165 142 q 165 160 165 156 q 160 167 164 165 q 143 171 153 171 q 128 171 133 171 q 108 171 118 171 q 86 172 97 171 q 71 176 78 174 q 61 164 64 178 l 60 165 m 303 153 q 293 151 299 154 q 281 149 286 151 q 278 139 278 146 q 279 128 279 132 q 280 119 281 122 q 279 111 279 115 q 286 76 279 90 q 292 62 289 69 q 303 53 296 54 q 320 49 313 51 q 333 44 328 47 q 347 44 340 42 q 360 50 353 47 q 374 49 367 51 q 381 58 381 47 q 378 65 381 63 q 372 71 375 68 q 368 77 369 74 q 369 85 367 81 q 374 92 374 89 q 376 98 376 94 q 376 104 376 101 q 374 119 376 111 q 369 133 372 126 q 362 151 368 144 q 342 153 356 158 q 340 152 340 153 q 336 151 339 151 q 329 152 333 151 q 321 153 325 153 l 303 153 m 388 140 q 388 138 386 139 q 393 135 388 132 q 399 140 397 138 q 407 139 401 143 q 412 125 411 135 q 414 108 413 115 q 417 90 417 97 q 419 74 417 82 q 422 56 421 64 q 426 39 424 47 q 428 27 428 32 q 422 18 428 22 q 417 13 421 14 q 408 10 413 11 q 386 6 397 7 q 363 3 375 4 q 344 -2 356 0 q 329 10 332 -4 q 328 17 328 13 q 328 24 329 21 q 322 30 326 26 q 313 36 317 33 q 303 38 308 39 q 293 39 299 36 q 272 60 274 43 q 267 93 271 78 q 262 115 263 103 q 261 139 261 128 q 260 147 261 142 q 260 158 260 153 q 265 162 261 161 q 271 165 268 163 q 274 169 274 168 q 281 171 275 171 q 292 172 286 172 q 301 172 297 171 q 325 170 314 172 q 349 168 336 168 q 369 167 357 168 q 383 154 382 167 q 385 147 386 151 q 388 140 385 143 m 500 144 q 488 142 494 144 q 481 132 482 139 q 478 113 478 122 q 478 94 478 103 q 480 76 481 88 q 483 58 479 65 q 497 49 488 51 q 514 44 507 46 q 531 44 524 43 q 544 47 538 46 q 563 49 556 50 q 578 58 571 49 q 582 66 583 65 q 575 71 581 67 q 572 78 569 76 q 575 88 574 81 q 574 109 578 99 q 567 128 569 119 q 555 141 560 140 q 538 142 550 142 q 519 142 529 142 q 500 144 508 142 m 488 153 q 496 152 490 153 q 507 151 501 151 q 522 150 514 149 q 536 151 529 151 q 554 152 547 153 q 569 144 561 151 q 578 135 574 142 q 588 125 583 129 q 597 126 593 122 q 603 125 600 129 q 607 113 606 122 q 610 101 608 104 q 610 90 610 96 q 614 81 611 85 q 619 75 617 75 q 624 68 621 75 q 628 60 626 65 q 631 51 629 56 q 625 34 632 42 q 610 21 618 26 q 583 13 600 14 q 556 11 567 11 q 533 11 546 10 q 514 21 521 13 q 510 29 511 24 q 507 38 510 35 q 493 39 503 39 q 474 53 479 43 q 468 74 469 63 q 467 101 465 88 q 469 131 469 115 q 472 147 469 142 q 488 153 474 151 z "},"":{"ha":367,"x_min":53,"x_max":339,"o":"m 126 156 q 157 145 138 153 q 179 124 176 138 q 179 105 182 115 q 189 92 176 94 q 195 108 193 99 q 201 126 197 118 q 213 139 206 135 q 232 140 219 143 q 250 131 240 138 q 268 119 260 124 q 285 112 278 114 q 297 100 292 110 q 299 92 300 94 q 306 86 299 90 q 319 83 311 83 q 332 79 328 83 q 338 66 336 76 q 339 50 339 56 q 329 21 336 35 q 315 -7 322 7 q 307 -31 310 -18 q 301 -56 304 -44 q 289 -78 296 -72 q 264 -85 282 -83 q 238 -83 257 -85 q 213 -76 219 -82 q 210 -60 206 -69 q 213 -43 214 -50 q 206 -36 210 -37 q 199 -34 203 -35 q 190 -33 194 -33 q 185 -26 186 -32 q 167 -50 174 -35 q 150 -72 161 -65 q 126 -74 139 -79 q 101 -68 113 -69 q 74 -65 90 -65 q 56 -51 57 -64 q 58 -35 53 -44 q 64 -19 63 -25 q 65 -6 67 -7 q 57 1 64 -6 q 56 16 54 7 q 61 33 57 25 q 70 50 65 42 q 78 64 75 58 q 97 112 88 89 q 126 156 107 135 m 126 139 q 104 102 111 128 q 90 58 97 76 q 81 44 86 50 q 72 29 76 38 q 70 14 65 17 q 88 8 75 11 q 108 3 94 7 q 126 0 122 -1 q 128 14 132 3 q 123 38 125 25 q 126 60 121 50 q 157 71 132 71 q 170 77 167 71 q 172 93 174 83 q 164 112 169 103 q 151 128 158 121 q 139 137 144 133 q 126 139 133 140 m 235 121 q 213 84 219 110 q 199 42 207 58 q 194 28 194 35 q 190 13 193 22 q 191 0 189 6 q 206 -8 193 -6 q 222 -14 214 -10 q 235 -15 229 -18 q 245 -3 240 -12 q 254 19 250 7 q 262 41 258 31 q 267 56 265 51 q 272 86 269 75 q 260 113 275 97 q 249 120 254 117 q 235 121 243 124 z "},"=":{"ha":618,"x_min":25,"x_max":596,"o":"m 61 403 q 51 363 51 386 q 88 317 51 317 q 124 323 106 317 q 157 329 142 329 q 238 325 199 325 q 281 330 261 325 q 317 335 301 335 q 329 333 324 335 q 375 332 351 331 q 399 332 399 333 q 397 332 401 332 q 393 331 393 332 q 403 329 397 329 q 425 328 408 328 q 478 333 453 328 q 503 358 503 339 q 500 379 503 369 q 497 399 497 389 l 497 422 q 493 433 497 432 q 469 435 489 435 q 389 424 429 432 q 304 413 349 417 q 276 414 289 413 q 247 415 263 415 q 191 408 218 415 q 136 401 164 401 q 106 404 121 401 q 76 407 90 407 q 53 403 65 407 l 61 403 m 81 425 l 210 425 q 311 433 258 425 q 418 444 364 440 q 436 446 428 444 q 453 449 444 447 q 472 451 461 450 q 499 453 483 453 q 518 448 515 453 q 521 439 521 443 q 519 433 521 435 q 518 428 518 431 q 532 422 518 422 q 569 410 558 417 q 586 381 581 404 q 592 347 589 364 q 596 311 596 329 q 594 285 596 293 q 581 275 593 278 q 481 245 532 264 q 376 226 429 226 q 320 233 349 226 q 260 239 292 239 q 233 238 246 239 q 206 238 219 238 q 180 238 194 238 q 151 239 165 239 q 124 237 136 239 q 103 228 111 235 q 97 250 97 238 q 99 267 97 258 q 100 282 100 275 q 97 294 100 292 q 90 297 93 297 q 80 296 88 297 q 64 294 72 294 q 40 314 54 294 q 25 386 25 333 q 42 417 25 410 q 74 431 58 424 l 81 425 m 61 607 q 51 567 51 590 q 59 533 51 546 q 85 519 67 519 q 122 526 104 519 q 157 533 140 533 q 200 529 179 531 q 243 528 221 528 q 284 533 267 528 q 314 539 301 539 q 344 538 331 539 q 372 535 358 536 q 401 533 385 535 q 439 532 417 532 q 483 538 464 532 q 503 563 503 543 q 500 583 503 574 q 497 603 497 593 l 497 626 q 493 638 497 636 q 469 639 489 639 q 389 628 429 636 q 304 615 349 619 q 276 617 289 615 q 247 618 263 618 q 190 611 218 618 q 135 604 163 604 q 107 608 122 604 q 78 611 92 611 q 53 607 65 611 l 61 607 m 81 629 l 210 629 q 276 633 243 629 q 342 642 308 638 q 415 651 376 647 q 499 656 453 656 q 517 651 514 656 q 521 640 521 646 q 519 635 521 638 q 518 631 518 633 q 532 626 518 626 q 569 613 558 619 q 586 583 581 607 q 592 550 589 567 q 596 515 596 533 q 589 488 596 496 q 570 476 582 479 q 544 471 558 472 q 515 464 529 469 q 448 442 483 453 q 376 431 413 431 q 320 436 349 431 q 260 442 292 442 q 233 441 246 442 q 206 440 219 440 q 181 441 194 440 q 152 442 167 442 q 124 440 138 442 q 103 432 111 438 q 97 454 97 442 q 99 471 97 463 q 100 486 100 479 q 96 499 100 496 q 89 501 92 501 q 78 500 86 501 q 64 499 71 499 q 38 523 50 499 q 25 589 25 547 q 42 620 25 611 q 74 632 58 629 l 81 629 z "},"'":{"ha":240,"x_min":29,"x_max":232,"o":"m 81 1036 q 80 1017 79 1025 q 79 1001 81 1008 q 72 984 76 990 q 65 967 68 978 q 59 945 61 957 q 54 924 57 933 q 46 883 51 908 q 47 843 40 858 q 68 828 50 836 q 96 822 86 819 q 110 841 107 824 q 115 869 113 858 q 133 911 126 892 q 147 954 139 931 q 153 966 150 960 q 160 976 157 972 q 170 988 164 983 q 181 1001 176 993 q 177 1013 183 1008 q 161 1019 171 1017 q 141 1022 151 1021 q 125 1026 131 1024 q 103 1033 114 1031 q 81 1036 92 1036 m 75 1057 q 160 1039 119 1043 q 181 1036 169 1036 q 196 1026 192 1036 q 197 1015 197 1024 q 196 1003 196 1006 q 189 993 193 997 q 181 982 185 989 q 177 972 176 974 q 186 967 178 971 q 208 960 193 963 q 226 951 222 958 q 228 931 232 944 q 221 911 224 918 q 206 859 214 883 q 188 807 199 835 q 181 793 185 801 q 174 776 178 785 q 165 761 169 768 q 157 753 160 754 q 141 749 150 749 q 125 750 132 750 q 100 753 114 753 q 79 761 86 754 q 70 776 67 768 q 74 793 74 785 q 62 810 74 804 q 43 824 50 815 q 31 855 32 839 q 29 890 29 871 q 42 941 32 919 q 60 990 53 963 q 62 1006 61 996 q 63 1026 63 1015 q 66 1045 64 1036 q 75 1057 68 1054 z "},"%":{"ha":722,"x_min":4,"x_max":722,"o":"m 635 864 q 633 829 640 851 q 621 793 626 807 q 578 708 606 749 q 524 624 551 667 q 497 572 513 607 q 467 497 482 538 q 439 415 451 456 q 421 349 426 375 q 397 278 414 324 q 362 186 381 233 q 327 99 343 139 q 307 46 311 60 q 281 12 299 19 q 235 7 263 4 q 202 6 222 7 q 162 7 182 6 q 125 15 142 8 q 103 33 108 21 q 103 50 100 40 q 109 71 106 60 q 114 92 113 82 q 110 111 115 103 q 90 123 100 115 q 69 132 79 131 q 65 157 64 139 q 69 197 65 175 q 81 242 74 218 q 96 286 88 267 q 130 364 111 322 q 172 440 149 406 q 249 583 219 508 q 304 736 279 657 q 337 824 321 781 q 383 904 353 868 q 392 915 385 906 q 408 932 399 924 q 426 945 417 940 q 440 943 435 950 q 432 931 442 943 q 410 902 422 918 q 387 871 397 886 q 375 850 376 856 q 329 754 347 804 q 295 654 311 704 q 263 553 279 604 q 225 456 247 503 q 179 380 204 418 q 135 301 154 342 q 110 232 121 268 q 86 163 99 196 q 106 156 97 160 q 122 151 115 151 q 161 143 138 149 q 199 139 185 138 q 210 149 210 146 q 215 168 210 153 q 266 295 238 235 q 322 419 294 356 q 374 548 350 483 q 425 679 397 613 q 459 745 439 714 q 496 807 479 776 q 519 849 510 828 q 539 892 529 869 q 547 910 542 900 q 555 929 551 919 q 558 948 558 939 q 547 965 557 957 q 499 978 528 978 q 444 983 469 979 q 426 987 438 983 q 414 999 414 990 q 416 1011 410 1008 q 433 1014 422 1014 q 453 1012 443 1014 q 469 1010 464 1010 q 501 1001 489 1010 q 529 989 514 993 q 547 983 539 985 q 567 975 554 981 q 577 958 576 968 q 576 938 578 949 q 573 917 574 928 q 579 900 572 907 q 593 891 585 893 q 610 886 601 889 q 625 878 618 883 q 635 864 632 874 m 264 788 q 247 740 260 757 q 228 718 240 729 q 204 699 217 707 q 194 691 199 696 q 181 682 189 686 q 150 676 169 675 q 117 674 131 676 q 112 678 121 675 q 90 685 103 682 q 69 689 78 688 q 67 688 60 690 q 47 706 51 696 q 44 725 43 715 q 46 743 44 735 q 42 758 47 751 q 9 815 14 783 q 8 889 4 847 q 14 908 8 897 q 27 928 19 918 q 44 944 35 938 q 61 953 53 951 q 88 958 78 957 q 107 959 99 960 q 124 956 115 958 q 149 951 133 954 q 158 949 153 949 q 167 949 163 949 q 174 941 172 944 q 179 936 175 938 q 197 919 189 931 q 211 904 206 907 q 228 905 221 900 q 243 904 236 910 q 269 873 263 890 q 275 844 275 856 q 272 833 275 833 q 271 850 268 832 q 270 849 271 856 q 268 832 269 843 q 265 808 267 821 q 264 788 264 794 m 201 864 q 186 894 199 879 q 174 925 174 910 q 151 930 164 929 q 129 935 139 931 q 113 942 122 938 q 93 949 103 946 q 81 941 83 949 q 67 931 78 933 q 34 903 47 926 q 21 858 21 879 q 22 818 18 833 q 40 785 25 803 q 56 762 50 767 q 82 747 63 757 q 144 745 111 732 q 192 790 178 758 q 201 828 197 807 q 201 864 206 849 m 711 128 q 694 79 710 100 q 676 58 688 68 q 653 39 664 47 q 641 31 646 38 q 628 21 636 25 q 597 14 617 14 q 565 13 578 14 q 560 17 569 13 q 538 24 550 21 q 516 29 525 28 q 513 26 507 31 q 494 45 497 35 q 491 65 490 56 q 493 83 492 75 q 489 97 494 92 q 456 155 461 122 q 456 229 451 188 q 461 248 456 238 q 474 268 467 258 q 491 285 482 278 q 508 294 500 292 q 535 299 525 297 q 553 299 544 300 q 571 297 561 299 q 596 293 581 294 q 606 290 603 290 q 614 289 610 289 q 621 281 619 285 q 626 275 622 278 q 645 258 636 269 q 660 243 654 246 q 676 244 668 240 q 690 243 685 249 q 716 212 710 229 q 722 183 722 194 q 719 171 722 172 q 718 189 717 169 q 717 190 718 196 q 715 172 717 183 q 713 148 714 161 q 711 128 711 135 m 650 203 q 634 234 647 218 q 621 263 621 250 q 600 269 611 268 q 578 274 589 269 q 560 283 569 278 q 542 289 550 288 q 530 281 532 289 q 513 269 528 272 q 481 242 493 264 q 469 197 469 221 q 471 158 468 174 q 488 124 474 143 q 504 101 497 107 q 532 86 511 96 q 592 84 560 71 q 639 129 625 97 q 650 167 644 146 q 650 203 656 188 z "},"":{"ha":290,"x_min":39,"x_max":249,"o":"m 92 1029 q 91 1009 90 1018 q 90 992 92 1000 q 84 974 88 982 q 76 958 81 967 q 71 936 74 947 q 67 914 68 925 q 58 871 63 897 q 58 829 53 844 q 80 815 61 824 q 108 808 99 806 q 124 828 121 810 q 129 857 126 846 q 147 900 140 879 q 160 944 153 921 q 167 956 165 951 q 174 968 169 961 q 184 980 178 975 q 196 992 190 985 q 192 1004 199 1000 q 175 1011 185 1008 q 154 1015 165 1014 q 138 1019 143 1017 q 115 1026 125 1022 q 92 1029 104 1029 m 88 1050 q 131 1039 111 1043 q 174 1032 151 1035 q 196 1029 185 1029 q 211 1019 207 1029 q 212 1008 213 1017 q 211 996 211 999 q 205 985 210 989 q 196 974 200 981 q 191 962 190 963 q 201 958 192 961 q 224 952 208 954 q 242 943 239 950 q 244 920 249 933 q 239 900 240 907 q 222 847 229 872 q 203 793 214 821 q 197 779 200 788 q 188 762 193 771 q 179 745 183 753 q 172 736 175 738 q 154 734 163 733 q 138 735 146 735 q 113 737 128 736 q 90 744 97 738 q 82 760 79 753 q 85 779 85 768 q 72 795 85 790 q 53 810 60 800 q 40 842 42 826 q 39 878 39 858 q 53 931 42 908 q 72 982 64 954 q 74 998 74 988 q 74 1019 74 1008 q 78 1038 75 1029 q 88 1050 81 1047 z "},"":{"ha":367,"x_min":42,"x_max":331,"o":"m 65 994 q 76 972 69 981 q 86 953 82 964 q 90 932 90 943 q 92 908 90 921 q 100 882 96 896 q 108 856 104 868 q 115 833 111 846 q 125 806 119 819 q 137 780 131 792 q 151 763 143 768 q 163 760 154 760 q 183 760 172 760 q 203 765 193 761 q 217 772 213 768 q 222 801 229 781 q 210 833 214 821 q 197 885 200 868 q 193 910 193 901 q 193 926 193 919 q 189 946 193 932 q 188 964 189 957 q 190 981 188 971 q 193 997 190 989 q 196 1017 196 1006 q 187 1028 196 1028 q 165 1025 178 1029 q 140 1015 153 1021 q 119 1008 128 1010 q 91 1003 106 1006 q 65 994 76 1001 m 49 1014 q 103 1028 81 1021 q 150 1046 126 1035 q 174 1057 163 1050 q 196 1056 186 1064 q 205 1044 200 1054 q 213 1031 210 1033 q 211 1015 213 1022 q 210 1000 210 1008 q 213 984 211 985 q 226 986 214 983 q 252 992 235 986 q 276 992 269 999 q 292 972 288 989 q 299 946 296 954 q 313 878 306 911 q 326 813 321 846 q 328 794 328 806 q 330 770 329 782 q 331 748 331 758 q 329 735 331 738 q 311 720 321 726 q 293 710 301 714 q 266 697 283 704 q 238 692 249 689 q 217 703 218 693 q 210 724 217 713 q 188 734 203 736 q 158 740 174 732 q 124 766 135 750 q 103 801 114 782 q 85 866 89 833 q 74 932 81 899 q 65 950 71 939 q 53 973 58 961 q 44 996 47 985 q 49 1014 42 1007 z "},"":{"ha":799,"x_min":0,"x_max":0,"o":""}," ":{"ha":397,"x_min":0,"x_max":0,"o":""},"":{"ha":694,"x_min":90,"x_max":615,"o":"m 117 454 q 111 438 113 447 q 110 417 110 428 q 115 399 111 407 q 128 389 119 390 q 153 388 136 388 q 188 391 169 389 q 224 395 207 393 q 249 397 240 397 q 293 394 271 396 q 339 396 315 393 q 373 401 351 397 q 407 401 394 404 q 432 401 419 400 q 457 400 444 401 q 478 398 465 399 q 506 398 492 397 q 530 403 519 399 q 542 417 540 407 q 539 436 543 426 q 538 456 535 446 q 536 476 538 474 q 515 479 535 479 q 452 471 483 476 q 389 463 421 465 q 353 463 378 463 q 318 464 329 464 q 281 460 299 464 q 247 454 264 457 q 226 453 240 453 q 196 453 213 453 q 165 455 179 454 q 144 456 150 456 q 128 458 135 458 q 111 454 121 457 l 117 454 m 132 472 l 289 472 q 345 475 311 472 q 401 481 379 478 q 439 484 421 483 q 476 488 457 485 q 490 488 483 488 q 506 489 497 489 q 530 492 513 489 q 551 489 547 494 q 555 481 556 485 q 553 475 554 478 q 554 471 553 472 q 564 468 556 469 q 592 461 583 465 q 606 438 601 457 q 612 403 608 419 q 613 368 615 386 q 611 360 613 361 q 601 356 610 358 q 575 351 588 353 q 550 346 563 350 q 499 327 526 336 q 444 318 472 318 q 388 325 422 321 q 329 329 353 329 q 285 328 306 326 q 243 326 265 329 q 225 326 239 326 q 195 326 211 326 q 166 325 179 326 q 150 321 153 324 q 146 344 143 332 q 146 368 149 357 q 141 374 143 375 q 129 372 139 372 q 116 372 122 371 q 104 379 110 372 q 102 388 101 383 q 100 397 103 393 q 97 413 100 406 q 92 426 94 419 q 90 446 90 438 q 100 464 90 454 q 113 472 107 471 q 128 475 119 472 l 132 472 z "},"":{"ha":694,"x_min":126,"x_max":568,"o":"m 153 454 q 147 438 149 447 q 147 417 146 428 q 151 399 147 407 q 164 389 156 390 q 196 392 179 386 q 228 397 213 397 q 272 394 250 396 q 318 396 294 393 q 339 401 331 397 q 360 401 347 404 q 385 401 372 400 q 410 400 397 401 q 431 398 418 399 q 458 398 444 397 q 483 403 472 399 q 494 417 493 407 q 492 436 496 426 q 490 456 488 446 q 489 476 490 474 q 468 479 488 479 q 405 471 436 476 q 342 463 374 465 q 319 463 331 463 q 297 464 308 464 q 260 460 278 464 q 226 454 243 457 q 203 453 214 451 q 181 456 193 454 q 164 458 171 458 q 147 454 157 457 l 153 454 m 168 472 l 268 472 q 311 475 290 472 q 354 481 332 478 q 392 484 374 483 q 429 488 410 485 q 443 488 436 488 q 458 489 450 489 q 483 492 465 489 q 504 489 500 494 q 508 481 508 485 q 506 475 507 478 q 507 471 506 472 q 517 468 508 469 q 545 461 536 465 q 558 438 554 457 q 565 403 561 419 q 565 368 568 386 q 564 360 565 361 q 554 356 563 358 q 528 351 540 353 q 503 346 515 350 q 452 327 479 336 q 397 318 425 318 q 353 325 375 321 q 308 329 332 329 q 265 328 285 326 q 222 326 244 329 q 203 327 214 326 q 186 321 193 328 q 182 344 179 332 q 182 368 185 357 q 177 374 179 375 q 165 372 175 372 q 152 372 158 371 q 140 379 146 372 q 138 388 138 383 q 136 397 139 393 q 133 413 136 406 q 128 426 131 419 q 126 446 126 438 q 136 464 126 454 q 149 472 143 471 q 164 475 156 472 l 168 472 z "},"":{"ha":531,"x_min":121,"x_max":371,"o":"m 361 597 q 346 554 357 575 q 328 533 339 543 q 306 517 317 524 q 294 509 299 514 q 285 501 290 504 q 256 495 274 494 q 224 493 238 496 q 219 497 228 494 q 200 503 211 500 q 181 507 189 506 q 178 506 172 508 q 159 523 163 514 q 156 541 156 532 q 158 558 157 550 q 156 569 160 565 q 126 623 131 593 q 125 692 121 653 q 130 708 125 699 q 142 727 135 718 q 157 743 149 736 q 174 753 165 750 q 198 756 189 756 q 215 756 207 757 q 231 753 222 754 q 254 750 240 751 q 269 747 260 747 q 278 740 276 744 q 282 735 279 736 q 298 717 289 728 q 313 704 307 707 q 328 705 321 700 q 342 704 335 710 q 365 676 360 692 q 371 649 371 660 q 368 638 371 639 q 365 653 365 636 q 366 654 367 660 q 365 638 365 649 q 363 616 364 628 q 361 597 361 604 m 301 668 q 289 697 300 682 q 278 725 278 711 q 256 728 267 728 q 236 732 246 728 q 220 740 229 735 q 203 747 211 744 q 191 740 193 747 q 178 729 189 732 q 148 705 158 726 q 138 664 138 683 q 138 626 135 640 q 153 594 142 613 q 169 574 163 579 q 193 563 176 569 q 251 559 221 546 q 292 600 281 572 q 303 634 299 615 q 301 668 307 653 z "},"|":{"ha":546,"x_min":117,"x_max":435,"o":"m 143 1067 q 149 1049 146 1056 q 151 1033 151 1043 q 150 1007 151 1021 q 146 982 149 993 q 144 914 143 947 q 144 846 144 881 q 147 734 146 788 q 157 624 149 681 q 162 541 163 582 q 160 460 161 500 q 158 381 158 419 q 167 303 158 342 q 188 166 178 233 q 210 35 197 99 q 240 32 221 35 q 277 28 258 29 q 311 28 296 26 q 332 42 326 31 q 334 60 335 46 q 331 90 333 74 q 324 123 328 107 q 317 146 319 139 q 304 212 313 181 q 296 278 296 243 q 297 332 294 306 q 302 385 300 358 q 302 438 304 411 q 290 492 300 464 q 263 591 271 544 q 251 696 254 638 q 260 803 254 749 q 263 914 265 858 q 261 942 263 924 q 258 978 260 960 q 251 1015 256 997 q 240 1040 247 1032 q 212 1049 228 1050 q 181 1047 196 1047 q 170 1047 174 1046 q 160 1049 167 1047 q 153 1058 154 1051 q 143 1067 151 1064 m 215 1082 q 243 1069 235 1075 q 258 1049 251 1064 q 266 1027 265 1035 q 268 1014 267 1019 q 275 1005 269 1008 q 299 997 281 1001 q 320 994 311 994 q 336 990 329 993 q 349 982 343 988 q 361 963 354 976 q 376 901 371 936 q 390 838 382 865 q 428 594 421 713 q 432 350 435 475 q 431 185 429 267 q 425 21 432 103 q 422 -1 422 11 q 419 -24 421 -12 q 413 -47 417 -36 q 400 -62 408 -57 q 363 -78 385 -75 q 321 -78 342 -82 q 283 -62 300 -74 q 258 -33 265 -50 q 249 -10 251 -18 q 244 1 247 -3 q 234 10 240 6 q 215 21 228 14 q 193 39 200 29 q 183 60 186 49 q 179 85 181 72 q 174 115 178 99 q 146 260 156 186 q 131 407 136 333 q 123 555 125 481 q 118 700 121 629 q 122 838 117 768 q 124 978 128 908 q 122 1000 124 986 q 119 1029 119 1014 q 119 1058 118 1044 q 126 1081 119 1072 q 169 1089 142 1093 q 215 1082 196 1085 z "},"_":{"ha":694,"x_min":90,"x_max":615,"o":"m 117 88 q 111 71 113 81 q 110 51 110 61 q 115 32 111 40 q 128 22 119 24 q 153 22 136 21 q 188 24 169 22 q 224 28 207 26 q 249 31 240 31 q 293 28 271 29 q 339 29 315 26 q 373 34 351 31 q 407 35 394 38 q 432 34 419 33 q 457 33 444 35 q 478 31 465 32 q 506 31 492 31 q 530 36 519 32 q 542 50 540 40 q 539 69 543 60 q 538 89 535 79 q 536 110 538 107 q 515 113 535 113 q 452 104 483 110 q 389 96 421 99 q 353 97 378 96 q 318 97 329 97 q 281 94 299 97 q 247 88 264 90 q 226 86 240 86 q 196 87 213 86 q 165 88 179 88 q 144 89 150 89 q 128 91 135 92 q 111 88 121 90 l 117 88 m 132 106 l 289 106 q 345 108 311 106 q 401 114 379 111 q 439 117 421 117 q 476 121 457 118 q 490 122 483 121 q 506 122 497 122 q 530 125 513 122 q 551 122 547 128 q 555 115 556 118 q 553 108 554 111 q 554 104 553 106 q 564 101 556 103 q 592 94 583 99 q 606 71 601 90 q 612 36 608 53 q 613 1 615 19 q 611 -7 613 -6 q 601 -11 610 -8 q 575 -15 588 -14 q 550 -21 563 -17 q 499 -40 526 -31 q 444 -49 472 -49 q 388 -42 422 -46 q 329 -37 353 -37 q 285 -39 306 -40 q 243 -40 265 -37 q 225 -40 239 -40 q 195 -40 211 -40 q 166 -42 179 -40 q 150 -46 153 -43 q 146 -22 143 -35 q 146 1 149 -10 q 141 7 143 8 q 129 6 139 6 q 116 5 122 4 q 104 13 110 6 q 102 22 101 17 q 100 31 103 26 q 97 46 100 39 q 92 60 94 53 q 90 79 90 71 q 100 97 90 88 q 113 105 107 104 q 128 108 119 106 l 132 106 z "},"$":{"ha":628,"x_min":0,"x_max":0,"o":""},"`":{"ha":536,"x_min":133,"x_max":385,"o":"m 149 1242 q 223 1207 194 1226 q 288 1158 251 1188 q 324 1129 310 1136 q 354 1144 339 1122 q 362 1178 369 1168 q 333 1204 354 1189 q 283 1253 306 1226 q 228 1292 261 1281 q 197 1299 213 1299 q 170 1294 182 1300 q 153 1275 158 1288 q 156 1242 149 1263 l 149 1242 m 163 1317 q 220 1317 197 1331 q 269 1282 243 1303 q 322 1240 293 1263 q 371 1197 351 1217 q 380 1168 385 1178 q 371 1140 375 1158 q 371 1124 369 1131 q 374 1110 372 1117 q 376 1095 376 1103 q 371 1078 376 1088 q 340 1051 360 1058 q 297 1046 319 1043 q 256 1060 274 1047 q 215 1085 238 1074 q 170 1115 192 1096 q 140 1160 149 1135 q 135 1181 138 1168 q 136 1203 133 1194 q 142 1213 138 1210 q 146 1224 146 1217 q 141 1242 146 1233 q 138 1261 136 1250 q 146 1292 140 1272 q 163 1317 151 1313 z "},"":{"ha":694,"x_min":0,"x_max":0,"o":"z "},"@":{"ha":813,"x_min":0,"x_max":0,"o":""},"":{"ha":694,"x_min":22,"x_max":717,"o":"m 213 986 q 162 981 186 986 q 110 976 138 976 q 57 976 83 969 q 26 993 38 976 q 28 1004 22 997 q 35 1014 35 1011 q 58 1007 51 1011 q 83 1003 64 1003 q 96 1005 92 1004 q 108 1010 100 1006 q 151 1015 126 1017 q 196 1014 176 1014 l 213 1014 q 265 1020 236 1021 q 322 1024 294 1019 q 384 1020 354 1024 q 446 1014 414 1017 q 478 1013 465 1011 q 508 1004 492 1015 q 519 1002 517 1001 q 523 1001 522 1003 q 523 996 524 1000 q 524 981 522 992 q 534 972 526 974 q 550 969 542 969 q 566 968 558 969 q 578 961 574 967 q 585 942 582 957 q 590 912 589 928 q 590 881 592 896 q 583 861 589 867 q 574 848 581 857 q 560 830 568 839 q 542 815 551 821 q 524 808 532 808 q 488 810 518 808 q 424 814 458 813 q 358 815 389 815 q 322 808 328 814 q 310 785 313 801 q 310 749 308 768 q 313 710 311 729 q 315 678 315 690 q 327 672 313 675 q 363 666 342 669 q 404 660 383 663 q 435 658 425 658 q 465 658 446 658 q 503 658 483 658 q 542 656 524 657 q 574 653 561 654 q 590 652 582 653 q 604 645 599 651 q 612 626 610 639 q 610 589 614 613 q 615 567 607 575 q 631 551 622 560 q 644 528 639 542 q 642 489 649 515 q 635 461 638 475 q 622 433 633 447 q 604 425 621 425 q 578 422 588 425 q 531 414 554 413 q 483 410 507 415 q 455 406 475 407 q 414 403 435 406 q 376 397 393 401 q 354 385 358 393 q 353 368 354 381 q 353 343 351 356 q 358 321 354 331 q 371 314 363 311 q 389 316 379 317 q 408 313 399 315 q 424 309 417 311 q 435 307 432 307 q 515 300 490 299 q 558 301 539 301 q 595 297 589 301 q 610 285 601 293 q 614 260 614 278 q 621 233 614 242 q 644 222 631 226 q 672 210 658 217 q 696 196 686 204 q 707 175 706 188 q 714 120 711 151 q 703 71 717 89 q 690 47 696 54 q 677 35 683 39 q 664 33 671 32 q 647 33 657 33 q 608 31 635 33 q 552 24 582 28 q 494 17 522 19 q 451 14 467 14 q 417 14 440 14 q 367 13 393 14 q 318 11 340 13 q 289 8 296 10 q 263 4 269 6 q 251 3 256 3 q 237 4 246 3 q 207 8 228 6 q 179 6 194 8 q 163 14 164 4 q 156 39 156 24 q 153 64 157 54 q 142 79 153 71 q 118 95 131 88 q 94 109 106 103 q 83 119 83 115 q 72 149 78 133 q 72 183 67 164 q 70 234 75 210 q 65 301 65 258 q 58 401 65 346 q 51 503 51 456 q 53 555 51 531 q 58 603 56 579 q 60 651 60 626 q 58 704 61 675 q 53 751 56 725 q 47 803 50 776 q 42 856 44 831 q 35 904 39 882 q 31 921 35 911 q 26 941 28 931 q 25 960 24 951 q 33 972 26 968 q 56 960 47 978 q 70 919 65 943 q 77 870 75 894 q 82 838 79 846 q 85 762 86 804 q 83 675 85 719 q 79 587 81 631 q 82 508 78 543 q 87 468 83 489 q 94 425 90 447 q 98 384 97 407 q 99 337 99 361 q 97 289 99 313 q 94 247 96 265 q 96 226 94 242 q 99 194 97 211 q 104 163 101 178 q 110 143 107 149 q 124 131 114 135 q 146 126 133 128 q 170 126 158 125 q 190 126 182 126 q 213 124 207 124 q 224 127 219 125 q 235 132 229 129 q 258 138 242 135 q 308 140 282 142 q 360 143 335 139 q 457 144 411 143 q 553 146 503 146 q 572 144 563 144 q 586 147 581 144 q 594 156 592 150 q 590 172 596 161 q 590 189 590 175 q 590 219 590 203 q 588 248 589 235 q 583 264 586 261 q 565 268 579 267 q 535 269 551 269 q 503 269 518 269 q 483 269 489 269 q 453 272 464 271 q 428 282 443 274 q 380 285 407 288 q 326 278 353 282 q 273 272 299 274 q 228 276 247 269 q 231 356 226 310 q 239 433 235 401 q 240 457 240 446 q 240 478 239 468 q 245 494 240 488 q 264 504 250 501 q 303 509 281 508 q 349 509 325 510 q 394 507 372 508 q 433 504 417 506 q 460 506 444 504 q 486 508 475 508 q 500 508 490 508 q 522 507 510 507 q 544 508 533 507 q 558 514 554 510 q 567 530 561 514 q 576 566 572 546 q 581 603 581 586 q 578 622 582 619 q 550 625 569 622 q 515 631 531 628 q 473 639 492 636 q 436 642 454 642 q 399 641 418 642 q 353 640 379 640 q 307 638 329 640 q 265 640 285 636 q 244 635 256 640 q 226 640 232 631 q 221 651 222 643 q 219 669 219 660 q 220 689 219 679 q 221 704 221 699 q 223 742 225 722 q 221 797 221 761 q 227 831 226 817 q 228 867 228 844 q 231 890 228 882 q 251 901 233 899 q 273 897 263 901 q 296 897 283 893 q 347 901 319 897 q 397 910 374 906 q 442 902 417 910 q 486 901 467 894 q 496 913 492 903 q 501 938 500 924 q 501 966 503 951 q 494 989 500 981 q 478 996 492 994 q 449 997 465 997 q 418 997 433 997 q 397 999 403 996 q 345 999 367 1000 q 303 994 324 997 q 263 989 283 992 q 213 986 242 986 m 208 1263 q 267 1236 244 1251 q 317 1197 289 1221 q 346 1175 335 1181 q 369 1186 357 1169 q 375 1213 381 1204 q 353 1233 369 1222 q 315 1271 332 1250 q 271 1301 297 1292 q 247 1308 260 1307 q 226 1303 235 1308 q 213 1288 217 1299 q 214 1263 208 1278 l 208 1263 m 219 1321 q 265 1321 247 1332 q 303 1293 283 1310 q 344 1260 322 1278 q 382 1228 367 1243 q 389 1205 393 1213 q 382 1183 385 1197 q 382 1171 381 1176 q 385 1160 383 1165 q 386 1149 386 1154 q 382 1135 386 1143 q 358 1113 374 1119 q 325 1110 342 1107 q 292 1122 307 1111 q 261 1140 278 1132 q 226 1164 243 1149 q 203 1199 210 1179 q 198 1215 200 1206 q 199 1232 196 1225 q 203 1240 200 1238 q 207 1249 207 1242 q 203 1263 207 1256 q 200 1278 199 1269 q 207 1302 203 1286 q 219 1321 211 1318 z "},"":{"ha":694,"x_min":22,"x_max":717,"o":"m 213 986 q 162 981 186 986 q 110 976 138 976 q 57 976 83 969 q 26 993 38 976 q 28 1004 22 997 q 35 1014 35 1011 q 58 1007 51 1011 q 83 1003 64 1003 q 96 1005 92 1004 q 108 1010 100 1006 q 151 1015 126 1017 q 196 1014 176 1014 l 213 1014 q 265 1020 236 1021 q 322 1024 294 1019 q 384 1020 354 1024 q 446 1014 414 1017 q 478 1013 465 1011 q 508 1004 492 1015 q 519 1002 517 1001 q 523 1001 522 1003 q 523 996 524 1000 q 524 981 522 992 q 534 972 526 974 q 550 969 542 969 q 566 968 558 969 q 578 961 574 967 q 585 942 582 957 q 590 912 589 928 q 590 881 592 896 q 583 861 589 867 q 574 848 581 857 q 560 830 568 839 q 542 815 551 821 q 524 808 532 808 q 488 810 518 808 q 424 814 458 813 q 358 815 389 815 q 322 808 328 814 q 310 785 313 801 q 310 749 308 768 q 313 710 311 729 q 315 678 315 690 q 327 672 313 675 q 363 666 342 669 q 404 660 383 663 q 435 658 425 658 q 465 658 446 658 q 503 658 483 658 q 542 656 524 657 q 574 653 561 654 q 590 652 582 653 q 604 645 599 651 q 612 626 610 639 q 610 589 614 613 q 615 567 607 575 q 631 551 622 560 q 644 528 639 542 q 642 489 649 515 q 635 461 638 475 q 622 433 633 447 q 604 425 621 425 q 578 422 588 425 q 531 414 554 413 q 483 410 507 415 q 455 406 475 407 q 414 403 435 406 q 376 397 393 401 q 354 385 358 393 q 353 368 354 381 q 353 343 351 356 q 358 321 354 331 q 371 314 363 311 q 389 316 379 317 q 408 313 399 315 q 424 309 417 311 q 435 307 432 307 q 515 300 490 299 q 558 301 539 301 q 595 297 589 301 q 610 285 601 293 q 614 260 614 278 q 621 233 614 242 q 644 222 631 226 q 672 210 658 217 q 696 196 686 204 q 707 175 706 188 q 714 120 711 151 q 703 71 717 89 q 690 47 696 54 q 677 35 683 39 q 664 33 671 32 q 647 33 657 33 q 608 31 635 33 q 552 24 582 28 q 494 17 522 19 q 451 14 467 14 q 417 14 440 14 q 367 13 393 14 q 318 11 340 13 q 289 8 296 10 q 263 4 269 6 q 251 3 256 3 q 237 4 246 3 q 207 8 228 6 q 179 6 194 8 q 163 14 164 4 q 156 39 156 24 q 153 64 157 54 q 142 79 153 71 q 118 95 131 88 q 94 109 106 103 q 83 119 83 115 q 72 149 78 133 q 72 183 67 164 q 70 234 75 210 q 65 301 65 258 q 58 401 65 346 q 51 503 51 456 q 53 555 51 531 q 58 603 56 579 q 60 651 60 626 q 58 704 61 675 q 53 751 56 725 q 47 803 50 776 q 42 856 44 831 q 35 904 39 882 q 31 921 35 911 q 26 941 28 931 q 25 960 24 951 q 33 972 26 968 q 56 960 47 978 q 70 919 65 943 q 77 870 75 894 q 82 838 79 846 q 85 762 86 804 q 83 675 85 719 q 79 587 81 631 q 82 508 78 543 q 87 468 83 489 q 94 425 90 447 q 98 384 97 407 q 99 337 99 361 q 97 289 99 313 q 94 247 96 265 q 96 226 94 242 q 99 194 97 211 q 104 163 101 178 q 110 143 107 149 q 124 131 114 135 q 146 126 133 128 q 170 126 158 125 q 190 126 182 126 q 213 124 207 124 q 224 127 219 125 q 235 132 229 129 q 258 138 242 135 q 308 140 282 142 q 360 143 335 139 q 457 144 411 143 q 553 146 503 146 q 572 144 563 144 q 586 147 581 144 q 594 156 592 150 q 590 172 596 161 q 590 189 590 175 q 590 219 590 203 q 588 248 589 235 q 583 264 586 261 q 565 268 579 267 q 535 269 551 269 q 503 269 518 269 q 483 269 489 269 q 453 272 464 271 q 428 282 443 274 q 380 285 407 288 q 326 278 353 282 q 273 272 299 274 q 228 276 247 269 q 231 356 226 310 q 239 433 235 401 q 240 457 240 446 q 240 478 239 468 q 245 494 240 488 q 264 504 250 501 q 303 509 281 508 q 349 509 325 510 q 394 507 372 508 q 433 504 417 506 q 460 506 444 504 q 486 508 475 508 q 500 508 490 508 q 522 507 510 507 q 544 508 533 507 q 558 514 554 510 q 567 530 561 514 q 576 566 572 546 q 581 603 581 586 q 578 622 582 619 q 550 625 569 622 q 515 631 531 628 q 473 639 492 636 q 436 642 454 642 q 399 641 418 642 q 353 640 379 640 q 307 638 329 640 q 265 640 285 636 q 244 635 256 640 q 226 640 232 631 q 221 651 222 643 q 219 669 219 660 q 220 689 219 679 q 221 704 221 699 q 223 742 225 722 q 221 797 221 761 q 227 831 226 817 q 228 867 228 844 q 231 890 228 882 q 251 901 233 899 q 273 897 263 901 q 296 897 283 893 q 347 901 319 897 q 397 910 374 906 q 442 902 417 910 q 486 901 467 894 q 496 913 492 903 q 501 938 500 924 q 501 966 503 951 q 494 989 500 981 q 478 996 492 994 q 449 997 465 997 q 418 997 433 997 q 397 999 403 996 q 345 999 367 1000 q 303 994 324 997 q 263 989 283 992 q 213 986 242 986 m 324 1265 q 270 1235 300 1250 q 217 1197 240 1221 q 203 1172 208 1186 q 200 1147 199 1158 q 210 1128 201 1136 q 238 1124 218 1121 q 306 1139 269 1128 q 361 1176 343 1150 q 378 1213 372 1196 q 400 1246 385 1231 q 414 1267 407 1253 q 411 1290 421 1281 q 401 1292 410 1292 q 388 1292 393 1292 l 388 1294 q 392 1301 388 1297 q 373 1299 382 1303 q 356 1290 364 1296 q 340 1276 347 1283 q 324 1265 332 1269 m 406 1325 q 415 1305 406 1310 q 426 1286 424 1300 q 424 1277 426 1282 q 426 1265 422 1272 q 440 1255 429 1260 q 453 1246 450 1250 q 474 1222 467 1232 q 468 1197 482 1213 q 431 1165 453 1182 q 394 1139 410 1149 q 363 1117 379 1128 q 332 1094 347 1106 q 304 1084 321 1090 q 272 1074 288 1078 q 228 1097 238 1065 q 227 1106 225 1106 q 222 1113 229 1107 q 211 1118 218 1117 q 199 1124 204 1119 q 189 1144 190 1131 q 190 1168 188 1157 q 225 1221 200 1201 q 272 1263 250 1240 q 311 1287 292 1281 q 353 1301 331 1293 q 380 1315 367 1306 q 410 1322 393 1325 l 406 1325 z "},"":{"ha":449,"x_min":63,"x_max":336,"o":"m 282 474 q 295 465 294 478 q 289 446 296 451 q 267 438 281 435 q 243 443 254 440 q 208 443 228 447 q 176 444 197 443 q 142 453 156 446 q 131 474 131 458 q 121 494 132 489 q 96 501 107 501 q 82 517 85 500 q 78 558 79 536 q 75 600 78 579 q 65 640 68 619 q 82 672 63 660 q 121 686 97 686 q 164 686 144 686 q 199 683 179 683 q 233 676 219 683 q 242 666 240 671 q 247 656 244 661 l 247 626 q 264 622 253 619 q 282 621 275 625 q 287 613 288 618 q 289 601 286 608 q 290 565 292 583 q 292 529 289 546 q 294 509 292 521 q 292 490 297 497 q 283 487 289 489 q 272 488 276 485 q 267 498 268 490 q 265 515 265 506 q 267 533 265 525 q 268 546 268 542 q 269 576 265 557 q 268 603 272 594 q 259 607 265 606 q 249 611 253 608 q 215 610 233 613 q 186 600 197 608 q 165 583 176 593 q 147 561 154 574 q 145 544 143 554 q 147 522 147 533 q 146 490 147 508 q 156 465 144 472 q 175 464 163 463 q 194 465 188 465 q 222 464 207 463 q 249 463 238 465 q 259 459 254 461 q 267 457 264 457 q 274 460 271 457 q 278 474 276 464 l 282 474 m 289 -337 q 297 -312 292 -324 q 304 -290 303 -301 q 310 -210 315 -246 q 303 -132 304 -175 q 288 -51 294 -96 q 285 32 282 -7 q 291 140 290 88 q 292 251 292 193 q 293 274 292 267 q 282 292 294 281 q 236 303 265 303 q 193 301 207 304 q 166 276 174 294 q 158 233 158 257 q 160 187 157 210 q 164 149 163 164 q 175 -32 171 57 q 176 -211 179 -121 q 172 -256 176 -233 q 174 -304 167 -278 q 181 -332 176 -324 q 201 -343 185 -340 q 244 -344 219 -350 q 289 -337 269 -339 m 310 -351 q 235 -362 275 -362 q 165 -339 194 -362 q 136 -323 154 -328 q 110 -314 118 -318 q 102 -294 104 -308 q 99 -265 100 -281 q 99 -236 99 -250 q 100 -214 100 -222 q 94 -148 100 -181 q 86 -81 89 -115 q 84 28 79 -28 q 86 139 89 85 q 79 180 85 150 q 70 244 74 210 q 69 309 67 279 q 86 350 71 339 q 111 358 93 358 q 138 361 129 358 q 173 365 157 364 q 204 367 189 367 q 230 364 221 365 q 243 359 239 363 q 249 349 247 356 q 254 331 251 342 q 280 304 265 313 q 304 278 294 296 q 323 188 324 238 q 319 96 322 139 q 325 -10 317 43 q 333 -115 333 -62 q 330 -235 336 -176 q 310 -351 324 -293 z "}}}
